<svg xmlns="http://www.w3.org/2000/svg" width="2730.667" height="2730.667" viewBox="0 0 2048 2048"><path d="M646 117.6c-1.9.2-9.1.9-16 1.4-65.6 5.6-135.4 25.1-196.5 55-167.6 82.1-284.7 242.6-310.9 426.2-5.4 37.3-5.1 14.9-5.1 423.8s-.3 386.5 5.1 423.8c16.8 118.1 71.3 227.9 155.8 314.1 86 87.6 198.1 145.1 318.1 163.1 39.1 5.8 6.7 5.4 417 5.8 267.7.2 380.6 0 392-.8 108.6-7.5 212.4-46 299-110.8 34.1-25.6 68.8-58.4 95.3-90.2 69.2-83 112.6-181.2 126.6-286.2 5.3-39.8 5.1-21.3 5.1-418.8s.2-379-5.1-418.8c-22.6-169.6-123-321-271.4-409.5-74.8-44.6-158.4-70.8-247.9-77.7-12.2-.9-751.2-1.3-761.1-.4M1059.5 556c30.8 2.6 63.6 8.4 90 15.9 100.9 28.6 188.9 88.4 250.6 170.6 23.3 31 44.9 68.6 60.4 105.5 12.5 29.6 25 71.9 31 104.2 5.7 31.5 5.4 17.1 5.5 264.3.1 248.6.4 234.6-5.5 255-9.1 31.4-24.9 52.1-51.9 68-11.2 6.5-16.5 8.9-27.2 12-31.2 9-66.8 2.8-96.3-16.9-27.2-18.1-44.6-44.2-49.8-74.6-1.5-8.5-1.7-31.6-1.9-227.1-.2-220.8-.3-227.8-4-249.4-5.2-31-17.7-63.1-34.7-88.8-38.9-59.2-105.8-99.2-178.6-106.8-14.1-1.5-46.1-.7-58.7 1.5-26.8 4.6-49.2 11.5-69.9 21.6-65.8 32-115.8 96.8-130.4 169-6.1 30.2-5.9 65.8.5 98 17.8 89 91.9 164.7 180.6 184.4 23.2 5.1 32.9 5.7 95.8 6 40.5.2 51.4.6 60 1.9 30.1 4.8 47.7 13.4 65.6 31.8 20.3 21.1 31.5 47.5 33.1 78.4 1 20.3-2.7 38.7-11.1 56-5.3 10.8-11.5 19.1-22.7 30.4-17.1 17.3-32.4 25.4-57.2 30.2-17.3 3.4-36.8 4.1-90.1 3.6-52.9-.5-64.2-1.3-95.1-6.7-74.3-13-145.8-43.5-204-86.9-80.7-60.4-136.6-137.5-167.7-231.5-16.3-49.4-23.9-97.1-23.9-150.6 0-61.5 10-113.5 33.3-171.9 24.1-60.7 57.2-110.6 104.2-157.6 54.5-54.4 116.5-93 188.1-117.1 32.4-10.9 67.2-18.5 97.5-21.3 6.3-.6 13.1-1.3 15-1.4 8.5-.9 58.6-.6 69.5.3"/></svg>