<?xml version="1.0" encoding="UTF-8" standalone="no"?>
<svg
   viewBox="0 0 448 512"
   version="1.1"
   id="svg826"
   xmlns="http://www.w3.org/2000/svg"
   xmlns:svg="http://www.w3.org/2000/svg">
  <defs
     id="defs830" />
  <!-- Font Awesome Free 5.15.3 by @fontawesome - https://fontawesome.com License - https://fontawesome.com/license/free (Icons: CC BY 4.0, Fonts: SIL OFL 1.1, Code: MIT License) -->
  <path
     d="M 400,32 H 48 A 48,47.999865 0 0 0 0,79.999865 V 431.99887 a 48,47.999865 0 0 0 48,47.99987 H 185.25 V 327.68917 h -63 v -71.6898 h 63 v -54.63985 c 0,-62.14982 37,-96.47973 93.67,-96.47973 27.14,0 55.52,4.83999 55.52,4.83999 v 60.99983 h -31.27 c -30.81,0 -40.42,19.11994 -40.42,38.72989 v 46.54987 h 68.78 l -11,71.6898 H 262.75 V 479.99874 H 400 a 48,47.999865 0 0 0 48,-47.99987 V 79.999865 A 48,47.999865 0 0 0 400,32 Z"
     id="path824"
     style="stroke-width:0.999998;fill:#3e5394;fill-opacity:1" />
</svg>
