<?xml version="1.0" encoding="UTF-8" standalone="no"?>
<svg
   viewBox="0 0 448 512"
   version="1.1"
   id="svg1468"
   xmlns="http://www.w3.org/2000/svg"
   xmlns:svg="http://www.w3.org/2000/svg">
  <defs
     id="defs1472" />
  <!-- Font Awesome Free 5.15.3 by @fontawesome - https://fontawesome.com License - https://fontawesome.com/license/free (Icons: CC BY 4.0, Fonts: SIL OFL 1.1, Code: MIT License) -->
  <g
     id="g2043"
     transform="matrix(1.3982044,0,0,1.4003698,-89.209708,-102.84107)">
    <path
       d="m 309.38,189.7 c -17.05551,0.009 -25.60233,-20.60804 -13.54687,-32.6698 12.05545,-12.06175 32.67687,-3.52572 32.67687,13.5298 0.0443,10.57596 -8.51395,19.17456 -19.09,19.18 z"
       id="path1750"
       style="fill:#000000" />
    <path
       id="path1746"
       style="fill:#000000;fill-opacity:1"
       d="m 348.71,161.66 c -5.48882,-13.91001 -16.49999,-24.92118 -30.41,-30.41 -21,-8.29 -71,-6.43 -94.3,-6.43 -23.3,0 -73.25,-1.93 -94.31,6.43 -13.91001,5.48882 -24.92118,16.49999 -30.41,30.41 -8.28,21 -6.43,71.05 -6.43,94.33 0,23.28 -1.85,73.27 6.47,94.34 5.48882,13.91001 16.49999,24.92118 30.41,30.41 21,8.29 71,6.43 94.31,6.43 23.31,0 73.24,1.93 94.3,-6.43 13.91001,-5.48882 24.92118,-16.49999 30.41,-30.41 8.35,-21 6.43,-71.05 6.43,-94.33 0,-23.28 1.92,-73.26 -6.43,-94.33 z M 382.88,322 c -1.29,25.63 -7.14,48.34 -25.85,67 -18.71,18.66 -41.4,24.63 -67,25.85 -26.41,1.49 -105.59,1.49 -132,0 C 132.4,413.56 109.77,407.7 91.03,389 72.29,370.3 66.4,347.58 65.18,322 c -1.49,-26.42 -1.49,-105.61 0,-132 1.29,-25.63 7.07,-48.34 25.85,-67 6.195578,-6.15599 12.8167,-10.92323 19.82496,-14.59184 C 125.09009,100.9565 140.92242,98.037518 158.03,97.22 c 26.41,-1.49 105.59,-1.49 132,0 25.63,1.29 48.33,7.15 67,25.85 18.67,18.7 24.63,41.42 25.85,67.05 1.49,26.32 1.49,105.44 0,131.88 z" />
    <path
       id="path1466"
       d="m 224,202.66 c -21.57217,0.008 -41.01586,13.00916 -49.2651,32.94121 -8.24923,19.93202 -3.67961,42.87011 11.57701,58.12102 15.25662,15.2509 38.19643,19.81191 58.12535,11.55522 C 264.36622,297.02074 277.36,277.57217 277.36,256 277.33793,226.54247 253.45754,202.67103 224,202.66 Z M 224,338 c -33.16587,0 -63.06624,-19.97877 -75.75755,-50.61949 -12.69129,-30.64065 -5.67397,-65.90861 17.77774,-89.36032 23.45171,-23.45171 58.71967,-30.46903 89.36032,-17.77774 C 286.02123,192.93376 306,222.83413 306,256 c 0.0554,45.31026 -36.68974,82.05536 -82,82 z"
       style="fill:#000000" />
  </g>
</svg>
