<?xml version="1.0" encoding="UTF-8" standalone="no"?>
<svg
   width="155"
   height="20"
   role="img"
   aria-label="With love from Bavaria"
   version="1.1"
   id="svg8"
   sodipodi:docname="With love from Bavaria-43A7CF.svg"
   inkscape:version="1.4.3 (0d15f75, 2025-12-25)"
   xmlns:inkscape="http://www.inkscape.org/namespaces/inkscape"
   xmlns:sodipodi="http://sodipodi.sourceforge.net/DTD/sodipodi-0.dtd"
   xmlns="http://www.w3.org/2000/svg"
   xmlns:svg="http://www.w3.org/2000/svg">
  <defs
     id="defs8" />
  <sodipodi:namedview
     id="namedview8"
     pagecolor="#ffffff"
     bordercolor="#666666"
     borderopacity="1.0"
     inkscape:showpageshadow="2"
     inkscape:pageopacity="0.0"
     inkscape:pagecheckerboard="0"
     inkscape:deskcolor="#d1d1d1"
     inkscape:zoom="3.42"
     inkscape:cx="77.48538"
     inkscape:cy="9.9415205"
     inkscape:window-width="1324"
     inkscape:window-height="917"
     inkscape:window-x="152"
     inkscape:window-y="33"
     inkscape:window-maximized="0"
     inkscape:current-layer="svg8" />
  <title
     id="title1">With love from Bavaria</title>
  <filter
     id="blur"
     x="-0.030584163"
     y="-0.44767576"
     width="1.0611683"
     height="1.8953515">
    <feGaussianBlur
       stdDeviation="16"
       id="feGaussianBlur1" />
  </filter>
  <linearGradient
     id="s"
     x2="0"
     y2="55.677644"
     gradientTransform="scale(2.7838822,0.3592106)"
     x1="0"
     y1="0"
     gradientUnits="userSpaceOnUse">
    <stop
       offset="0"
       stop-color="#bbb"
       stop-opacity=".1"
       id="stop1" />
    <stop
       offset="1"
       stop-opacity=".1"
       id="stop2" />
  </linearGradient>
  <clipPath
     id="r">
    <rect
       width="155"
       height="20"
       rx="3"
       id="rect2" />
  </clipPath>
  <g
     clip-path="url(#r)"
     id="g5">
    <rect
       width="0"
       height="20"
       fill="#555555"
       id="rect3"
       x="0"
       y="0" />
    <rect
       x="0"
       width="155"
       height="20"
       fill="#43a7cf"
       id="rect4"
       y="0" />
    <rect
       width="155"
       height="20"
       fill="url(#s)"
       id="rect5"
       style="fill:url(#s)"
       x="0"
       y="0" />
  </g>
  <g
     transform="scale(0.1)"
     id="g7"
     style="font-size:110px;font-family:Verdana, Geneva, 'DejaVu Sans', sans-serif;text-anchor:middle;fill:#ffffff;text-rendering:geometricPrecision">
    <g
       aria-hidden="true"
       fill="#010101"
       id="g6">
      <text
         x="865"
         y="150"
         fill-opacity="0.8"
         filter="url(#blur)"
         textLength="1270"
         id="text5"
         lengthAdjust="spacing">With love from Bavaria</text>
      <text
         x="865"
         y="150"
         fill-opacity="0.3"
         textLength="1270"
         id="text6"
         lengthAdjust="spacing">With love from Bavaria</text>
    </g>
    <text
       x="865"
       y="140"
       textLength="1270"
       id="text7"
       lengthAdjust="spacing">With love from Bavaria</text>
  </g>
  <g
     transform="matrix(0.00119964,0,0,-0.00119964,2.8743345,16.114294)"
     fill="#000000"
     stroke="none"
     id="g2"
     style="fill:#ffffff">
    <path
       d="m 9210,9964 c -362,-32 -654,-92 -986,-202 -546,-182 -1158,-512 -1721,-928 l -115,-85 -57,40 c -898,647 -1709,1012 -2511,1131 -206,31 -599,39 -800,16 C 2109,9833 1367,9363 823,8545 280,7728 -24,6549 4,5365 18,4751 95,4294 272,3775 678,2582 1527,1584 2706,915 3645,381 4778,69 5985,10 c 779,-38 1671,40 2380,206 1429,336 2540,1040 3337,2114 513,692 926,1660 1043,2445 61,413 70,923 24,1365 -105,1012 -450,1950 -963,2620 -149,194 -406,458 -578,591 -426,331 -880,521 -1423,595 -105,14 -501,26 -595,18 z m 345,-2470 c 82,-21 133,-53 213,-132 318,-319 549,-1022 569,-1732 6,-224 -5,-398 -36,-561 -20,-102 -109,-399 -120,-399 -3,0 -26,31 -51,68 -175,260 -539,751 -812,1094 -307,386 -558,678 -1006,1169 l -53,58 53,34 c 478,305 985,469 1243,401 z m -5985,-25 c 241,-49 535,-176 872,-376 l 127,-76 -35,-41 C 3830,6149 3253,5300 2820,4457 l -97,-188 -31,68 c -56,124 -81,189 -117,309 -74,242 -104,443 -112,754 -18,688 144,1391 415,1796 73,108 194,227 266,260 101,46 241,50 426,13 z M 6640,5184 c 624,-681 1243,-1479 1692,-2183 116,-182 118,-186 96,-197 -45,-23 -351,-124 -481,-158 -465,-123 -999,-186 -1567,-186 -443,0 -851,44 -1245,135 -147,33 -393,100 -401,108 -9,9 121,318 210,502 246,508 544,989 946,1530 132,176 358,462 476,599 l 67,79 31,-35 c 17,-20 96,-107 176,-194 z"
       id="path1"
       style="fill:#ffffff" />
  </g>
</svg>
