<svg xmlns="http://www.w3.org/2000/svg" width="171" height="20" aria-label="made with love in Bavaria"><title>made with love in Bavaria</title><filter id="c" width="1.054" height="1.901" x="-.027" y="-.45"><feGaussianBlur stdDeviation="16"/></filter><linearGradient id="b" x1="0" x2="0" y1="0" y2="58.481" gradientTransform="scale(2.92404 .342)" gradientUnits="userSpaceOnUse"><stop offset="0" stop-color="#bbb" stop-opacity=".1"/><stop offset="1" stop-opacity=".1"/></linearGradient><clipPath id="a"><rect width="171" height="20" rx="3"/></clipPath><g clip-path="url(#a)"><path fill="#43a7cf" d="M0 0h171v20H0z"/><path fill="url(#b)" d="M0 0h171v20H0z" style="fill:url(#b)"/></g><path d="M14.234 5.156c-.434.038-.784.11-1.183.242-.655.219-1.39.615-2.065 1.114l-.138.102-.068-.048C9.702 5.79 8.729 5.352 7.766 5.21a4.8 4.8 0 0 0-.96-.02c-1.093.124-1.983.688-2.636 1.67-.652.98-1.016 2.395-.983 3.816.017.737.11 1.285.322 1.908.487 1.431 1.506 2.63 2.92 3.432 1.127.64 2.487 1.015 3.935 1.086.935.045 2.006-.048 2.856-.247q2.571-.605 4.005-2.537c.615-.83 1.11-1.992 1.251-2.934a7 7 0 0 0 .03-1.638c-.127-1.215-.54-2.34-1.156-3.144a4.6 4.6 0 0 0-.694-.71 3.44 3.44 0 0 0-1.708-.713 7 7 0 0 0-.714-.022m.414 2.964c.099.025.16.064.256.158.382.383.659 1.227.683 2.079.007.269-.006.477-.043.673-.024.122-.131.479-.144.479a.5.5 0 0 1-.062-.082c-.21-.312-.646-.9-.974-1.313-.368-.463-.67-.813-1.207-1.402l-.064-.07.064-.04c.573-.367 1.182-.564 1.491-.482m-7.182.03c.29.059.642.211 1.047.451l.152.091-.042.05c-.845.992-1.537 2.01-2.057 3.022l-.116.226-.037-.082a3.089 3.089 0 0 1-.275-1.276c-.022-.825.173-1.668.498-2.154.088-.13.233-.273.32-.312q.179-.083.51-.016m3.684 2.742a20 20 0 0 1 2.03 2.62c.14.218.142.223.116.236a6 6 0 0 1-.577.19 7.4 7.4 0 0 1-1.88.223 6.6 6.6 0 0 1-1.976-.292c-.01-.01.145-.381.252-.602.295-.61.653-1.187 1.135-1.836.159-.211.43-.555.572-.719l.08-.095.037.042c.02.024.115.129.211.233" style="fill:#fff;stroke-width:.0012"/><g style="font-size:110px;font-family:Verdana,Geneva,&quot;DejaVu Sans&quot;,sans-serif;text-anchor:middle;fill:#fff;text-rendering:geometricPrecision"><g fill="#010101" aria-hidden="true"><text x="945" y="150" fill-opacity=".8" filter="url(#c)" textLength="1430" transform="scale(.1)">made with love in Bavaria</text><text x="945" y="150" fill-opacity=".3" textLength="1430" transform="scale(.1)">made with love in Bavaria</text></g><text x="945" y="140" textLength="1430" transform="scale(.1)">made with love in Bavaria</text></g></svg>