<svg xmlns="http://www.w3.org/2000/svg" width="155" height="20" aria-label="with love from Bavaria"><title>with love from Bavaria</title><filter id="c" width="1.061" height="1.895" x="-.031" y="-.448"><feGaussianBlur stdDeviation="16"/></filter><linearGradient id="b" x1="0" x2="0" y1="0" y2="55.678" gradientTransform="scale(2.78388 .35921)" gradientUnits="userSpaceOnUse"><stop offset="0" stop-color="#bbb" stop-opacity=".1"/><stop offset="1" stop-opacity=".1"/></linearGradient><clipPath id="a"><rect width="155" height="20" rx="3"/></clipPath><g clip-path="url(#a)"><path fill="#43a7cf" d="M0 0h155v20H0z"/><path fill="url(#b)" d="M0 0h155v20H0z" style="fill:url(#b)"/></g><g style="font-size:110px;font-family:Verdana,Geneva,&quot;DejaVu Sans&quot;,sans-serif;text-anchor:middle;fill:#fff;text-rendering:geometricPrecision"><g fill="#010101" aria-hidden="true"><text x="865" y="150" fill-opacity=".8" filter="url(#c)" textLength="1270" transform="scale(.1)">with love from Bavaria</text><text x="865" y="150" fill-opacity=".3" textLength="1270" transform="scale(.1)">with love from Bavaria</text></g><text x="865" y="140" textLength="1270" transform="scale(.1)">with love from Bavaria</text></g><path d="M9210 9964c-362-32-654-92-986-202-546-182-1158-512-1721-928l-115-85-57 40c-898 647-1709 1012-2511 1131-206 31-599 39-800 16-911-103-1653-573-2197-1391C280 7728-24 6549 4 5365c14-614 91-1071 268-1590C678 2582 1527 1584 2706 915 3645 381 4778 69 5985 10c779-38 1671 40 2380 206 1429 336 2540 1040 3337 2114 513 692 926 1660 1043 2445 61 413 70 923 24 1365-105 1012-450 1950-963 2620-149 194-406 458-578 591-426 331-880 521-1423 595-105 14-501 26-595 18m345-2470c82-21 133-53 213-132 318-319 549-1022 569-1732 6-224-5-398-36-561-20-102-109-399-120-399-3 0-26 31-51 68-175 260-539 751-812 1094-307 386-558 678-1006 1169l-53 58 53 34c478 305 985 469 1243 401m-5985-25c241-49 535-176 872-376l127-76-35-41c-704-827-1281-1676-1714-2519l-97-188-31 68c-56 124-81 189-117 309-74 242-104 443-112 754-18 688 144 1391 415 1796 73 108 194 227 266 260 101 46 241 50 426 13m3070-2285c624-681 1243-1479 1692-2183 116-182 118-186 96-197-45-23-351-124-481-158-465-123-999-186-1567-186-443 0-851 44-1245 135-147 33-393 100-401 108-9 9 121 318 210 502 246 508 544 989 946 1530 132 176 358 462 476 599l67 79 31-35c17-20 96-107 176-194" style="fill:#fff" transform="matrix(.0012 0 0 -.0012 2.874 16.114)"/></svg>