<svg xmlns="http://www.w3.org/2000/svg" xml:space="preserve" width="1000" height="500" viewBox="0 0 1000 500"><path d="M384.002 487.585c-36.29-5.341-54.876-49.053-33.687-79.225 17.413-24.795 52.363-29.685 74.787-10.463l4.08 3.497v-7.829h13.44v92.16h-13.44v-12.403l-6.16 4.662q-16.971 12.846-39.02 9.6m24.25-16.557c35.554-17.394 23.421-71.126-16.03-70.993-41.724.14-51.205 57.399-12 72.468 6.97 2.679 21.056 1.938 28.03-1.475m131.472 16.64c-21.426-3.324-39.715-21.996-42.338-43.223-6.105-49.396 51.84-77.932 86.952-42.82 8.607 8.606 8.59 8.292.604 11.036l-6.48 2.226-4.698-4.538c-24.603-23.76-64.767-4.956-62.779 29.392 1.806 31.184 40.389 46.046 62.642 24.129l4.706-4.635 6.544 2.333c7.836 2.792 7.749 2.263 1.52 9.252-11.671 13.094-29.464 19.517-46.673 16.848m145.298-.125c-39.743-5.714-55.511-57.076-26.585-86.595 17.88-18.244 55.012-19.459 69.183-2.262 2.04 2.475 3.002 1.91 3.002-1.761v-3.36h13.44v92.16h-13.44V473.02l-3.956 3.575c-10.089 9.114-25.752 13.231-41.644 10.947m24.738-16.42c27.8-12.994 28.187-54.898.625-67.693-34.06-15.812-67.948 22.82-47.45 54.091 9.962 15.2 30.59 21.191 46.825 13.602m210.462 16.424c-28.075-4.013-47.74-35.104-40.29-63.702 9.126-35.038 55.587-49.754 81.934-25.951l3.956 3.574v-7.903h13.44v92.16h-13.44v-12.502l-5.04 4.097c-11.156 9.07-24.722 12.491-40.56 10.227m24.777-16.475c27.078-12.492 28.238-52.713 1.923-66.702-25.344-13.472-54.54 4.126-54.54 32.875 0 27.53 27.684 45.328 52.617 33.827m-139.497-31.427v-46.08h12.48v92.16h-12.48zm-.858-58.465c-5.282-4.934-3.793-13.497 2.953-16.986 8.262-4.272 17.492 4.71 13.834 13.465-2.857 6.838-11.333 8.616-16.787 3.52" style="fill:#000;stroke-width:.96" transform="translate(-160.32 -175.68)"/></svg>