<svg xmlns="http://www.w3.org/2000/svg" xml:space="preserve" id="Capa_1" width="1000" height="500" x="0" y="0" viewBox="0 0 1000 500"><style id="style3618" type="text/css">.st1{fill:#fff}</style><path id="rect3620" d="M0 0h1000v500H0z" style="fill:#1e4148;stroke-width:.288043"/><title id="title3622">Algrani_Profile_01</title><g id="g3638" transform="translate(-84.275 53.02)scale(.27482)"><path id="path3624" d="M2103.2 535.9c-16.6 11.4-30.1 26.3-37.4 44V518h-113.4v320.4c0 40.3 32.7 73 73 73h42.7V706.2c0-31.9 8.7-54.4 26.2-67.5s44.8-19.6 82-19.6c15.1.1 27.6-12 27.6-27.1v-78.6c-4.6-2-11.9-3.1-21.6-3.1-25.8 0-55.4 9.2-79.1 25.6" class="st1"/><path id="path3626" d="M1272.9 911.3h42.7c40.3 0 73-32.7 73-73V356.5h-115.7z" class="st1"/><path id="path3628" d="M2946.1 510.3c-49.8 0-115.4 23.7-141.2 69.6V518h-113.4v320.4c0 40.3 32.7 73 73 73h42.7V697.6c0-43.6 36-79.1 80.4-79.1 44.3 0 77.8 35.4 77.8 79.1v213.8h115.7V645.3c0-41.2-11.6-74-34.7-98.4-23.2-24.4-56.6-36.6-100.3-36.6" class="st1"/><path id="path3630" d="M1663.6 806c-51.6 0-93.4-41.9-93.4-93.4 0-51.7 41.9-93.5 93.4-93.5 51.7 0 93.5 41.9 93.5 93.5 0 51.5-41.8 93.4-93.5 93.4m140.7-288.3h-42.6v60.8c-32.4-37.4-78-60.8-128.7-60.8-98 0-177.6 87.2-177.6 194.7s79.5 194.7 177.6 194.7c50.7 0 96.3-23.4 128.7-60.8v49.3c0 28.3-8 49.1-23.9 62.5-15 12.6-36.9 22.9-68.5 24.1-2 .1-3.9.3-6.1.3-21.1 0-50.6-7.1-64.3-12.2-9.1-3.4-20.8-7.9-29.1-13.2-33.2 9.5-59.5 35.2-69.7 68.1 7.6 5.7 16 11.2 25.5 16.4 36.2 19.8 84.1 35.4 138.7 35.4 11.7 0 22.9-.7 33.8-1.8 50.1-4.8 92.2-20.4 123-47.2 37.5-32.6 56.3-77.3 56.3-133.8V590.7c-.1-40.3-32.8-73-73.1-73" class="st1"/><path id="path3632" d="M3353.7 815.7c-54.4 0-98.6-44.1-98.6-98.6 0-54.4 44.2-98.6 98.6-98.6s98.6 44.2 98.6 98.6c-.1 54.5-44.2 98.6-98.6 98.6m0-303c-112.9 0-204.4 91.6-204.4 204.4 0 112.9 91.6 204.4 204.4 204.4 112.9 0 204.4-91.6 204.4-204.4s-91.6-204.4-204.4-204.4" class="st1"/><path id="path3634" d="M2493.3 768.7q0 26.25-25.5 45.9c-17 13.1-37.6 19.6-61.8 19.6-15.5 0-27.8-3.3-37.1-10-9.2-6.7-13.9-16.5-13.9-29.3 0-14.3 4.9-25.7 14.7-33.9 9.7-8.2 30.9-15 45.5-17 58.2-7.8 77.9-15.8 77.9-15.8zm118.4 100.6c-1.8-13.1-2.7-26.1-2.7-38.9V656.8c0-47.3-14.9-83.5-44.8-108.8-32.8-27.7-77.1-36.4-118.9-37.7h-.2c-52-1.5-102.6 8.7-148.1 34.5-15.8 9-30.7 19.6-44.5 31.3 12.6 28.2 37.4 49.5 67.7 57.4.7-.5 1.3-1 2-1.5 20.4-14.8 44.1-24.9 68.6-30.5 11.7-2.6 24.1-4.7 36.5-5 9.7-.2 19.4.8 28.7 3.6 20.2 6.1 36.9 20.7 37.3 42.8v1.5c0 11.6-8.5 21.4-20.1 23.1l-77.1 10.8c-49.4 6.7-87.8 21.2-115.3 43.6s-41.3 51.8-41.3 88.3c0 32.9 11.5 59.3 34.7 79.1s54.2 29.7 93.4 29.7c33.4 0 61.8-7.4 84.9-22.4 18.5-12 33.2-28.6 44.2-49.9.3 10.3.9 19.8 1.7 28.3 1.3 12.9 6.7 26.1 16.8 36.2H2631c-10.5-10.3-17.5-28.7-19.3-41.9" class="st1"/><path id="path3636" d="M951.7 683.7c-27.3 0-53 6.7-75.8 18.1L951.7 456l75.3 245.5c-22.6-11.2-48.2-17.8-75.3-17.8m95.5-327.2h-184L693.9 911.3h173.5c-7.4-10.6-13-22.7-16-36-12.6-55.3 22.1-110.4 77.5-123 55.2-12.6 110.1 21.9 122.9 77 9.2 46.1 49.5 80.9 98 82 .8 0 61.2.1 61.2.1z" class="st1"/></g></svg>