<?xml version="1.0" encoding="UTF-8" standalone="no"?>
<!-- Created with Inkscape (http://www.inkscape.org/) -->

<svg
   version="1.1"
   id="svg198"
   width="889.33331"
   height="888"
   viewBox="0 0 889.33331 888"
   xmlns="http://www.w3.org/2000/svg"
   xmlns:svg="http://www.w3.org/2000/svg">
  <defs
     id="defs202">
    <clipPath
       clipPathUnits="userSpaceOnUse"
       id="clipPath216">
      <path
         d="M 0,0 H 666 V 666 H 0 Z"
         id="path214" />
    </clipPath>
    <clipPath
       clipPathUnits="userSpaceOnUse"
       id="clipPath226">
      <path
         d="M 0,0 H 667 V 667 H 0 Z"
         id="path224" />
    </clipPath>
    <clipPath
       clipPathUnits="userSpaceOnUse"
       id="clipPath242">
      <path
         d="M 30.59,18.504 H 631.535 V 619.445 H 30.59 Z"
         id="path240" />
    </clipPath>
    <clipPath
       clipPathUnits="userSpaceOnUse"
       id="clipPath252">
      <path
         d="M 0,0 H 667 V 667 H 0 Z"
         id="path250" />
    </clipPath>
  </defs>
  <g
     id="g206"
     transform="matrix(1.3333333,0,0,1.3333333,0,2.22e-5)">
    <g
       id="g208" />
    <g
       id="g210">
      <g
         id="g212"
         clip-path="url(#clipPath216)">
        <g
           id="g218">
          <g
             id="g220">
            <g
               id="g222"
               clip-path="url(#clipPath226)">
              <g
                 id="g228">
                <path
                   d="m 86.723,6.297 h 493.492 c 44.183,0 80,35.816 80,80 v 493.492 c 0,44.18 -35.817,80 -80,80 H 86.723 c -44.18,0 -80,-35.82 -80,-80 V 86.297 c 0,-44.184 35.82,-80 80,-80 z"
                   style="fill:#2198c6;fill-opacity:1;fill-rule:nonzero;stroke:none"
                   id="path230" />
                <g
                   id="g232">
                  <path
                     d="m 86.723,6.297 h 493.496 c 44.179,0 80,35.816 80,80 v 493.492 c 0,44.18 -35.821,80 -80,80 H 86.723 c -44.18,0 -80,-35.82 -80,-80 V 86.297 c 0,-44.184 35.82,-80 80,-80 z"
                     style="fill:none;stroke:#515151;stroke-width:10;stroke-linecap:round;stroke-linejoin:round;stroke-miterlimit:10;stroke-dasharray:none;stroke-opacity:1"
                     id="path234" />
                </g>
              </g>
            </g>
          </g>
        </g>
      </g>
    </g>
    <g
       id="g236">
      <g
         id="g238"
         clip-path="url(#clipPath242)">
        <g
           id="g244">
          <g
             id="g246">
            <g
               id="g248"
               clip-path="url(#clipPath252)">
              <g
                 id="g254">
                <path
                   d="m 214.977,98.059 60.128,61.8 c -24.769,6.543 -47.339,17.36 -66.238,31.848 -32.082,24.504 -53.75,60.629 -53.75,101.328 v 0.5 c 0,1.168 0,2.371 0.133,3.539 0,0.266 -0.133,0.133 -0.133,0.5 V 471.047 H 505.668 V 297.574 c 0,-5.074 0,-0.902 -0.098,-1.035 0.098,-0.902 0.098,-1.703 0.231,-2.605 v -0.899 c 0,-40.699 -21.766,-76.824 -53.852,-101.328 -18.527,-14.355 -40.828,-24.937 -65.199,-31.582 l 60.395,-61.93 z m 115.418,104.734 c 36.39,0 68.738,11.449 91.043,28.543 22.3,17.094 34.152,38.461 34.152,61.43 0,0.636 0,1.304 -0.102,1.937 l -0.133,1.703 0.133,1.836 c 0.102,2.606 0.102,2.738 0.102,3.774 v 118.82 h -62.832 c 1.804,-1.035 3.773,-2.106 5.476,-3.274 17.993,-13.289 30.379,-33.117 30.512,-55.687 0,-1.703 -0.133,-3.371 -0.266,-5.074 L 427.445,342.98 H 234.043 l -1.57,13.286 c -0.133,1.703 -0.266,3.406 -0.403,5.109 v 0.5 c 0.137,22.434 12.52,42.266 30.516,55.687 1.703,1.168 3.773,2.239 5.476,3.407 H 205.195 V 298.375 c 0,-0.266 0.133,-0.133 0.133,-0.398 v -2.739 c -0.133,-0.769 -0.133,-1.57 -0.133,-2.203 0,-23.105 11.887,-44.473 34.188,-61.699 22.301,-17.094 54.785,-28.543 91.012,-28.543 z m -61.797,170.168 h 123.625 c -2.871,7.043 -4.039,14.621 -11.852,20.363 -12.152,8.981 -30.012,15.125 -49.976,15.125 -19.934,0 -37.793,-6.144 -49.946,-15.125 -7.812,-5.742 -8.98,-13.32 -11.719,-20.363 z m -162.891,97.152 v 49.043 c 0,16.692 10.816,29.211 21.633,35.856 10.851,6.777 23.371,9.918 36.66,9.918 h 332.82 c 13.422,0 25.809,-3.141 36.625,-9.918 10.985,-6.645 21.668,-19.164 21.668,-35.856 v -49.043 h -50.078 v 42.899 c -1.836,0.8 -4.308,1.836 -8.215,1.836 H 164 c -3.906,0 -6.379,-1.036 -8.215,-1.836 V 470.113 Z M 266.625,257.41 c -17.859,0 -33.25,14.09 -33.25,31.817 0,17.894 15.391,31.953 33.25,31.953 17.863,0 33.254,-14.059 33.254,-31.953 0,-17.727 -15.391,-31.817 -33.254,-31.817 z m 0,20.098 c 7.715,0 13.187,5.476 13.187,11.719 0,6.41 -5.472,11.886 -13.187,11.886 -7.676,0 -13.152,-5.476 -13.152,-11.886 0,-6.243 5.476,-11.719 13.152,-11.719 z"
                   style="fill:#f9f9f9;fill-opacity:1;fill-rule:nonzero;stroke:none"
                   id="path256" />
              </g>
            </g>
          </g>
        </g>
      </g>
    </g>
  </g>
</svg>
