<svg xmlns="http://www.w3.org/2000/svg" xml:space="preserve" width="1000" height="500" viewBox="0 0 1000 500"><defs><clipPath id="a" clipPathUnits="userSpaceOnUse"><path d="M0 140.99h162.604V0H0Z"/></clipPath></defs><path d="m94.228 95.083.02-47.032 20.074 10.04v45.131zM75.834 121.301l-19.17-6.646 36.963-14.867 20.096 7.774z" style="fill:#433a38;fill-opacity:1;fill-rule:nonzero;stroke:none" transform="matrix(4.25422 0 0 -4.25422 154.125 549.9)"/><g clip-path="url(#a)" transform="matrix(4.25422 0 0 -4.25422 154.125 549.9)"><path d="M0 0c-1.932-.347-4.145-.043-5.555.736.556-1.475 1.19-2.927 2.151-4.152 2.271-1.379 4.952-2.247 7.465-2.309l.449.007c.217.007.435 0 .645.018 1.661.128 2.975.628 3.904 1.392 0 0 .556.427.997.885-.333.615-.767 1.33-1.005 1.586C7.139.21 4.347.774 0 0m10.246.71c-.575 1.746-1.708 3.28-3.107 4.473C5.74 6.374 4.082 7.235 2.353 7.859c-1.53.549-3.137.922-4.764.931-1.315.009-2.643-.228-3.846-.767-.192-.087-.665-.229-.773-.421.019-.676.277-2.187.437-3.078.321-1.122.836-1.926 1.524-2.389 1.07-.719 3.094-1.014 4.814-.708 3.033.541 7.408.892 10.364-2.277a6 6 0 0 0 .538-.723A9 9 0 0 1 10.246.71M.484-7.811c-1.397-.021-2.675.809-3.674 1.788-1.972 1.93-3.215 4.494-4.036 7.126-.973 3.119-1.415 6.398-1.351 9.67.056 3.042.562 6.12 1.92 8.847.893 1.791 2.367 3.537 4.359 3.763 1.941.218 3.753-1.094 4.962-2.633-.593.754-1.031 1.52-1.769 2.161A8.6 8.6 0 0 1-1.539 24.4c-.902.367-1.736.579-2.693.367-1-.218-1.913-.746-2.668-1.426a5 5 0 0 1-.394-.389c-.983-1.042-1.656-2.338-2.168-3.672-1.663-4.323-1.762-9.111-1.072-13.691.631-4.245 1.98-8.502 4.731-11.8 1.215-1.46 2.808-2.762 4.697-2.975 2.023-.23 4.127.966 4.963 2.821a13 13 0 0 0-.785-.551c-.793-.506-1.659-.888-2.588-.895m-7.393 20.973c2.185-2.365 6.149-3.896 9.731-3.551 1.639.159 2.958.982 3.864 1.748l.6.686c-1.704 2.603-4.557 2.562-8.614 2.189-1.83-.167-3.886.492-5.071 2.029l-.045-.143v.001l-.011-.035c-.198-.871-.34-2.04-.454-2.924m3.371 7.936c-.228-.031-.242-.02-.456-.065-.591-.695-1.295-1.882-1.759-2.927.591-1.799 2.57-2.587 4.294-2.43 3.963.364 7.244.42 9.4-2.09.04.868-.089 1.899-.529 2.677-1.846 3.252-6.717 5.419-10.95 4.835m20.96 4.756c2.549-1.026 4.214-3.46 4.214-6.162V-17.51c0-5-5.411-8.22-9.93-5.903l-27.987 14.35c-2.236 1.148-3.642 3.425-3.642 5.903v34.109c0 4.738 4.896 7.959 9.361 6.164z" style="fill:#433a38;fill-opacity:1;fill-rule:nonzero;stroke:none" transform="translate(68.206 72.474)"/><path d="M0 0q-.114-.543-.448-2.195a92 92 0 0 0-.467-2.21 34 34 0 0 0-.138-.576q.19-.035.614-.033.422-.002.946.168a2.8 2.8 0 0 1 .94.514q.413.34.651.929.235.59.236 1.426 0 .837-.676 1.391Q.984-.032 0 0m1.772-6.775a6.05 6.05 0 0 0-3.219.895q-.307-.438-.759-.583-.451-.142-1.202-.142t-1.459.25q-.705.253-1.12.614-.417.363-.417.708 0 .198.12.321.12.12.275.12.55 0 .818.254.264.253.514.945.25.69.48 1.593.235.903.437 1.69.2.786.451 1.587.554 1.752 1.395 2.334.4.273 1.047.424.645.15 1.013.151.367-.001.478-.011.11-.014.226-.056.227-.087.228-.365-.001-.186-.052-.349a9 9 0 0 0-.273-.676Q.533 2.409.168.761q1.46.13 2.234.876.77.745.768 1.914-.002 1.58-1.854 1.794a10 10 0 0 1-1.1.043 6 6 0 0 1-1.611-.245q-.884-.249-1.385-.538-.498-.296-.901-.542-.4-.245-.516-.246c-.205 0-.309.097-.309.299q0 .295.388.713.39.412 1.076.82c.454.269.962.521 1.515.749q1.881.779 3.884.779 2.005 0 3.045-.904 1.037-.9 1.038-2.386 0-1.486-1.033-2.47Q4.374.434 2.575.329q1.15-.018 2.122-.803a2.74 2.74 0 0 0 .76-.976q.295-.605.295-1.397.001-.798-.233-1.491-.228-.695-.61-1.143a3.3 3.3 0 0 0-.908-.745q-.961-.55-2.229-.549" style="fill:#433a38;fill-opacity:1;fill-rule:nonzero;stroke:none" transform="translate(27.707 28.59)"/><path d="M0 0a3.58 3.58 0 0 1 1.648 1.269q.604.854.603 2.065 0 .317-.142.509-.145.188-.436.189-.288 0-.605-.363-.31-.36-.527-.951Q.085 1.502 0 0m6.28-1.4q.209 0 .208-.28 0-.28-.286-.518a7 7 0 0 0-.701-.511 14 14 0 0 0-1.154-.64Q2.653-4.205.523-4.203q-4.048 0-4.047 3.588.001 1.753.77 3.113T-.691 4.58a5.67 5.67 0 0 0 2.816.72c1.019 0 1.76-.227 2.236-.682q.708-.681.71-1.872 0-1.228-.681-2.002-.678-.781-1.805-1.159-1.13-.38-2.591-.533.1-1.339 1.33-1.669a2.7 2.7 0 0 1 .671-.079q1.4 0 4.04 1.218a.6.6 0 0 0 .245.078" style="fill:#433a38;fill-opacity:1;fill-rule:nonzero;stroke:none" transform="translate(37.891 26.018)"/><path d="M0 0q1.124 0 1.878 2.484.351 1.143.35 1.849 0 .708-.165.978-.167.267-.648.266-.481 0-1.04-.644-.562-.641-.9-1.616-.343-.98-.342-1.759c0-.524.08-.911.239-1.171Q-.389 0 0 0m3.114 7.312 2.739-.181c.105 0 .18-.044.233-.134a.6.6 0 0 0 .079-.299c0-.416-.12-1.088-.36-2.007-.246-.918-.484-1.826-.725-2.728Q4.716.611 4.718.178q0-.439.091-.561.093-.119.357-.119.263 0 .96.367.697.366.943.557.252.19.382.189.234.001.233-.301 0-.638-1.792-1.676a6.3 6.3 0 0 0-1.461-.59A6.4 6.4 0 0 0 2.7-2.192Q1.233-2.194.935-.847.001-2.194-1.579-2.192q-1.086-.002-1.831.75-.815.82-.814 2.58-.001 1.857.76 3.422c.551 1.157 1.296 1.951 2.226 2.39a3.85 3.85 0 0 0 1.659.362q1.357.001 2.111-.967.006.053.006.164l-.006.372q0 .432.582.431" style="fill:#433a38;fill-opacity:1;fill-rule:nonzero;stroke:none" transform="translate(47.928 24.007)"/><path d="M0 0q.223-.001.222-.296a.73.73 0 0 0-.219-.523 4.3 4.3 0 0 0-.641-.515 14 14 0 0 0-1.059-.632 7 7 0 0 0-1.459-.593 5.5 5.5 0 0 0-1.584-.248q-1.775 0-1.776 1.177 0 .759.603 2.714c.398 1.305.598 2.181.598 2.638q.001.769-.83.769-.379 0-.855-.138-.23-1.158-.814-3.679t-.655-2.865c-.054-.231-.158-.347-.323-.347l-3.079-.095q-.069.002-.148.117a.5.5 0 0 0-.082.275q0 .162.255 1.132.252.973.564 2.089.307 1.119.56 2.461.256 1.342.257 2.223l-.006.329q0 .432.579.432l2.837.095a.26.26 0 0 0 .234-.135.65.65 0 0 0 .077-.327 5 5 0 0 0-.066-.626Q-4.703 6.7-3.354 6.7q.579 0 1.051-.456.527-.51.528-1.545 0-1.062-.559-2.782-.556-1.72-.557-2.124 0-.802.444-.802.28 0 .96.306.679.307 1.006.506C-.265-.067-.101 0 0 0" style="fill:#433a38;fill-opacity:1;fill-rule:nonzero;stroke:none" transform="translate(66.641 24.618)"/><path d="M0 0c0 .371-.339.561-1.01.561q-.432 0-.967-.394-.538-.394-.996-1.091a9.5 9.5 0 0 1-.827-1.58 10 10 0 0 1-.797-3.9q.001-2 .554-3.113.554-1.114 1.68-1.113c.061 0 .111.002.14.008q.243.88.437 1.832c.128.634.196 1.018.196 1.162a.43.43 0 0 1-.171.347.95.95 0 0 1-.368.192q-.541.138-.539.509 0 .484.86.742.862.26 2.056.261c.794 0 1.324-.055 1.579-.163.252-.106.382-.279.382-.519 0-.17-.071-.449-.212-.849-.138-.394-.368-1.358-.687-2.883q-.477-2.288-.696-2.765a2.43 2.43 0 0 0-1.071-1.178q-.723-.39-1.693-.392-1.775 0-1.775.545c0 .239.149.487.447.732q.515.434.771.961.109.231.212.533c-.544-.201-1.184-.301-1.904-.301-.724 0-1.352.114-1.894.34q-.813.343-1.29.98-.925 1.235-.926 3.351-.001 1.244.338 2.435.344 1.19.924 2.158t1.352 1.787A9 9 0 0 0-4.267.579q1.813 1.173 3.585 1.174 1.775 0 2.638-.77.874-.768.874-2.149 0-.803-.498-1.505-.562-.792-1.765-.793-.408 0-.692.163c-.364.209-.544.503-.544.891q0 .13.335 1.112C-.114-.639 0-.209 0 0" style="fill:#433a38;fill-opacity:1;fill-rule:nonzero;stroke:none" transform="translate(75.02 34.014)"/><path d="M0 0q0-1.6.805-1.598.515 0 .963.812.445.81.693 2.013.248 1.198.248 2.449.001 1.246-.605 1.247-.523-.001-1.019-.719-.491-.717-.789-1.859A9.3 9.3 0 0 1 0 0m-2.175-2.202c-.746.649-1.124 1.638-1.124 2.959 0 .693.101 1.341.298 1.952q.296.91.813 1.573.519.664 1.205 1.141c.919.637 1.968.956 3.155.956q3.495 0 3.774-3.192.42-.2.867-.2.446 0 .746.095.298.094.564.286.266.19.38.19.226 0 .228-.321 0-.32-.355-.664-.663-.658-1.758-.657-.415.002-.672.06-.19-2.174-1.553-3.617a4.6 4.6 0 0 0-1.599-1.088 5.1 5.1 0 0 0-1.966-.398q-1.014.002-1.74.231a3.5 3.5 0 0 0-1.263.694" style="fill:#433a38;fill-opacity:1;fill-rule:nonzero;stroke:none" transform="translate(81.622 24.94)"/><path d="M0 0c.38-.657.971-.985 1.783-.985q1.134 0 2.359.551.401.183.592.182.348 0 .348-.284c0-.276-.155-.57-.457-.885a4.5 4.5 0 0 0-1.149-.841 7.7 7.7 0 0 0-1.57-.618 6.2 6.2 0 0 0-1.667-.247q-1.398 0-2.468.63-1.062.632-1.65 1.802a5.6 5.6 0 0 0-.586 2.556q.001 1.386.322 2.563a9 9 0 0 0 .879 2.129q.551.952 1.292 1.762a8.3 8.3 0 0 0 1.56 1.354q1.754 1.159 3.362 1.159 1.61-.001 2.503-.955.891-.954.891-2.335-.001-1.504-.616-2.635a2.4 2.4 0 0 0-.783-.879 1.9 1.9 0 0 0-1.098-.328c-.269 0-.503.054-.694.164q-.546.31-.546.889 0 .198.316 1.123c.207.615.421 1.251.63 1.904q.32.98.321 1.345 0 .365-.218.506-.215.136-.615.138-.397-.001-.898-.436-.505-.436-.972-1.192a12 12 0 0 1-.853-1.679 11.3 11.3 0 0 1-.625-1.999A9.2 9.2 0 0 1-.539 2.53q-.001-.856.134-1.461Q-.271.465 0 0" style="fill:#433a38;fill-opacity:1;fill-rule:nonzero;stroke:none" transform="translate(97.935 24.94)"/><path d="m0 0 2.702.096a.26.26 0 0 0 .237-.135q.076-.135.077-.397c0-.176-.111-.628-.334-1.364-.218-.734-.441-1.516-.664-2.338Q1.68-5.38 1.681-5.949q.002-1.069.792-1.068.375-.001.825.136.14.733.478 1.942.85 3.032 1.024 4.612.03.319.316.32c.58 0 1.185.017 1.827.049q.956.053 1.103.054.148 0 .227-.116a.4.4 0 0 0 .08-.223q0-.414-.369-1.751-.374-1.34-.741-2.769-.375-1.429-.375-2.084c0-.439.138-.655.404-.655.271 0 .647.103 1.12.314q.716.316 1.001.539.282.225.368.224.227 0 .228-.309 0-.31-.321-.595a7 7 0 0 0-.771-.567 13 13 0 0 0-1.088-.609c-.976-.482-1.963-.723-2.975-.723q-1.513 0-1.704 1.172-.58-.344-.951-.54a7 7 0 0 0-1.03-.414 3.8 3.8 0 0 0-1.206-.218c-1.176 0-1.761.687-1.761 2.07q0 .718.189 1.741.192 1.024.426 1.85.617 2.203.618 2.734-.001.532.107.682Q-.37.001 0 0" style="fill:#433a38;fill-opacity:1;fill-rule:nonzero;stroke:none" transform="translate(106.438 31.043)"/><path d="M0 0q-1.126.001-1.879-2.486-.346-1.141-.348-1.847-.001-.707.166-.977.163-.266.644-.267.484-.001 1.042.642.563.643.9 1.619.342.975.342 1.757Q.865-.777.628-.387.388-.001 0 0m-2.702-6.294Q-4.445-7.15-4.93-7.15c-.318 0-.58.098-.778.29a.97.97 0 0 0-.295.72q0 .33.782 3.472 1.486 5.983 1.486 7.729l-.007.327q0 .433.582.432h1.563l1.201.025a.25.25 0 0 0 .232-.135.55.55 0 0 0 .08-.297q0-.802-1.101-5.026l.004.011q.523.854 1.26 1.325a2.93 2.93 0 0 0 1.595.469q2.499 0 2.498-3.366 0-1.296-.444-2.497a6.8 6.8 0 0 0-1.203-2.088q1.96.25 3.069 1.121.16.13.284.129.231 0 .23-.27a.7.7 0 0 0-.21-.496q-.783-.786-2.415-1.392-1.635-.602-3.506-.612a6 6 0 0 0-.66-.036c-.241 0-.568.091-.991.275a2.7 2.7 0 0 0-1.028.746" style="fill:#433a38;fill-opacity:1;fill-rule:nonzero;stroke:none" transform="translate(121.55 29.126)"/><path d="M0 0a3.56 3.56 0 0 1 1.647 1.269q.605.854.605 2.065 0 .317-.143.509-.145.188-.437.189-.285 0-.605-.363-.31-.36-.528-.951Q.086 1.502 0 0m6.279-1.4q.208 0 .209-.28t-.285-.518a8 8 0 0 0-.7-.511 14 14 0 0 0-1.156-.64Q2.653-4.205.521-4.203q-4.046 0-4.045 3.588-.001 1.753.769 3.113.771 1.36 2.061 2.082 1.293.72 2.819.72t2.236-.682.71-1.872q0-1.228-.68-2.002-.684-.781-1.802-1.159C1.831-.669.969-.846-.007-.948q.1-1.339 1.329-1.669a2.7 2.7 0 0 1 .673-.079q1.4 0 4.038 1.218a.6.6 0 0 0 .246.078" style="fill:#433a38;fill-opacity:1;fill-rule:nonzero;stroke:none" transform="translate(130.37 26.018)"/><path d="m0 0-.474.976.51.265L.674 0Zm-1.052.747v.542h.759q.132 0 .215.086.082.087.082.247 0 .168-.084.251a.3.3 0 0 1-.213.082h-.759v.542h.743q.457 0 .688-.247a.88.88 0 0 0 .231-.628.87.87 0 0 0-.235-.628Q.141.747-.309.747Zm-.378 1.75h.606V-.005h-.606Zm.964-3.083q.84 0 1.305.482.466.482.466 1.341v.002-.002q0 .887-.464 1.373t-1.307.486-1.307-.486-.464-1.373q0-.004 0 0 0 .003 0 0 0-.864.466-1.343.466-.48 1.305-.48m0-.659q-1.156 0-1.793.653-.636.652-.636 1.829 0 .003 0 0 0-.004 0 0 0 1.18.634 1.829.634.648 1.795.648 1.16 0 1.795-.648.634-.649.634-1.829 0-.004 0 0 0 .003 0 0 0-1.177-.636-1.829-.636-.653-1.793-.653" style="fill:#433a38;fill-opacity:1;fill-rule:nonzero;stroke:none" transform="translate(139.338 30.334)"/></g></svg>