<svg xmlns="http://www.w3.org/2000/svg" width="666.667" height="400" viewBox="0 0 666.667 400"><defs><clipPath id="a" clipPathUnits="userSpaceOnUse"><path d="M0 0h500v300H0Z"/></clipPath><clipPath id="b" clipPathUnits="userSpaceOnUse"><path d="M330.03 64.724h140.521v164.41h-140.52Z"/></clipPath></defs><g clip-path="url(#a)" transform="matrix(1.33333 0 0 -1.33333 0 400)"><path d="M0 0h500v300H0Z" style="fill:#4C97C3;fill-opacity:1;fill-rule:nonzero;stroke:none"/><text xml:space="preserve" style="font-variant:normal;font-weight:700;font-size:65px;font-family:Arial;-inkscape-font-specification:Arial-BoldMT;writing-mode:lr-tb;fill:#fff;fill-opacity:1;fill-rule:nonzero;stroke:none" transform="matrix(1 0 0 -1 39.524 181.705)"><tspan x="0 41.703999 61.763 103.467 145.17101" y="0">Linux</tspan></text><text xml:space="preserve" style="font-variant:normal;font-weight:400;font-size:28px;font-family:Arial;-inkscape-font-specification:ArialMT;writing-mode:lr-tb;fill:#fff;fill-opacity:1;fill-rule:nonzero;stroke:none" transform="matrix(1 0 0 -1 42.693 111.218)"><tspan x="0 20.2216 35.7952 51.368801 66.942398 74.732002 90.305603 98.0952 113.6688 129.2424 137.032 152.60561 168.1792" y="0">Ubuntu 22.04+</tspan></text><text xml:space="preserve" style="font-variant:normal;font-weight:400;font-size:28px;font-family:Arial;-inkscape-font-specification:ArialMT;writing-mode:lr-tb;fill:#fff;fill-opacity:1;fill-rule:nonzero;stroke:none" transform="matrix(1 0 0 -1 42.693 74.218)"><tspan x="0 20.2216 35.7952 51.368801 59.158401 79.379997 94.953598 102.7432 110.5328 126.1064 133.896 149.4696" y="0">Red Hat 8.4+</tspan></text></g><g clip-path="url(#b)" transform="matrix(1.33333 0 0 -1.33333 0 400)"><path d="M398.007 187.356c0-.527-.527-.527-.527-.527h-.527c-.527 0-.527.527-1.053 1.054 0 0-.527.527-.527 1.054s0 .527.527.527l1.053-.527c.527-.527 1.054-1.054 1.054-1.58m-9.485 5.269c0 2.635-1.054 4.215-2.635 4.215 0 0 0-.527-.527-.527v-1.053h1.581c0-1.054.527-1.581.527-2.635zm18.443 2.635c1.054 0 1.581-1.054 2.108-2.635h1.054c-.527.527-.527 1.054-.527 1.58 0 .528 0 1.055-.527 1.582s-1.054 1.054-1.58 1.054c0 0-.528-.527-1.055-.527 0-.527.527-.527.527-1.054m-15.808-8.432c-.527 0-.527 0-.527.527s0 1.054.527 1.581c1.054 0 1.58.527 1.58.527.528 0 .528-.527.528-.527 0-.527-.527-1.054-1.581-2.108zm-5.797.527c-2.107 1.054-2.634 2.635-2.634 5.27 0 1.58 0 2.635 1.053 3.689.527 1.053 1.581 1.58 2.635 1.58s1.581-.527 2.635-1.58c.527-1.581 1.054-3.162 1.054-4.743v-1.054h.527v.527c.527 0 .527 1.054.527 3.162 0 1.58 0 3.161-1.054 4.742s-2.108 2.635-4.216 2.635c-1.58 0-3.161-1.054-3.688-2.635-1.054-2.107-1.266-3.688-1.266-6.323 0-2.108.739-4.216 2.846-6.324.527.527 1.054.527 1.581 1.054m65.87-74.3c.526 0 .526.211.526.686 0 1.158-.526 2.53-2.107 4.057-1.581 1.58-4.216 2.582-7.378 3.005-.527.052-1.054.052-1.054.052-.527.104-.527.104-1.054.104-.526.055-1.58.16-2.107.264 1.58 4.902 2.107 9.221 2.107 13.017 0 5.27-1.053 8.958-3.161 12.12s-4.216 4.742-6.85 5.27c-.528-.528-.528-.528-.528-1.055a13.2 13.2 0 0 0 6.85-6.323c1.582-3.689 2.109-6.85 2.109-10.54 0-2.95-.527-7.324-2.635-12.91-2.108-.842-4.216-2.793-5.797-5.848 0-.475 0-.738.527-.738 0 0 .527.475 1.054 1.37 1.054.894 1.581 1.791 2.635 2.686 1.58.898 2.635 1.37 4.216 1.37 2.634 0 5.27-.368 6.85-1.106 2.108-.684 3.162-1.422 3.689-2.265a41 41 0 0 1 1.58-2.214c0-.684.528-1.002.528-1.002m-48.48 76.408c-.527.527-.527 1.581-.527 2.635 0 2.108 0 3.162 1.054 4.743q1.581 1.58 3.161 1.58c1.581 0 2.635-1.054 3.69-2.107.526-1.581 1.053-2.635 1.053-4.216q0-3.952-3.162-4.743s.527-.527 1.054-.527c1.054 0 1.581-.527 2.635-1.054.527 3.162 1.054 5.27 1.054 7.905 0 3.162-.527 5.27-1.58 6.85-1.582 1.581-3.163 2.108-5.27 2.108q-2.372 0-4.743-1.58c-1.054-1.582-1.58-2.636-1.58-4.216 0-2.635.526-4.743 1.58-6.85.527 0 1.054-.528 1.58-.528m6.324-8.431c-6.85-4.743-12.12-6.85-16.335-6.85-3.689 0-7.378 1.58-10.54 4.215.528-1.054 1.055-2.108 1.581-2.635l3.162-3.161c2.108-2.108 4.743-3.162 7.378-3.162 3.688 0 7.904 2.108 13.173 5.796l4.743 3.162c1.054 1.054 2.108 2.108 2.108 3.689 0 .527 0 1.054-.527 1.054-.527 1.054-3.162 2.634-8.431 4.215-4.743 2.108-8.432 3.162-10.54 3.162q-2.37 0-7.904-3.162c-3.162-2.107-5.27-4.215-5.27-6.323 0 0 .528-.527 1.055-1.581 3.161-2.635 6.323-4.216 9.485-4.216 4.215 0 9.485 2.108 16.335 7.378v-1.054c.527 0 .527-.527.527-.527m12.12-106.445c2.108-3.96 5.797-5.953 10.012-5.953q1.581-.001 3.162.475c1.054.209 2.108.579 2.635 1 .527.37 1.054.738 1.58 1.16 1.055.368 1.055.632 1.581.895l8.959 7.748c2.108 1.68 4.215 3.15 6.85 4.424 2.108 1.265 4.216 2.108 5.27 2.583 1.58.422 2.634 1.054 3.688 1.896.527.79 1.054 1.792 1.054 3.058 0 1.528-1.054 2.687-2.108 3.529-1.054.845-2.107 1.424-3.161 1.792-1.054.37-2.108 1.213-3.689 2.635a14.2 14.2 0 0 0-2.635 5.745l-.527 3.057c-.527 1.422-.527 2.476-1.054 3.055 0 .158 0 .211-.527.211s-1.58-.475-2.107-1.37a54 54 0 0 1-3.162-2.95c-.527-1.054-2.108-2.003-3.162-2.899-1.58-.897-3.161-1.372-4.215-1.372-4.216 0-6.324 1.16-7.905 3.425-1.054 1.688-1.58 3.637-2.108 5.852-1.053.895-1.58 1.37-2.634 1.37-2.635 0-3.689-2.742-3.689-8.275V89.29c0-.475-.527-1.529-.527-3.162-.527-1.633-.527-3.488-.527-5.585l-1.054-5.849v-.09m-76.408 2.788c4.9-.716 10.539-2.25 16.915-4.591 6.375-2.317 10.275-3.53 11.697-3.53 3.689 0 6.746 1.633 9.274 4.79.527 1.023.527 2.225.527 3.606 0 4.978-3.003 11.274-9.01 18.915l-3.582 4.798c-.739.999-1.636 2.528-2.795 4.583-1.105 2.056-2.107 3.637-2.898 4.742-.686 1.214-1.791 2.424-3.213 3.637-1.37 1.21-2.95 2.001-4.691 2.423-2.212-.422-3.74-1.158-4.48-2.16-.737-1.001-1.157-2.107-1.264-3.268-.157-1.106-.475-1.844-1.002-2.212-.527-.316-1.422-.58-2.635-.843-.263 0-.735 0-1.422-.052h-1.421c-2.794 0-4.69-.318-5.692-.845-1.318-1.526-2.004-3.267-2.004-5.11q0-1.266.634-4.269c.42-1.95.632-3.532.632-4.637 0-2.16-.632-4.32-1.95-6.48-1.317-2.268-2.002-3.953-2.002-5.155.527-2.044 4.004-3.483 10.382-4.325m17.546 47.898c0 3.636.95 7.64 2.898 12.383 1.897 4.743 3.796 7.905 5.64 10.012-.107.527-.37.527-.79.527l-.527.527c-1.53-1.58-3.373-5.27-5.588-10.539-2.212-4.742-3.37-9.115-3.37-12.328 0-2.372.579-4.427 1.632-6.22 1.159-1.74 3.953-4.267 8.38-7.481l5.585-3.637c5.953-5.165 9.115-8.747 9.115-10.854 0-1.11-.527-2.216-2.108-3.426-1.054-1.265-2.476-1.899-3.689-1.899-.105 0-.157-.104-.157-.368 0-.052.527-1.106 1.633-3.162 2.213-3.002 6.955-4.479 13.279-4.479 11.593 0 20.551 4.743 27.401 14.228 0 2.635 0 4.268-.527 4.954v1.948c0 3.426.527 6.008 1.581 7.694 1.054 1.688 2.108 2.478 3.689 2.478 1.054 0 2.108-.37 3.162-1.16.527 4.058.527 7.587.527 10.75 0 4.794 0 8.747-1.054 12.435-.527 3.162-1.581 5.797-2.635 7.905l-3.162 4.742c-1.054 1.581-1.58 3.162-2.634 4.743-.527 2.108-1.054 3.688-1.054 6.323-1.581 2.635-2.635 5.27-4.216 7.904-1.054 2.635-2.108 5.27-3.162 7.378l-4.742-3.689c-5.27-3.689-9.485-5.27-13.174-5.27-3.162 0-5.797.528-7.378 2.635l-3.161 2.635c0-1.58-.527-3.689-1.581-5.796l-3.318-6.324c-1.477-3.688-2.267-5.796-2.424-7.377-.211-1.054-.37-2.108-.475-2.108l-3.952-7.904c-4.268-7.905-6.43-15.227-6.43-21.287 0-1.213.107-2.479.318-3.743-2.371 1.635-3.532 3.899-3.532 6.85m37.73-49.85c-6.851 0-12.12-.927-15.81-2.766v.159c-2.634-3.162-5.584-4.795-9.693-4.795-2.583 0-6.642 1-12.12 3.003-5.533 1.896-10.435 3.35-14.703 4.311-.422.121-1.37.3-2.898.541-1.476.24-2.846.48-4.059.722a31 31 0 0 0-3.74 1.081q-1.977.628-3.162 1.617c-.728.664-1.084 1.413-1.084 2.25q0 1.266.534 2.704c.338.579.708 1.16 1.077 1.688.37.579.685 1.105.897 1.632.315.475.527.948.735 1.474.212.475.423.95.527 1.53.107.526.212 1.053.212 1.58s-.212 2.108-.632 4.902q-.633 4.11-.633 5.217c0 2.317.526 4.161 1.687 5.478 1.159 1.318 2.265 2.004 3.425 2.004h6.06c.475 0 1.21.264 2.32.895.367.845.683 1.528.894 2.162.264.632.368 1.106.475 1.318.105.315.212.631.315.895.212.367.475.79.844 1.212q-.631.79-.632 2.053c0 .582 0 1.11.105 1.425 0 1.897.897 4.583 2.793 8.115l1.845 3.319c1.528 2.846 2.686 4.954 3.53 7.062.897 2.107 1.844 5.27 2.898 9.485q1.264 5.532 6.007 11.066l3.952 4.742c2.74 3.162 4.532 5.797 5.533 7.905 1.002 2.107 1.529 4.742 1.529 6.85 0 1.054-.263 4.216-.842 9.485-.527 5.27-.79 10.54-.79 15.282 0 3.689.315 6.323.998 8.958.686 2.635 1.9 5.27 3.689 7.377 1.58 2.108 3.689 4.216 6.85 5.27q4.742 1.58 11.066 1.58c1.581 0 3.162 0 4.743-.526q2.371 0 6.323-1.581c2.108-1.054 4.216-2.108 5.797-3.689 2.108-1.58 3.688-4.215 5.27-6.85 1.053-3.162 2.107-6.324 2.634-10.54.527-2.634.527-5.269 1.054-8.957 0-3.162.527-5.27.527-6.85.527-1.582.527-3.69 1.054-6.324.527-2.108 1.054-4.216 2.108-5.797 1.054-2.107 2.107-4.215 3.688-6.323 1.581-2.635 3.689-5.27 5.797-8.431 4.742-5.27 8.431-11.066 10.539-16.863 2.635-5.27 4.215-12.12 4.215-19.445q0-5.454-1.58-10.591c1.054 0 1.58-.423 2.107-1.159.527-.738 1.054-2.32 1.581-4.797l.527-3.898c.527-1.16 1.054-2.266 2.635-3.216 1.054-.947 2.108-1.738 3.689-2.371 1.054-.527 2.634-1.263 3.688-2.212q1.581-1.58 1.581-3.321c0-1.79-.527-3.107-1.58-4.056-1.055-1.054-2.108-1.793-3.69-2.268-1.053-.527-3.161-1.58-6.323-3.065-2.635-1.56-5.27-3.453-7.904-5.693l-5.27-4.484c-2.107-2.053-4.215-3.53-5.796-4.424-1.58-.95-3.689-1.425-5.796-1.425l-3.69.423c-4.215 1.106-6.85 3.214-8.43 6.427-8.432 1.024-15.282 1.53-19.498 1.53" style="fill:#fff;fill-opacity:1;fill-rule:nonzero;stroke:none"/></g></svg>