<svg xmlns="http://www.w3.org/2000/svg" width="666.667" height="400" viewBox="0 0 666.667 400"><defs><clipPath id="a" clipPathUnits="userSpaceOnUse"><path d="M0 0h500v300H0Z"/></clipPath><clipPath id="b" clipPathUnits="userSpaceOnUse"><path d="M337.323 61.89h134.579v167.244h-134.58Z"/></clipPath></defs><g clip-path="url(#a)" transform="matrix(1.33333 0 0 -1.33333 0 400)"><path d="M0 0h500v300H0Z" style="fill:#9e9e9e;fill-opacity:1;fill-rule:nonzero;stroke:none"/><text xml:space="preserve" style="font-variant:normal;font-weight:700;font-size:65px;font-family:Arial;-inkscape-font-specification:Arial-BoldMT;writing-mode:lr-tb;fill:#fff;fill-opacity:1;fill-rule:nonzero;stroke:none" transform="matrix(1 0 0 -1 46.187 181.777)"><tspan x="0 45.356998 87.073997 128.791 156.078 194.22" y="0">Source</tspan></text><text xml:space="preserve" style="font-variant:normal;font-weight:700;font-size:35px;font-family:Arial;-inkscape-font-specification:Arial-BoldMT;writing-mode:lr-tb;fill:#fff;fill-opacity:1;fill-rule:nonzero;stroke:none" transform="matrix(1 0 0 -1 45.866 133.651)"><tspan x="0 19.498501 31.226999" y="0">zip</tspan></text></g><g clip-path="url(#b)" transform="matrix(1.33333 0 0 -1.33333 0 400)"><path d="M471.707 70.636c0-2.43-.98-4.605-2.565-6.185a8.68 8.68 0 0 0-6.146-2.56h-116.75a8.77 8.77 0 0 0-6.187 2.56 8.69 8.69 0 0 0-2.564 6.185v149.751c0 2.434.98 4.608 2.564 6.19a8.7 8.7 0 0 0 6.187 2.557h75.127a4.8 4.8 0 0 0 3.754-1.793l43.063-41.926c2.048-.556 3.54-2.475 3.54-4.693 0-36.697-.023-73.372-.023-110.086m-67.183 78.026a4.706 4.706 0 0 0 5.644 3.51 4.7 4.7 0 0 0 3.508-5.643l-10.186-43.614a4.696 4.696 0 1 0-9.149 2.13zm22.294-42.022a4.69 4.69 0 0 0-6.176 7.06l13.795 12.086-13.795 12.088a4.69 4.69 0 0 0 6.176 7.058l17.787-15.586q.25-.214.478-.473a4.69 4.69 0 0 0-.445-6.614zm-38.235 7.06a4.69 4.69 0 0 0-6.176-7.06l-17.82 15.62a4.686 4.686 0 0 0 .033 7.086l17.787 15.585a4.69 4.69 0 0 0 6.176-7.057l-13.795-12.088zm73.374 61.172h-40.584a4.91 4.91 0 0 0-4.907 4.909v39.626H347.27V71.662h114.7c0 34.414-.014 68.799-.014 103.21m-35.717 37.15 29.23-27.374h-29.23z" style="fill:#fff;fill-opacity:1;fill-rule:evenodd;stroke:none"/></g></svg>