<svg xmlns="http://www.w3.org/2000/svg" width="666.667" height="400" viewBox="0 0 666.667 400"><defs><clipPath id="a" clipPathUnits="userSpaceOnUse"><path d="M0 0h500v300H0Z"/></clipPath><clipPath id="b" clipPathUnits="userSpaceOnUse"><path d="M277.795 30.709H500v229.606H277.795Z"/></clipPath><clipPath id="c" clipPathUnits="userSpaceOnUse"><path d="M0 0h500v300H0Z"/></clipPath></defs><g clip-path="url(#a)" transform="matrix(1.33333 0 0 -1.33333 0 400)"><path d="M0 0h500v300H0Z" style="fill:#9e9e9e;fill-opacity:1;fill-rule:nonzero;stroke:none"/><text xml:space="preserve" style="font-variant:normal;font-weight:700;font-size:65px;font-family:Arial;-inkscape-font-specification:Arial-BoldMT;writing-mode:lr-tb;fill:#fff;fill-opacity:1;fill-rule:nonzero;stroke:none" transform="matrix(1 0 0 -1 39.992 181.705)"><tspan x="0 48.938499 94.302002" y="0">RPi</tspan></text></g><g clip-path="url(#b)" transform="matrix(1.33333 0 0 -1.33333 0 400)"><path d="m452.86 154.116-1.431 2.159c0 17.208-7.875 23.684-16.507 28.7 2.886.728 5.744 1.43 6.474 5.017 5.016 1.43 5.746 3.588 6.445 5.746 1.431.728 5.019 2.858 5.019 7.175 2.157 1.43 3.587 3.588 2.886 6.446 2.159 2.888 2.858 5.045 2.159 7.175 2.858 3.588 1.429 5.746.7 7.905 2.158 4.315 0 8.604-5.745 7.903-2.13 3.588-7.876 2.86-8.606 2.86-.7 1.429-2.157 2.158-5.745 1.429-3.587 2.158-6.447 2.158-9.305.73-3.588 2.857-5.746.699-7.905 0-4.315 1.428-5.016-.73-7.175-1.431-4.315.7-5.746-1.458-7.903-3.588h-2.13c-6.476-3.588-10.064-12.22-11.493-15.808-1.429 4.317-4.315 12.22-11.49 15.808h-2.13c-2.159 2.13-3.588 4.289-7.905 3.588-2.159.7-2.858 2.86-7.175 1.43-1.43.7-2.859 1.43-5.017 1.43-.73 0-1.43-.73-2.886-1.43-2.86 1.43-5.718 1.43-7.877-.73-3.587.73-5.017-.7-5.746-1.428-.728 0-6.446.728-8.604-2.86-6.474.701-8.605-3.588-6.474-7.903-1.431-2.159-2.13-3.588.728-7.905-1.43-1.429-.728-4.287 2.158-6.445-.73-2.86 0-5.017 2.858-7.176-.7-3.587 3.588-5.746 4.317-7.175.702-2.158 1.43-4.317 6.446-5.746.73-3.588 3.588-4.289 6.476-5.017-9.334-5.016-16.51-12.191-16.51-28.7l-1.428-2.16c-10.064-6.444-19.396-26.541-5.045-43.05.728-5.017 2.157-8.604 3.587-12.921 2.157-16.481 15.808-24.384 19.396-25.114 5.016-4.287 10.762-7.874 18.637-10.762 7.175-7.176 15.08-10.034 22.957-10.034 7.903 0 15.807 2.858 22.982 10.034 7.875 2.888 13.621 6.475 18.638 10.762 3.587.73 17.238 8.633 19.369 25.114 1.457 4.317 2.886 7.904 4.315 12.92 15.78 16.51 6.447 36.607-4.315 43.052m-9.306 2.886c-.73-7.175-35.176 23.656-29.43 24.386 16.51 2.858 30.13-6.448 29.43-24.386m-38.034 71.025c0-1.43.701-2.16.701-2.86 2.157 2.13 3.588 4.288 5.744 6.447 0-1.429-.7-2.159.73-3.587 1.429 2.158 2.858 3.587 5.746 5.016-1.457-2.158 0-2.858.7-3.588 2.158 1.43 3.587 2.887 7.175 4.318-.7-1.431-2.157-2.159-.7-3.588 2.13 1.43 3.588 2.157 8.605 3.588-.73-1.431-2.887-2.159-2.159-3.588 2.159.7 5.017 1.43 7.905 2.157-1.458-1.457-2.888-2.157-1.458-2.887 2.887.73 5.745 2.16 9.332.73l-2.156-2.158h8.632c-1.457-2.16-2.888-3.588-3.588-6.448h3.588c-1.457-4.315-4.317-5.045-5.045-6.474.728-.701 2.157-.701 4.316 0-1.43-2.858-3.588-4.289-5.747-6.445.73-.73 1.431-.73 3.588 0-2.157-2.159-4.287-3.588-6.445-5.747.7-.729 2.158-.729 3.587-.729-2.159-2.13-5.746-3.588-8.604-5.017.7-1.429 2.13-.701 2.858-.701-2.159-1.457-5.746-2.887-8.604-3.588.7-.727 1.429-1.457 2.858-1.457-3.588-2.13-8.605-.7-10.033-2.13 0-.728 1.428-1.457 2.158-2.157-5.746 0-20.826 0-23.684 11.462 5.746 6.476 15.78 13.651 33.717 22.983-13.62-5.045-26.542-10.763-36.604-19.395-11.463 5.746-3.587 20.096 2.887 25.843m-12.922-41.623c8.605 0 19.367-6.445 19.367-12.92 0-5.719-7.874-10.034-19.367-10.034-11.49 0-19.366 5.746-19.366 10.763s9.333 12.191 19.366 12.191m-43.779 4.318c1.458 0 2.157.7 2.887 1.429-3.588 1.428-7.175 2.158-9.334 4.315 1.429 0 2.159 0 3.588.701-2.859 1.43-5.747 2.887-8.604 5.017 1.428 0 2.857 0 3.587.73-2.159 1.428-4.317 3.587-6.474 5.016h3.588c-2.13 2.886-4.29 4.317-5.718 7.175q2.144-1.051 4.287 0c-.7 1.43-4.287 2.159-5.745 5.746h3.588c-.701 2.859-2.13 5.017-2.86 6.446h8.604l-2.156 2.888c3.587.7 7.175 0 9.332-.73 1.43.73 0 2.16-1.43 2.887 2.86-.728 5.747-1.457 7.905-2.157 1.43 1.43-.73 2.157-2.158 3.588 5.016-.73 6.445-2.159 8.604-3.588 1.429 1.43 0 2.157-.728 3.588 3.588-1.431 5.045-2.888 7.175-4.318.728.73 1.458 1.43.728 3.588 1.43-1.429 3.588-2.858 5.017-5.016 1.43.727.73 2.158.73 3.587 2.158-2.158 4.288-4.317 5.745-6.447.7 0 .7 1.43.7 2.86 5.746-5.747 14.35-20.097 2.159-25.843-10.034 8.632-22.955 15.08-36.604 19.395 17.938-9.332 28-16.507 33.745-22.983-2.888-11.462-17.938-12.192-23.683-11.462 1.428.7 2.158 1.429 2.158 2.157-.73.7-5.045 0-8.633 1.43m20.095-8.606c5.746-.728-28.7-31.588-29.4-24.413-.73 17.237 12.893 27.272 29.4 24.413M332.34 113.95c-8.633 7.176-11.492 26.544 4.287 35.876 9.334 2.86 3.587-38.762-4.287-35.876m32.988-35.876c-5.017-2.886-16.508-1.457-24.384 10.035-5.746 10.034-5.017 20.097-.73 22.955 5.747 3.587 15.08-1.43 21.526-9.334 5.746-6.446 8.606-19.367 3.588-23.656m-9.332 43.752c-8.606 5.747-10.035 18.668-3.588 29.431 7.175 10.033 19.395 14.35 28 8.604 8.604-5.746 10.033-18.667 3.587-29.43-6.474-10.763-19.367-14.35-28-8.605m36.603-63.846c-10.762-.73-20.796 8.604-20.796 11.462 0 4.317 12.893 7.904 21.526 7.904 8.604.728 20.068-2.86 20.068-7.175 0-2.86-10.763-12.191-20.798-12.191m21.526 45.908c0-10.762-9.334-19.366-20.796-19.366-11.492 0-21.526 8.604-21.526 19.366s9.306 19.368 20.796 19.368c12.192 0 21.526-8.605 21.526-19.368m-12.921 27.272c-7.176 10.034-5.017 23.685 3.587 29.43 8.606 5.717 21.526 2.13 28.001-8.633 6.446-10.763 5.017-23.656-3.587-29.4-8.633-5.02-21.526-1.432-28.001 8.603m43.05-43.05c-9.331-12.922-21.525-12.922-25.812-9.335-5.045 4.318-1.457 18.668 5.718 26.543 7.175 8.632 15.808 14.35 20.825 10.063 3.587-5.018 5.745-18.668-.73-27.272m6.476 26.541c-7.904-3.587-14.35 38.035-4.317 35.876 15.78-8.604 12.922-28.7 4.317-35.876" style="fill:#fff;fill-opacity:1;fill-rule:nonzero;stroke:none"/></g><g clip-path="url(#c)" transform="matrix(1.33333 0 0 -1.33333 0 400)"><text xml:space="preserve" style="font-variant:normal;font-weight:400;font-size:28px;font-family:Arial;-inkscape-font-specification:ArialMT;writing-mode:lr-tb;fill:#fff;fill-opacity:1;fill-rule:nonzero;stroke:none" transform="matrix(1 0 0 -1 42.693 111.218)"><tspan x="0 20.2216 35.7952 49.7952 65.368797 80.942398 96.515999 105.84 115.164 129.164 136.9424 155.61839 161.84 169.61839 191.3968 210.0728 217.8512 233.4248 248.9984" y="0">Raspberry Pi OS 12 </tspan></text><text xml:space="preserve" style="font-variant:normal;font-weight:400;font-size:28px;font-family:Arial;-inkscape-font-specification:ArialMT;writing-mode:lr-tb;fill:#fff;fill-opacity:1;fill-rule:nonzero;stroke:none" transform="matrix(1 0 0 -1 42.693 74.218)"><tspan x="0 18.676001 34.249599 49.8232 63.8232 84.0448 99.618401 108.9424 132.2664 140.0448 155.61839 171.192 186.76559 192.9872" y="0">Bookworm 64bit</tspan></text></g></svg>