<svg xmlns="http://www.w3.org/2000/svg" width="666.667" height="400" viewBox="0 0 666.667 400"><defs><clipPath id="a" clipPathUnits="userSpaceOnUse"><path d="M0 0h500v300H0Z"/></clipPath><clipPath id="b" clipPathUnits="userSpaceOnUse"><path d="M-42.527 181.777h500v-300h-500Z"/></clipPath><clipPath id="c" clipPathUnits="userSpaceOnUse"><path d="M-42.032 133.651h500v-300h-500Z"/></clipPath><clipPath id="d" clipPathUnits="userSpaceOnUse"><path d="M323.15 61.89h145.485v178.582H323.15Z"/></clipPath><clipPath id="e" clipPathUnits="userSpaceOnUse"><path d="M-39.858 71.533h500v-300h-500Z"/></clipPath></defs><path d="M0 0h500v300H0Z" clip-path="url(#a)" style="fill:#4C97C3;fill-opacity:1;fill-rule:nonzero;stroke:none" transform="matrix(1.33333 0 0 -1.33333 0 400)"/><text xml:space="preserve" clip-path="url(#b)" transform="translate(56.703 157.63)scale(1.33333)"><tspan x="0" y="0" dx="0 2.0085001 2.0085001 2.0085001 2.0085001" style="font-variant:normal;font-weight:700;font-size:65px;font-family:Arial;writing-mode:lr-tb;fill:#fff;fill-opacity:1;fill-rule:nonzero;stroke:none">macOS</tspan></text><text xml:space="preserve" clip-path="url(#c)" transform="translate(56.042 221.799)scale(1.33333)"><tspan x="0" y="0" dx="0 1.995 1.995 1.995 1.995 1.995" style="font-variant:normal;font-weight:700;font-size:35px;font-family:Arial;writing-mode:lr-tb;fill:#fff;fill-opacity:1;fill-rule:nonzero;stroke:none">legacy</tspan></text><path d="M463.95 179.593c-1.035-.803-19.322-11.107-19.322-34.02 0-26.502 23.268-35.877 23.965-36.109-.107-.572-3.696-12.84-12.268-25.34-7.644-11.001-15.626-21.984-27.77-21.984s-15.269 7.054-29.287 7.054c-13.662 0-18.52-7.287-29.627-7.287-11.108 0-18.859 10.18-27.77 22.68-10.322 14.68-18.662 37.485-18.662 59.129 0 34.717 22.573 53.128 44.79 53.128 11.803 0 21.643-7.75 29.054-7.75 7.054 0 18.054 8.215 31.485 8.215 5.09 0 23.375-.465 35.412-17.716m-41.788 32.413c5.553 6.59 9.482 15.733 9.482 24.877 0 1.268-.107 2.553-.338 3.59-9.037-.34-19.788-6.018-26.27-13.538-5.09-5.785-9.84-14.929-9.84-24.198 0-1.392.232-2.785.34-3.232.57-.107 1.5-.231 2.428-.231 8.107 0 18.304 5.428 24.198 12.732" clip-path="url(#d)" style="fill:#fff;fill-opacity:1;fill-rule:nonzero;stroke:none" transform="matrix(1.33333 0 0 -1.33333 0 400)"/><text xml:space="preserve" clip-path="url(#e)" transform="translate(53.144 304.623)scale(1.33333)"><tspan x="0" y="0" style="font-variant:normal;font-weight:400;font-size:28px;font-family:Arial;writing-mode:lr-tb;fill:#fff;fill-opacity:1;fill-rule:nonzero;stroke:none">10.13 High Sierra</tspan></text></svg>