<svg xmlns="http://www.w3.org/2000/svg" width="666.667" height="400" viewBox="0 0 666.667 400"><defs><clipPath id="a" clipPathUnits="userSpaceOnUse"><path d="M0 0h500v300H0Z"/></clipPath><clipPath id="b" clipPathUnits="userSpaceOnUse"><path d="M333.277 67.56H476.22v167.243H333.277Z"/></clipPath><clipPath id="c" clipPathUnits="userSpaceOnUse"><path d="M192.756 101.575h70.866v70.866h-70.866Z"/></clipPath></defs><g clip-path="url(#a)" transform="matrix(1.33333 0 0 -1.33333 0 400)"><path d="M0 0h500v300H0Z" style="fill:#9e9e9e;fill-opacity:1;fill-rule:nonzero;stroke:none"/><text xml:space="preserve" style="font-variant:normal;font-weight:700;font-size:65px;font-family:Arial;-inkscape-font-specification:Arial-BoldMT;writing-mode:lr-tb;fill:#fff;fill-opacity:1;fill-rule:nonzero;stroke:none" transform="matrix(1 0 0 -1 39.524 181.777)"><tspan x="0 41.703999 61.763 103.467 145.17101" y="0">Linux</tspan></text><text xml:space="preserve" style="font-variant:normal;font-weight:700;font-size:35px;font-family:Arial;-inkscape-font-specification:Arial-BoldMT;writing-mode:lr-tb;fill:#fff;fill-opacity:1;fill-rule:nonzero;stroke:none" transform="matrix(1 0 0 -1 39.185 133.651)"><tspan x="0 23.379999 35.105 56.560001 70.209999 93.589996 115.045 136.5" y="0">Flatpack</tspan></text></g><g clip-path="url(#b)" transform="matrix(1.33333 0 0 -1.33333 0 400)"><path d="M402.426 192.305c0-.536-.536-.536-.536-.536h-.536c-.536 0-.536.536-1.072 1.072 0 0-.536.536-.536 1.072s0 .536.536.536l1.072-.536c.536-.536 1.072-1.072 1.072-1.608m-9.649 5.36c0 2.68-1.072 4.289-2.68 4.289 0 0 0-.536-.536-.536v-1.072h1.608c0-1.072.536-1.608.536-2.68zm18.761 2.68c1.072 0 1.609-1.072 2.145-2.68h1.072c-.536.536-.536 1.072-.536 1.608s0 1.072-.536 1.608-1.073 1.072-1.609 1.072c0 0-.536-.536-1.072-.536 0-.536.536-.536.536-1.072m-16.08-8.577c-.537 0-.537 0-.537.536s0 1.072.536 1.608c1.072 0 1.608.536 1.608.536.536 0 .536-.536.536-.536 0-.536-.536-1.072-1.608-2.144zm-5.896.536c-2.144 1.072-2.68 2.68-2.68 5.36 0 1.609 0 2.68 1.072 3.753.536 1.072 1.608 1.608 2.68 1.608s1.608-.536 2.68-1.608c.536-1.608 1.072-3.216 1.072-4.824v-1.073h.536v.537c.536 0 .536 1.072.536 3.216 0 1.608 0 3.216-1.072 4.824s-2.144 2.68-4.288 2.68c-1.608 0-3.216-1.072-3.752-2.68-1.072-2.144-1.288-3.752-1.288-6.432 0-2.145.752-4.289 2.896-6.433.536.536 1.072.536 1.608 1.072m67.005-75.581c.536 0 .536.215.536.698 0 1.178-.536 2.574-2.144 4.126-1.609 1.608-4.289 2.627-7.505 3.057-.536.054-1.072.054-1.072.054-.536.105-.536.105-1.072.105-.536.056-1.608.163-2.144.268 1.608 4.987 2.144 9.381 2.144 13.242 0 5.36-1.072 9.113-3.216 12.329s-4.289 4.824-6.969 5.36c-.536-.536-.536-.536-.536-1.072a13.42 13.42 0 0 0 6.969-6.432c1.608-3.753 2.144-6.969 2.144-10.721 0-3.001-.536-7.451-2.68-13.133-2.145-.857-4.289-2.842-5.897-5.95 0-.482 0-.75.536-.75 0 0 .536.483 1.072 1.393 1.072.91 1.608 1.823 2.68 2.733 1.609.913 2.68 1.393 4.289 1.393 2.68 0 5.36-.374 6.968-1.125 2.144-.695 3.216-1.446 3.753-2.303a41 41 0 0 1 1.608-2.253c0-.695.536-1.02.536-1.02M407.25 194.45c-.536.536-.536 1.609-.536 2.68 0 2.145 0 3.217 1.072 4.825q1.608 1.608 3.216 1.608c1.608 0 2.68-1.072 3.753-2.144.536-1.608 1.072-2.68 1.072-4.288q0-4.02-3.217-4.825s.537-.536 1.073-.536c1.072 0 1.608-.536 2.68-1.072.536 3.216 1.072 5.36 1.072 8.04 0 3.217-.536 5.361-1.608 6.97-1.608 1.607-3.217 2.143-5.36 2.143q-2.413 0-4.825-1.608c-1.072-1.608-1.608-2.68-1.608-4.288 0-2.68.536-4.824 1.608-6.968.536 0 1.072-.537 1.608-.537m6.433-8.576c-6.969-4.825-12.33-6.969-16.618-6.969-3.752 0-7.504 1.608-10.72 4.289.536-1.073 1.072-2.145 1.608-2.68l3.216-3.217c2.144-2.144 4.824-3.216 7.504-3.216 3.753 0 8.041 2.144 13.401 5.896l4.825 3.217c1.072 1.072 2.144 2.144 2.144 3.752 0 .536 0 1.072-.536 1.072-.536 1.072-3.216 2.68-8.577 4.288-4.824 2.144-8.576 3.216-10.72 3.216q-2.413 0-8.041-3.216c-3.216-2.144-5.36-4.288-5.36-6.432 0 0 .536-.536 1.072-1.608 3.216-2.68 6.432-4.289 9.648-4.289 4.289 0 9.65 2.144 16.618 7.505v-1.072c.536 0 .536-.536.536-.536m12.329-108.28c2.144-4.029 5.896-6.056 10.184-6.056q1.608 0 3.217.483c1.072.213 2.144.59 2.68 1.017.536.376 1.072.75 1.608 1.18 1.072.375 1.072.643 1.608.91l9.113 7.882c2.144 1.709 4.288 3.206 6.968 4.5 2.144 1.288 4.288 2.145 5.36 2.628 1.609.43 2.68 1.072 3.753 1.929.536.804 1.072 1.823 1.072 3.11 0 1.555-1.072 2.734-2.144 3.59-1.072.86-2.144 1.45-3.217 1.824-1.072.376-2.144 1.233-3.752 2.68a14.46 14.46 0 0 0-2.68 5.843l-.536 3.11c-.536 1.447-.536 2.519-1.072 3.108 0 .161 0 .215-.536.215s-1.608-.483-2.144-1.394a55 55 0 0 1-3.217-3c-.536-1.073-2.144-2.038-3.216-2.95-1.608-.912-3.216-1.395-4.288-1.395-4.288 0-6.433 1.18-8.04 3.484-1.073 1.717-1.609 3.7-2.145 5.953-1.072.91-1.608 1.393-2.68 1.393-2.68 0-3.752-2.79-3.752-8.418V92.55c0-.483-.536-1.555-.536-3.216-.536-1.661-.536-3.549-.536-5.681l-1.073-5.95v-.093m-77.725 2.837c4.984-.728 10.72-2.29 17.206-4.67 6.485-2.357 10.453-3.59 11.9-3.59 3.752 0 6.861 1.66 9.433 4.871.536 1.041.536 2.264.536 3.669 0 5.064-3.055 11.469-9.166 19.241l-3.643 4.88c-.751 1.017-1.664 2.572-2.843 4.662-1.125 2.092-2.144 3.7-2.948 4.825-.697 1.234-1.822 2.466-3.269 3.7-1.393 1.23-3.001 2.035-4.771 2.464-2.25-.43-3.806-1.178-4.557-2.197-.75-1.019-1.178-2.144-1.286-3.325-.16-1.125-.483-1.876-1.02-2.25-.535-.321-1.446-.59-2.68-.857-.268 0-.748 0-1.446-.053h-1.446c-2.842 0-4.772-.324-5.79-.86-1.34-1.552-2.038-3.323-2.038-5.199q0-1.287.644-4.341c.428-1.985.643-3.593.643-4.718 0-2.198-.643-4.395-1.983-6.592-1.34-2.306-2.037-4.02-2.037-5.243.536-2.08 4.073-3.543 10.56-4.4m17.85 48.724c0 3.699.965 7.773 2.948 12.597 1.929 4.824 3.86 8.04 5.737 10.185-.109.536-.377.536-.804.536l-.536.536c-1.555-1.608-3.432-5.36-5.684-10.721-2.251-4.824-3.429-9.272-3.429-12.541 0-2.412.589-4.504 1.661-6.327 1.179-1.77 4.02-4.341 8.524-7.61l5.681-3.7c6.056-5.254 9.272-8.897 9.272-11.041 0-1.128-.536-2.254-2.144-3.484-1.072-1.288-2.519-1.932-3.752-1.932-.107 0-.16-.107-.16-.375 0-.053.536-1.125 1.661-3.216 2.251-3.054 7.075-4.556 13.508-4.556 11.793 0 20.905 4.824 27.874 14.473 0 2.68 0 4.34-.536 5.04v1.981c0 3.484.536 6.112 1.608 7.826 1.072 1.717 2.144 2.521 3.752 2.521 1.072 0 2.144-.377 3.216-1.18.536 4.128.536 7.718.536 10.934 0 4.878 0 8.899-1.072 12.651-.536 3.216-1.608 5.896-2.68 8.04l-3.216 4.825c-1.072 1.608-1.608 3.216-2.68 4.824-.536 2.144-1.072 3.752-1.072 6.433-1.608 2.68-2.68 5.36-4.289 8.04-1.072 2.68-2.144 5.36-3.216 7.505l-4.824-3.752c-5.36-3.753-9.649-5.36-13.401-5.36-3.216 0-5.897.535-7.505 2.68l-3.216 2.68c0-1.608-.536-3.753-1.608-5.897l-3.376-6.432c-1.501-3.753-2.305-5.897-2.465-7.505-.215-1.072-.376-2.144-.483-2.144l-4.02-8.04c-4.341-8.041-6.541-15.49-6.541-21.654 0-1.235.108-2.522.323-3.808-2.412 1.663-3.592 3.966-3.592 6.968m38.38-50.71c-6.97 0-12.33-.943-16.082-2.813v.161c-2.68-3.216-5.681-4.877-9.86-4.877-2.628 0-6.757 1.017-12.33 3.055-5.628 1.929-10.615 3.408-14.956 4.385-.43.123-1.393.305-2.948.55-1.502.244-2.895.489-4.13.735a31 31 0 0 0-3.804 1.1c-1.34.424-2.412.975-3.216 1.644-.74.676-1.103 1.438-1.103 2.29q0 1.287.544 2.75c.343.589.72 1.18 1.095 1.717.376.589.697 1.125.912 1.66.321.484.536.964.749 1.5.215.483.429.966.536 1.555.108.536.215 1.072.215 1.608s-.215 2.145-.643 4.986q-.644 4.181-.644 5.308c0 2.356.536 4.232 1.716 5.572s2.304 2.039 3.485 2.039h6.164c.483 0 1.231.268 2.36.91.373.86.695 1.555.909 2.2.268.642.375 1.125.483 1.34.107.32.215.642.321.91.215.374.483.804.858 1.234q-.642.803-.643 2.088c0 .592 0 1.128.107 1.449 0 1.93.912 4.663 2.841 8.256l1.877 3.375c1.555 2.896 2.733 5.04 3.59 7.184.913 2.144 1.876 5.36 2.949 9.649q1.286 5.628 6.11 11.256l4.02 4.825c2.787 3.216 4.61 5.896 5.63 8.04 1.018 2.145 1.554 4.825 1.554 6.969 0 1.072-.268 4.288-.857 9.649-.536 5.36-.804 10.72-.804 15.545 0 3.752.321 6.432 1.017 9.112.697 2.68 1.932 5.36 3.752 7.505 1.608 2.144 3.752 4.288 6.968 5.36q4.825 1.608 11.257 1.608c1.608 0 3.216 0 4.825-.536q2.412 0 6.432-1.608c2.144-1.072 4.288-2.144 5.896-3.752 2.145-1.608 3.753-4.288 5.36-6.969 1.073-3.216 2.145-6.432 2.681-10.72.536-2.68.536-5.36 1.072-9.113 0-3.216.536-5.36.536-6.968.536-1.609.536-3.753 1.072-6.433.536-2.144 1.072-4.288 2.144-5.896 1.073-2.144 2.145-4.289 3.753-6.433 1.608-2.68 3.752-5.36 5.896-8.576 4.824-5.36 8.577-11.257 10.72-17.154 2.681-5.36 4.29-12.329 4.29-19.78q0-5.549-1.609-10.774c1.072 0 1.608-.43 2.144-1.178.536-.752 1.072-2.36 1.608-4.88l.536-3.965c.536-1.18 1.072-2.306 2.68-3.272 1.073-.964 2.145-1.768 3.753-2.412 1.072-.536 2.68-1.285 3.752-2.25q1.608-1.608 1.608-3.379c0-1.82-.536-3.16-1.608-4.126-1.072-1.072-2.144-1.823-3.752-2.306-1.072-.536-3.216-1.608-6.433-3.118-2.68-1.586-5.36-3.513-8.04-5.791l-5.36-4.562c-2.145-2.088-4.289-3.59-5.897-4.5-1.608-.966-3.752-1.45-5.896-1.45l-3.753.43c-4.288 1.126-6.968 3.27-8.576 6.539-8.577 1.041-15.545 1.555-19.834 1.555" style="fill:#fff;fill-opacity:1;fill-rule:nonzero;stroke:none"/></g><g clip-path="url(#c)" transform="matrix(1.33333 0 0 -1.33333 0 400)"><path d="M243.349 154.307v-17.505l-15.16-8.752v17.505zM228.189 145.555v17.504l-15.16-8.752z" style="fill:#fff;fill-opacity:1;fill-rule:nonzero;stroke:none"/><path d="M213.708 156.838a5.06 5.06 0 0 1-2.532-4.383v-13.8c0-1.81.964-3.478 2.532-4.383l11.95-6.9a5.06 5.06 0 0 1 5.062 0l11.95 6.9a5.06 5.06 0 0 1 2.532 4.383v13.8c0 1.81-.964 3.478-2.531 4.383l-11.95 6.9a5.06 5.06 0 0 1-5.063 0zm15.16 3.691 11.95-6.9a1.36 1.36 0 0 0 .678-1.174v-13.8c0-.483-.26-.933-.678-1.175l-11.95-6.899a1.36 1.36 0 0 0-1.357 0l-11.95 6.9a1.36 1.36 0 0 0-.679 1.174v13.8c0 .482.26.933.678 1.174l11.95 6.9c.419.241.94.241 1.357 0" style="fill:#fff;fill-opacity:1;fill-rule:nonzero;stroke:none"/></g></svg>