<svg xmlns="http://www.w3.org/2000/svg" width="666.667" height="400" viewBox="0 0 666.667 400"><defs><clipPath id="a" clipPathUnits="userSpaceOnUse"><path d="M0 0h500v300H0Z"/></clipPath><clipPath id="b" clipPathUnits="userSpaceOnUse"><path d="M306.142 67.56h158.74V226.3h-158.74Z"/></clipPath></defs><g clip-path="url(#a)" transform="matrix(1.33333 0 0 -1.33333 0 400)"><path d="M0 0h500v300H0Z" style="fill:#9e9e9e;fill-opacity:1;fill-rule:nonzero;stroke:none"/><text xml:space="preserve" style="font-variant:normal;font-weight:700;font-size:65px;font-family:Arial;-inkscape-font-specification:Arial-BoldMT;writing-mode:lr-tb;fill:#fff;fill-opacity:1;fill-rule:nonzero;stroke:none" transform="matrix(1 0 0 -1 45.225 181.705)"><tspan x="0 52.558998 72.617996 96.251999 145.17101 186.875" y="0">GitHub</tspan></text></g><g clip-path="url(#b)" transform="matrix(1.33333 0 0 -1.33333 0 400)"><path d="M385.512 226.3c43.852 0 79.37-35.519 79.37-79.37 0-35.122-22.72-64.787-54.27-75.303-3.968-.695-5.456 1.686-5.456 3.77 0 1.885.1 8.135.1 14.783 19.94-3.671 25.1 4.861 26.688 9.325.892 2.283 4.761 9.327 8.135 11.212 2.778 1.488 6.746 5.159.099 5.257-6.25.1-10.715-5.754-12.203-8.135-7.144-12.004-18.553-8.63-23.116-6.548-.696 5.16-2.779 8.632-5.06 10.616 17.66 1.984 36.113 8.83 36.113 39.19 0 8.631-3.076 15.774-8.136 21.33.794 1.984 3.572 10.12-.793 21.033 0 0-6.648 2.083-21.827-8.135-6.35 1.785-13.096 2.678-19.843 2.678s-13.492-.893-19.842-2.678c-15.18 10.318-21.827 8.135-21.827 8.135-4.365-10.913-1.587-19.049-.793-21.033-5.06-5.556-8.136-12.6-8.136-21.33 0-30.459 18.553-37.206 36.213-39.19-2.878-2.48-5.358-7.242-5.358-14.683 0-10.616.1-19.149.1-21.827 0-2.084-1.489-4.564-5.457-3.77-31.351 10.516-54.071 40.28-54.071 75.302 0 43.852 35.518 79.37 79.37 79.37" style="fill:#fff;fill-opacity:1;fill-rule:evenodd;stroke:none"/></g></svg>