<?xml version="1.0" encoding="UTF-8"?>
<svg id="Layer_2" data-name="Layer 2" xmlns="http://www.w3.org/2000/svg" viewBox="0 0 121.97 23.74">
  <defs>
    <style>
      .cls-1 {
        fill: none;
      }

      .cls-2 {
        stroke: #fff;
        stroke-miterlimit: 10;
        stroke-width: .25px;
      }

      .cls-2, .cls-3 {
        fill: #fff;
      }

      .cls-4 {
        fill: #2899c7;
      }
    </style>
  </defs>
  <g id="Layer_1-2" data-name="Layer 1">
    <g id="uuid-63268ff8-1e93-494b-b374-4d6c3b2c2eb4" data-name="Layer 1-2">
      <g id="button">
        <path class="cls-4" d="M11.87,0h98.23c6.56,0,11.87,5.31,11.87,11.87h0c0,6.56-5.31,11.87-11.87,11.87H11.87C5.31,23.74,0,18.43,0,11.87h0C0,5.31,5.31,0,11.87,0Z"/>
      </g>
      <g>
        <g>
          <rect class="cls-1" x="30.46" y="7.91" width="52.31" height="8.46"/>
          <path class="cls-3" d="M36.39,8.8c.65.61.98,1.56.98,2.84,0,.6-.07,1.11-.22,1.54s-.37.8-.67,1.13c-.28.3-.61.52-.98.67-.37.14-.85.21-1.44.21h-1.78c-.29,0-.48-.02-.59-.07-.11-.04-.21-.12-.3-.22-.06-.07-.1-.15-.12-.26s-.02-.29-.02-.55v-5.05c0-.21.01-.37.04-.47.02-.1.06-.19.12-.26.09-.11.19-.18.29-.22.1-.04.28-.06.54-.06h1.84c.55,0,1,.06,1.35.19.35.12.66.32.95.58ZM35.29,13.62c.41-.39.61-1.06.61-2.01,0-.62-.08-1.1-.25-1.45-.17-.34-.4-.61-.69-.79-.22-.15-.63-.22-1.24-.22h-1.03v4.92h1.17c.35,0,.64-.04.85-.1.22-.07.41-.19.58-.35Z"/>
          <path class="cls-3" d="M43.54,12.6c0,.52-.11.98-.33,1.39s-.52.73-.92.96c-.4.23-.86.35-1.39.35-.87,0-1.54-.27-2.03-.81-.21-.24-.38-.53-.49-.86s-.17-.68-.17-1.04c0-.51.1-.96.31-1.38s.51-.74.91-.98c.4-.24.88-.36,1.44-.36s1.02.12,1.42.35.71.56.92.96c.21.41.31.88.31,1.4ZM40.88,14.32c.4,0,.72-.15.96-.46.24-.3.35-.72.35-1.26s-.12-.98-.35-1.28c-.24-.3-.56-.44-.97-.44s-.7.15-.94.45c-.24.3-.36.72-.36,1.27s.12.96.35,1.26c.24.3.56.46.96.46Z"/>
          <path class="cls-3" d="M45.38,10.62l.91,3.08.88-3.08c.08-.27.17-.46.28-.57.11-.11.28-.16.51-.16.16,0,.29.03.38.08s.18.16.25.31c.08.15.16.38.26.7l.79,2.72.88-3.01c.09-.3.17-.51.26-.62.09-.12.23-.17.43-.17.16,0,.3.06.42.17s.17.24.17.39c0,.08-.02.18-.04.29s-.12.39-.27.83l-.83,2.42c-.15.46-.26.76-.33.9-.07.14-.15.25-.25.31-.1.07-.25.11-.42.11-.21,0-.38-.05-.5-.16-.12-.1-.21-.26-.28-.46l-.15-.46-.75-2.61-.83,2.9c-.08.27-.17.47-.28.6-.11.13-.29.19-.55.19-.18,0-.32-.03-.42-.09-.1-.06-.18-.16-.25-.3-.07-.14-.16-.37-.27-.69l-1.07-3.13c-.05-.16-.09-.29-.12-.38-.03-.1-.04-.19-.04-.27,0-.14.06-.27.17-.38.11-.12.25-.17.42-.17.19,0,.32.05.41.16.08.1.17.29.25.57Z"/>
          <path class="cls-3" d="M53.92,10.73v.06c.23-.31.49-.53.77-.68.28-.15.6-.22.94-.22s.67.08.96.24c.29.16.51.4.66.72.11.25.17.63.17,1.12v2.29c0,.35-.04.62-.13.79s-.26.26-.53.26-.43-.08-.52-.25-.15-.44-.15-.79v-2.01c0-.27-.02-.48-.05-.62-.11-.47-.39-.7-.85-.7-.23,0-.44.07-.65.2-.2.13-.35.33-.44.59-.07.21-.11.55-.11,1.01v1.59c0,.35-.05.6-.16.75-.1.16-.27.24-.5.24-.25,0-.42-.08-.52-.25s-.15-.44-.15-.79v-3.4c0-.37.05-.63.15-.76.1-.14.26-.21.48-.21.21,0,.36.07.46.2.1.13.16.35.16.64Z"/>
          <path class="cls-3" d="M60.09,8.96v5.3c0,.37-.05.64-.14.8-.09.16-.27.25-.52.25-.23,0-.4-.08-.51-.24s-.16-.43-.16-.81v-5.3c0-.37.05-.64.14-.8.09-.16.27-.25.52-.25s.42.08.52.25c.1.16.15.43.15.8Z"/>
          <path class="cls-3" d="M66.46,12.6c0,.52-.11.98-.33,1.39s-.52.73-.92.96c-.4.23-.86.35-1.38.35-.87,0-1.54-.27-2.03-.81-.21-.24-.38-.53-.49-.86s-.17-.68-.17-1.04c0-.51.1-.96.31-1.38.21-.41.51-.74.91-.98.4-.24.88-.36,1.44-.36s1.02.12,1.42.35.71.56.92.96c.21.41.31.88.31,1.4ZM63.8,14.32c.4,0,.72-.15.96-.46.24-.3.36-.72.36-1.26s-.12-.98-.36-1.28c-.24-.3-.56-.44-.96-.44s-.7.15-.94.45c-.24.3-.36.72-.36,1.27s.12.96.35,1.26c.24.3.56.46.96.46Z"/>
          <path class="cls-3" d="M72.08,11.67v1.8c0,.17.06.49.18.94.05.24.08.36.08.37,0,.14-.06.26-.18.37-.12.11-.27.16-.42.16s-.31-.07-.44-.2c-.13-.13-.27-.32-.41-.55-.31.25-.62.43-.92.56-.3.13-.62.19-.96.19-.56,0-1-.14-1.31-.43-.32-.29-.48-.65-.48-1.08,0-.4.14-.73.42-.99.28-.26.72-.45,1.33-.57.61-.12,1.21-.26,1.81-.42,0-.39-.08-.67-.24-.82-.15-.14-.38-.21-.7-.21-.28,0-.53.05-.75.14s-.38.23-.47.42c-.1.19-.19.32-.28.38-.08.06-.19.1-.33.1s-.26-.04-.38-.14c-.12-.09-.17-.21-.17-.36,0-.22.08-.44.25-.67s.4-.41.71-.55c.19-.08.39-.14.61-.17.22-.04.47-.05.76-.05.79,0,1.37.14,1.74.42.37.28.55.74.55,1.36ZM69.42,14.44c.43,0,.76-.14,1-.42s.37-.67.37-1.17v-.22c-.11.05-.24.09-.38.12-.14.03-.24.05-.28.06l-.83.2c-.24.06-.42.14-.55.25s-.2.26-.2.45c0,.21.08.38.24.52.16.14.37.21.63.21Z"/>
          <path class="cls-3" d="M78.42,8.97v5.35c0,.35-.05.6-.16.75-.1.16-.27.24-.51.24-.44,0-.66-.26-.66-.78v-.11c-.25.32-.52.55-.79.68s-.59.21-.95.21c-.45,0-.84-.12-1.17-.35-.34-.23-.6-.56-.78-.98-.18-.42-.27-.9-.27-1.45,0-.5.08-.95.25-1.34s.42-.71.75-.95.74-.35,1.21-.35c.35,0,.66.06.94.19.28.13.55.34.81.63v-1.82c0-.39.05-.66.16-.79s.27-.2.51-.2.42.09.52.27c.1.18.14.44.14.79ZM74.85,13.88c.25.27.54.41.86.41.39,0,.7-.15.95-.44.24-.29.36-.69.36-1.19,0-.54-.12-.97-.36-1.29-.24-.32-.56-.47-.97-.47-.36,0-.65.15-.88.45s-.34.71-.34,1.22c0,.31.03.57.09.78.06.21.16.39.29.53Z"/>
        </g>
        <path class="cls-2" d="M91.51,12.34v2.65c0,.18-.15.33-.33.33h-7.28c-.18,0-.33-.15-.33-.33v-2.65c0-.18.15-.33.33-.33s.33.15.33.33v2.32h6.62v-2.32c0-.18.15-.33.33-.33s.33.15.33.33ZM87.3,12.57c.13.13.34.13.47,0h0s1.66-1.66,1.66-1.66c.13-.13.13-.34,0-.47-.13-.13-.34-.13-.47,0l-1.09,1.09v-3.84c0-.18-.15-.33-.33-.33s-.33.15-.33.33v3.84l-1.09-1.09c-.13-.13-.34-.13-.47,0s-.13.34,0,.47l1.66,1.66Z"/>
      </g>
    </g>
  </g>
</svg>