<svg xmlns="http://www.w3.org/2000/svg" width="668" height="400" viewBox="0 0 668 400"><path d="M0 0h501v300H0Z" style="fill:#4C97C3;fill-opacity:1;fill-rule:nonzero;stroke:none" transform="scale(1.33333)"/><path d="M51.922 226.316q-1.752-.002-3.082-.449a6 6 0 0 1-2.203-1.375q-.905-.925-1.352-2.277-.452-1.35-.453-3.098v-9.777c0-.348.082-.61.25-.774q.278-.276.777-.277.504.001.75.277c.184.164.278.426.278.774v9.676q0 2.748 1.277 4.125c.852.898 2.106 1.351 3.758 1.351s2.898-.453 3.73-1.351q1.254-1.377 1.254-4.125v-9.676c0-.348.094-.61.278-.774q.275-.276.773-.277.48.001.727.277c.183.164.277.426.277.774v9.777q0 2.32-.801 3.949a5.27 5.27 0 0 1-2.355 2.45q-1.579.801-3.883.8m17.16 0q-1.654-.001-2.855-.851a4.08 4.08 0 0 1-1.579-2.274l.274-.277v2.301q.001.503-.274.777-.252.275-.726.274-.503.001-.754-.274c-.164-.183-.25-.441-.25-.777v-15.899c0-.336.086-.586.25-.75q.251-.276.754-.277.474.001.75.277.276.246.277.75v7.45h-.301a4.1 4.1 0 0 1 1.602-2.227q1.178-.822 2.832-.824 1.654 0 2.856.777 1.2.75 1.851 2.172.678 1.4.676 3.352c0 1.285-.223 2.398-.676 3.351q-.65 1.4-1.879 2.172-1.2.779-2.828.777m-.426-1.625q1.15 0 1.977-.55c.57-.368 1.004-.899 1.305-1.602q.475-1.048.476-2.523-.001-2.275-1.027-3.477-1.002-1.197-2.731-1.199-1.131 0-1.98.551-.852.526-1.328 1.574-.45 1.026-.45 2.551-.002 2.251 1.028 3.476 1.025 1.197 2.73 1.199m13.176 1.625q-1.478 0-2.457-.527-.95-.546-1.453-1.625-.474-1.072-.473-2.672v-6.703q-.001-.521.25-.773.276-.251.75-.25.504-.001.75.25.277.252.278.773v6.676q0 1.6.652 2.402.675.774 2.101.774 1.553-.001 2.532-1.051.977-1.05.976-2.75v-6.051q.002-.521.25-.773c.184-.168.446-.25.778-.25q.474-.001.726.25.277.252.278.773v10.426c0 .699-.329 1.051-.977 1.051q-.479.001-.754-.274-.251-.274-.25-.777v-2.274l.324.348q-.498 1.476-1.652 2.25-1.127.779-2.629.777m10.746-.05q-.504.001-.75-.274-.253-.274-.254-.777v-10.426q.001-.498.254-.75.247-.275.723-.273.48-.002.726.273.277.252.278.75v2.152l-.278-.3q.529-1.449 1.707-2.176 1.201-.75 2.754-.75 1.452 0 2.407.527.972.524 1.453 1.598c.316.699.472 1.594.472 2.676v6.699q0 .503-.273.777-.252.275-.727.274-.503.001-.777-.274-.251-.274-.25-.777v-6.574q-.001-1.698-.676-2.477-.651-.797-2.105-.797-1.677 0-2.68 1.047-.977 1.027-.977 2.75v6.051q0 1.05-1.027 1.051m18.11.05c-.95 0-1.754-.168-2.403-.5a3.36 3.36 0 0 1-1.43-1.5q-.475-1.002-.476-2.425v-6.375h-1.676q-.429 0-.652-.2-.228-.227-.227-.601-.001-.376.227-.574.223-.2.652-.2h1.676v-2.875q.001-.504.277-.75.276-.276.75-.277c.321 0 .559.094.727.277q.276.246.277.75v2.875h3.156q.423 0 .653.2.222.198.222.574 0 .374-.222.601-.23.2-.653.2h-3.156v6.175q-.001 1.425.602 2.176.598.722 1.953.723c.316 0 .586-.031.801-.098q.35-.1.578-.101a.42.42 0 0 1 .375.148q.147.174.148.602.002.298-.125.55a.6.6 0 0 1-.375.348 5 5 0 0 1-.801.176 4.3 4.3 0 0 1-.878.101m8.191 0q-1.475 0-2.453-.527-.955-.546-1.453-1.625-.476-1.072-.477-2.672v-6.703q-.001-.521.25-.773.275-.251.754-.25.498-.001.75.25.276.252.277.773v6.676q-.001 1.6.649 2.402.677.774 2.105.774 1.553-.001 2.531-1.051.975-1.05.977-2.75v-6.051q-.001-.521.25-.773.275-.251.777-.25.475-.001.727.25.274.252.273.773v10.426q.001 1.05-.976 1.051-.475.001-.75-.274-.251-.274-.25-.777v-2.274l.324.348q-.504 1.476-1.652 2.25-1.129.779-2.633.777m17.535-.226q-.55.001-.824-.25-.251-.277-.25-.723c0-.183.039-.359.125-.527a2.7 2.7 0 0 1 .398-.551l5.614-6c.851-.914 1.461-1.758 1.828-2.523.383-.786.574-1.575.574-2.375q0-1.5-.926-2.274-.9-.802-2.656-.801-1.126.002-2.129.348a6.8 6.8 0 0 0-1.93 1.078q-.322.246-.597.223a.8.8 0 0 1-.453-.199.88.88 0 0 1-.274-.45 1 1 0 0 1 0-.55q.1-.277.398-.5c.653-.536 1.438-.957 2.356-1.274a8.1 8.1 0 0 1 2.805-.5q1.779.001 3.007.547 1.225.551 1.852 1.625c.418.703.629 1.559.629 2.578q0 1.049-.352 2.074-.325.996-1.027 2.051-.678 1.048-1.777 2.172l-5.336 5.625v-.574h8.441q.476-.001.699.226.251.198.25.625.001.45-.25.676-.223.223-.699.223zm22.27.176q-.475.001-.75-.274-.277-.274-.278-.777v-2.899h-7.187q-.503.001-.801-.226-.276-.248-.277-.699.001-.276.125-.551c.086-.199.234-.449.453-.75l7.64-11.098q.224-.351.5-.527.274-.176.653-.176c.265 0 .492.086.676.25q.3.251.3.801v11.226h1.828q.475 0 .727.223c.164.152.25.367.25.652 0 .282-.086.5-.25.649q-.252.227-.727.226h-1.828v2.899q0 .503-.277.777-.274.275-.777.274m-1.028-5.7v-9.699h.602l-7.012 10.25v-.551zm8.469 5.625c-.418 0-.75-.125-1.004-.375-.25-.265-.375-.601-.375-1q0-.602.375-.976.379-.399 1.004-.399.626 0 .977.399.375.374.375.976c0 .399-.125.735-.375 1q-.351.375-.977.375m10.344.125q-3.029-.002-4.61-2.324-1.577-2.326-1.578-6.726c0-1.965.235-3.618.703-4.95q.703-2.026 2.078-3.05 1.405-1.025 3.407-1.024 3.058 0 4.609 2.297c1.055 1.52 1.578 3.75 1.578 6.703q0 2.95-.699 4.973-.702 2.026-2.078 3.074c-.922.684-2.055 1.027-3.41 1.027m0-1.777c1.402 0 2.441-.59 3.109-1.773q1.025-1.801 1.024-5.524c0-2.5-.34-4.328-1.024-5.476q-1.004-1.751-3.109-1.75c-1.383 0-2.422.582-3.106 1.75q-1.026 1.751-1.027 5.476.001 3.723 1.027 5.524c.684 1.183 1.723 1.773 3.106 1.773m17.988 1.727q-.476.001-.754-.274-.274-.274-.273-.777v-2.899h-7.192q-.5.001-.8-.226-.275-.248-.274-.699c0-.184.039-.368.125-.551q.125-.299.449-.75l7.641-11.098q.226-.351.5-.527.276-.176.652-.176c.266 0 .492.086.676.25q.3.251.301.801v11.226h1.828q.475 0 .726.223.251.226.25.652.001.424-.25.649-.251.227-.726.226h-1.828v2.899q.001.503-.274.777c-.183.184-.445.274-.777.274m-1.027-5.7v-9.699h.601l-7.015 10.25v-.551zM403.23 107.695c0 .535-.535.535-.535.535h-.539c-.535 0-.535-.535-1.074-1.07 0 0-.535-.539-.535-1.074s0-.535.535-.535l1.074.535c.539.535 1.074 1.074 1.074 1.609m-9.668-5.359c0-2.684-1.074-4.289-2.683-4.289 0 0 0 .535-.539.535v1.07h1.613c0 1.075.535 1.61.535 2.684zm18.801-2.684c1.075 0 1.61 1.075 2.149 2.684h1.074c-.539-.539-.539-1.074-.539-1.609 0-.536 0-1.075-.535-1.61-.539-.535-1.074-1.07-1.614-1.07 0 0-.535.535-1.074.535 0 .535.539.535.539 1.07m-16.113 8.578c-.539 0-.539 0-.539-.535s0-1.074.539-1.609c1.074 0 1.609-.535 1.609-.535.539 0 .539.535.539.535 0 .535-.539 1.074-1.613 2.144zm-5.91-.535c-2.149-1.074-2.684-2.679-2.684-5.359 0-1.609 0-2.684 1.074-3.754.536-1.07 1.61-1.609 2.684-1.609s1.613.539 2.688 1.609c.535 1.609 1.074 3.215 1.074 4.824v1.071h.535v-.536c.539 0 .539-1.07.539-3.214 0-1.61 0-3.215-1.074-4.825-1.074-1.609-2.149-2.679-4.297-2.679-1.613 0-3.223 1.07-3.762 2.679-1.074 2.145-1.289 3.75-1.289 6.434 0 2.141.754 4.285 2.902 6.43.536-.536 1.075-.536 1.61-1.071m67.14 75.582c.536 0 .536-.215.536-.699 0-1.18-.536-2.574-2.149-4.125-1.609-1.609-4.297-2.629-7.519-3.058-.536-.055-1.075-.055-1.075-.055-.535-.106-.535-.106-1.074-.106-.535-.054-1.609-.16-2.148-.265 1.613-4.989 2.148-9.383 2.148-13.242 0-5.36-1.074-9.114-3.222-12.329-2.149-3.218-4.297-4.824-6.981-5.363-.539.539-.539.539-.539 1.074a13.42 13.42 0 0 1 6.984 6.434c1.61 3.75 2.149 6.969 2.149 10.719 0 3-.539 7.453-2.688 13.133-2.148.855-4.297 2.843-5.906 5.949 0 .484 0 .75.535.75 0 0 .539-.481 1.074-1.391 1.075-.91 1.614-1.824 2.688-2.734 1.609-.914 2.684-1.395 4.297-1.395 2.683 0 5.371.375 6.98 1.125 2.149.696 3.223 1.449 3.762 2.305a42 42 0 0 0 1.609 2.254c0 .695.539 1.019.539 1.019m-49.414-77.726c-.539-.535-.539-1.61-.539-2.68 0-2.144 0-3.219 1.075-4.824q1.611-1.61 3.222-1.609c1.614 0 2.688 1.074 3.762 2.144.535 1.609 1.074 2.68 1.074 4.289q0 4.02-3.222 4.824s.535.535 1.074.535c1.074 0 1.609.536 2.683 1.075.539-3.219 1.075-5.364 1.075-8.043 0-3.215-.536-5.36-1.61-6.969-1.613-1.605-3.222-2.145-5.371-2.145-1.613 0-3.223.54-4.836 1.61-1.074 1.609-1.609 2.68-1.609 4.289 0 2.68.535 4.824 1.609 6.969.539 0 1.074.535 1.613.535m6.446 8.578c-6.985 4.824-12.356 6.969-16.653 6.969-3.757 0-7.519-1.61-10.742-4.289.539 1.07 1.074 2.144 1.613 2.679l3.223 3.215c2.149 2.145 4.832 3.219 7.52 3.219 3.757 0 8.054-2.145 13.425-5.899l4.836-3.214c1.075-1.075 2.149-2.145 2.149-3.754 0-.535 0-1.071-.539-1.071-.535-1.074-3.223-2.679-8.594-4.289-4.832-2.144-8.594-3.218-10.742-3.218q-2.417.001-8.055 3.218c-3.223 2.145-5.371 4.289-5.371 6.434 0 0 .535.535 1.074 1.605 3.223 2.68 6.446 4.289 9.668 4.289 4.297 0 9.668-2.144 16.649-7.503v1.07c.539 0 .539.539.539.539m12.351 108.277c2.149 4.032 5.91 6.055 10.207 6.055 1.075 0 2.149-.156 3.223-.481 1.074-.214 2.148-.589 2.684-1.015.539-.379 1.074-.754 1.613-1.184 1.074-.375 1.074-.64 1.609-.91l9.133-7.879c2.148-1.711 4.297-3.207 6.98-4.5 2.149-1.289 4.297-2.144 5.372-2.629 1.613-.429 2.687-1.074 3.761-1.929.535-.805 1.075-1.825 1.075-3.11 0-1.554-1.075-2.734-2.149-3.59-1.074-.859-2.148-1.449-3.223-1.824s-2.148-1.234-3.761-2.68a14.4 14.4 0 0 1-2.684-5.843l-.539-3.11c-.535-1.445-.535-2.519-1.074-3.109 0-.16 0-.215-.535-.215-.539 0-1.614.485-2.149 1.395a56 56 0 0 0-3.222 3c-.539 1.074-2.149 2.039-3.223 2.949-1.613.914-3.223 1.394-4.297 1.394-4.297 0-6.445-1.179-8.059-3.484-1.074-1.715-1.609-3.699-2.148-5.949-1.074-.91-1.609-1.395-2.684-1.395-2.687 0-3.761 2.789-3.761 8.418v16.668c0 .485-.535 1.559-.535 3.219-.539 1.66-.539 3.547-.539 5.68l-1.075 5.949v.094m-77.879-2.836c4.993.726 10.743 2.289 17.239 4.668 6.5 2.359 10.472 3.593 11.922 3.593 3.761 0 6.878-1.664 9.453-4.875.539-1.039.539-2.261.539-3.668 0-5.062-3.063-11.468-9.184-19.242l-3.652-4.879c-.754-1.015-1.668-2.57-2.848-4.66-1.129-2.094-2.148-3.699-2.953-4.824-.699-1.234-1.828-2.469-3.277-3.699-1.395-1.235-3.008-2.039-4.782-2.469-2.253.43-3.812 1.18-4.566 2.199-.75 1.02-1.18 2.145-1.289 3.324-.156 1.125-.484 1.875-1.02 2.25-.539.321-1.449.59-2.687.86-.266 0-.75 0-1.449.051h-1.446c-2.851 0-4.781.324-5.804.859-1.344 1.555-2.043 3.324-2.043 5.199 0 .86.218 2.305.648 4.344.426 1.984.645 3.59.645 4.715 0 2.199-.645 4.394-1.989 6.594-1.343 2.304-2.043 4.019-2.043 5.242.54 2.078 4.082 3.543 10.586 4.398m17.883-48.723c0-3.699.969-7.773 2.953-12.597 1.934-4.824 3.871-8.039 5.75-10.184-.109-.535-.379-.535-.804-.535l-.539-.535c-1.559 1.605-3.438 5.359-5.696 10.719-2.254 4.824-3.433 9.273-3.433 12.543 0 2.41.59 4.5 1.664 6.324 1.179 1.769 4.027 4.344 8.539 7.609l5.691 3.703c6.07 5.254 9.293 8.895 9.293 11.039 0 1.129-.539 2.254-2.148 3.485-1.075 1.289-2.524 1.933-3.762 1.933-.105 0-.16.106-.16.375 0 .051.539 1.125 1.664 3.215 2.258 3.055 7.09 4.555 13.535 4.555 11.816 0 20.949-4.824 27.93-14.473 0-2.679 0-4.34-.535-5.039v-1.98c0-3.485.535-6.114 1.609-7.828s2.148-2.52 3.762-2.52c1.074 0 2.148.375 3.222 1.18.536-4.129.536-7.719.536-10.934 0-4.879 0-8.898-1.075-12.652-.535-3.215-1.609-5.895-2.683-8.039l-3.223-4.824c-1.074-1.61-1.613-3.215-2.687-4.825-.536-2.144-1.075-3.754-1.075-6.433-1.609-2.68-2.683-5.36-4.297-8.039-1.074-2.68-2.148-5.364-3.222-7.504l-4.832 3.75c-5.371 3.754-9.668 5.359-13.43 5.359-3.223 0-5.906-.535-7.519-2.68l-3.223-2.679c0 1.609-.535 3.754-1.61 5.898l-3.382 6.43c-1.504 3.754-2.313 5.898-2.469 7.508-.219 1.07-.379 2.14-.484 2.14l-4.032 8.043c-4.347 8.039-6.554 15.489-6.554 21.653 0 1.234.109 2.523.328 3.808-2.418-1.664-3.602-3.965-3.602-6.969m38.457 50.711c-6.984 0-12.355.942-16.113 2.813v-.16c-2.688 3.215-5.695 4.875-9.883 4.875-2.633 0-6.769-1.016-12.351-3.055-5.641-1.93-10.637-3.406-14.989-4.383-.429-.125-1.394-.304-2.953-.551a125 125 0 0 1-4.137-.734 31 31 0 0 1-3.812-1.101q-2.016-.638-3.223-1.645c-.742-.676-1.105-1.437-1.105-2.289 0-.855.183-1.777.547-2.75.343-.59.718-1.18 1.093-1.715.379-.59.7-1.125.918-1.664.321-.48.536-.961.746-1.5.219-.48.434-.965.54-1.555.109-.535.214-1.07.214-1.605 0-.539-.214-2.145-.644-4.988q-.645-4.18-.645-5.305c0-2.359.535-4.234 1.719-5.574s2.309-2.039 3.492-2.039h6.176c.484 0 1.234-.266 2.367-.91.371-.86.696-1.555.91-2.2.27-.64.375-1.125.485-1.34.105-.32.215-.644.32-.91.215-.375.484-.804.859-1.234-.425-.535-.644-1.231-.644-2.09 0-.59 0-1.125.109-1.445 0-1.93.914-4.664 2.848-8.258l1.879-3.375c1.558-2.895 2.738-5.039 3.598-7.184.914-2.144 1.878-5.359 2.953-9.648q1.29-5.629 6.125-11.258l4.027-4.824c2.793-3.215 4.617-5.895 5.641-8.039 1.019-2.145 1.558-4.824 1.558-6.969 0-1.074-.269-4.289-.859-9.648-.539-5.364-.805-10.723-.805-15.547 0-3.75.32-6.434 1.016-9.114.699-2.679 1.937-5.359 3.761-7.503 1.61-2.145 3.758-4.29 6.981-5.36q4.835-1.61 11.281-1.609c1.61 0 3.223 0 4.832.535 1.614 0 3.762.539 6.446 1.609 2.148 1.075 4.296 2.145 5.91 3.754 2.148 1.606 3.758 4.289 5.371 6.969 1.074 3.215 2.148 6.43 2.683 10.719.539 2.679.539 5.359 1.075 9.113 0 3.215.539 5.359.539 6.969.535 1.609.535 3.754 1.074 6.433.535 2.145 1.074 4.286 2.148 5.895 1.075 2.144 2.149 4.289 3.758 6.433 1.613 2.68 3.762 5.36 5.91 8.575 4.832 5.363 8.594 11.258 10.742 17.156 2.684 5.359 4.297 12.328 4.297 19.781a36.4 36.4 0 0 1-1.613 10.774c1.074 0 1.613.429 2.149 1.175.539.754 1.074 2.36 1.613 4.883l.535 3.961c.539 1.184 1.074 2.309 2.687 3.274 1.075.964 2.149 1.769 3.758 2.414 1.074.535 2.688 1.281 3.762 2.25q1.61 1.604 1.609 3.379c0 1.82-.535 3.16-1.609 4.125-1.074 1.07-2.148 1.824-3.762 2.304-1.074.535-3.222 1.61-6.445 3.121-2.684 1.586-5.371 3.512-8.055 5.789l-5.371 4.563c-2.148 2.086-4.297 3.59-5.91 4.5-1.609.965-3.758 1.449-5.906 1.449l-3.762-.43c-4.297-1.125-6.98-3.269-8.594-6.539-8.593-1.043-15.574-1.554-19.871-1.554M51.508 119.859q-2.864.001-4.492-1.562-1.564-1.624-1.563-4.485v-33.8q0-2.926 1.563-4.485c1.043-1.039 2.515-1.558 4.429-1.558q2.93 0 4.426 1.558 1.564 1.56 1.563 4.485v29.902h15.894q2.472 0 3.777 1.301 1.367 1.232 1.368 3.637 0 2.406-1.368 3.707-1.305 1.3-3.777 1.3zm39 .582q-2.736.002-4.235-1.625-1.495-1.622-1.496-4.679V93.598q.001-3.056 1.496-4.68 1.5-1.624 4.235-1.625 2.8.001 4.301 1.625 1.56 1.624 1.562 4.68v20.539q0 3.057-1.5 4.679c-.996 1.086-2.453 1.625-4.363 1.625m0-37.761q-3.06 0-4.754-1.43-1.629-1.43-1.629-4.16 0-2.668 1.629-4.098 1.694-1.43 4.754-1.43 3.192 0 4.82 1.43t1.629 4.098q0 2.73-1.629 4.16-1.628 1.43-4.82 1.43m20.308 37.761q-2.735.001-4.234-1.492-1.498-1.495-1.496-4.355V93.078q0-2.795 1.43-4.289 1.499-1.495 4.234-1.496 2.737.001 4.168 1.496 1.435 1.494 1.434 4.289v3.055l-.715-2.664q1.56-3.058 4.425-4.68c1.958-1.086 4.172-1.625 6.645-1.625 2.563 0 4.668.496 6.316 1.496q2.48 1.43 3.715 4.547 1.238 3.059 1.239 7.734v13.653q0 2.86-1.5 4.355-1.498 1.493-4.297 1.492-2.801.001-4.301-1.492-1.495-1.495-1.496-4.355v-13.196q0-2.924-1.043-4.16-.978-1.235-2.93-1.234-2.608 0-4.168 1.687-1.565 1.628-1.566 4.422v12.481q0 5.847-5.86 5.847m47.727.133q-4.167-.001-6.84-1.496c-1.777-1.039-3.125-2.578-4.035-4.613q-1.306-3.058-1.305-7.738V93.078q0-2.86 1.5-4.289 1.495-1.495 4.297-1.496 2.8.001 4.301 1.496 1.495 1.43 1.496 4.289v13.977c0 1.558.324 2.73.977 3.507q.977 1.172 3.062 1.172 2.345.001 3.84-1.691 1.5-1.689 1.5-4.484V93.078q.001-2.86 1.496-4.289 1.5-1.495 4.301-1.496 2.802.001 4.297 1.496 1.5 1.43 1.5 4.289v21.516q0 5.847-5.602 5.847-2.735.001-4.234-1.492c-1-.996-1.496-2.449-1.496-4.355v-3.77l1.039 3.184c-.953 2.125-2.301 3.75-4.035 4.875q-2.543 1.692-6.059 1.691m33.66-.195q-2.151 0-3.453-1.172c-.867-.777-1.324-1.777-1.367-2.988q.001-1.821 1.496-3.707l9.641-11.7v5.137l-8.856-10.789q-1.5-1.95-1.5-3.707.066-1.823 1.367-2.988 1.305-1.172 3.453-1.172 2.087 0 3.387.715 1.367.651 2.606 2.211l6.054 7.801h-4.035l6.055-7.801q1.241-1.56 2.605-2.211 1.371-.715 3.387-.715 2.216 0 3.453 1.172 1.3 1.165 1.301 2.988.07 1.821-1.496 3.707l-8.86 10.789v-5.137l9.707 11.7q1.56 1.823 1.497 3.64-.065 1.824-1.368 3.055-1.3 1.172-3.515 1.172-2.022-.001-3.387-.652-1.37-.716-2.605-2.274l-6.774-8.644h3.973l-6.84 8.644q-1.173 1.495-2.539 2.211-1.3.715-3.387.715M51.09 168.91q-2.245 0-3.961-1.086-1.686-1.083-2.633-3.082-.944-2.026-.945-4.758 0-2.764.945-4.726.947-1.993 2.633-3.078 1.717-1.085 3.961-1.086 2.14 0 3.719 1.051 1.612 1.049 2.175 2.765h-.386v-9.101q0-1.084.558-1.645.563-.56 1.614-.559 1.055-.002 1.613.559.597.561.597 1.645v20.789q0 1.089-.562 1.679-.558.563-1.613.563-1.05 0-1.614-.563-.557-.59-.558-1.679v-2.731l.387 1.051q-.529 1.823-2.141 2.906c-1.074.723-2.34 1.086-3.789 1.086m1.226-3.324c.868 0 1.625-.211 2.282-.633q.982-.629 1.507-1.855c.375-.84.563-1.875.563-3.114q0-2.8-1.195-4.164-1.189-1.4-3.157-1.402-1.294 0-2.277.633-.982.591-1.543 1.851c-.351.821-.527 1.844-.527 3.082q0 2.765 1.191 4.2 1.195 1.4 3.156 1.402m23.676 3.324q-2.906 0-5.012-1.086c-1.402-.722-2.492-1.75-3.261-3.082q-1.125-1.992-1.125-4.722 0-2.66 1.09-4.657a8.14 8.14 0 0 1 3.05-3.113q1.963-1.155 4.454-1.156c1.214 0 2.304.199 3.261.594a6.7 6.7 0 0 1 2.489 1.714q1.055 1.125 1.578 2.731.562 1.577.562 3.57c0 .422-.152.746-.457.981-.281.211-.687.316-1.226.316H70.137v-2.52h9.855l-.562.524q0-1.612-.489-2.695-.456-1.084-1.371-1.645-.875-.595-2.207-.594-1.474-.002-2.527.7-1.015.663-1.578 1.925-.523 1.226-.524 2.938v.246q.001 2.87 1.332 4.305c.911.933 2.246 1.402 3.996 1.402q.916 0 2.036-.211a8 8 0 0 0 2.175-.805q.734-.422 1.297-.351.564.035.875.386.352.347.422.875.07.49-.211 1.012-.244.529-.875.91-1.229.772-2.84 1.157-1.58.351-2.949.351m22.449 0q-2.173 0-3.82-1.086c-1.078-.722-1.789-1.691-2.141-2.906l.387-.875v2.555q0 1.089-.562 1.679-.561.563-1.578.563-1.05 0-1.614-.563-.562-.59-.562-1.679v-20.789q0-1.084.562-1.645t1.614-.559c.703 0 1.238.184 1.613.559q.597.561.598 1.645v9.101h-.422c.375-1.144 1.097-2.066 2.175-2.765q1.612-1.05 3.75-1.051 2.279 0 3.965 1.086 1.68 1.084 2.629 3.078c.633 1.308.945 2.883.945 4.726 0 1.821-.312 3.407-.945 4.758q-.948 1.999-2.664 3.082-1.686 1.085-3.93 1.086m-1.226-3.324q1.296 0 2.281-.633.979-.629 1.508-1.855c.371-.84.558-1.875.558-3.114 0-1.867-.394-3.254-1.191-4.164-.793-.933-1.848-1.402-3.156-1.402q-1.296 0-2.281.633-.98.591-1.543 1.851c-.348.821-.524 1.844-.524 3.082q.001 2.765 1.192 4.2 1.193 1.4 3.156 1.402" style="fill:#fff;fill-opacity:1;fill-rule:nonzero;stroke:none" transform="scale(1.33333)"/></svg>