<svg xmlns="http://www.w3.org/2000/svg" width="666.667" height="400" viewBox="0 0 666.667 400"><defs><clipPath id="a" clipPathUnits="userSpaceOnUse"><path d="M0 0h500v300H0Z"/></clipPath><clipPath id="b" clipPathUnits="userSpaceOnUse"><path d="M323.15 67.56h155.905v155.905H323.15Z"/></clipPath></defs><g clip-path="url(#a)" transform="matrix(1.33333 0 0 -1.33333 0 400)"><path d="M0 0h500v300H0Z" style="fill:#4C97C3;fill-opacity:1;fill-rule:nonzero;stroke:none"/><text xml:space="preserve" style="font-variant:normal;font-weight:700;font-size:65px;font-family:Arial;-inkscape-font-specification:Arial-BoldMT;writing-mode:lr-tb;fill:#fff;fill-opacity:1;fill-rule:nonzero;stroke:none" transform="matrix(1 0 0 -1 38.548 181.705)"><tspan x="0 62.777 82.848999 124.566 166.283 208 260.57199" y="0">Windows</tspan></text><text xml:space="preserve" style="font-variant:normal;font-weight:400;font-size:28px;font-family:Arial;-inkscape-font-specification:ArialMT;writing-mode:lr-tb;fill:#fff;fill-opacity:1;fill-rule:nonzero;stroke:none" transform="matrix(1 0 0 -1 42.693 111.218)"><tspan x="0 14 29.573601 45.147202" y="0">x64 </tspan></text><text xml:space="preserve" style="font-variant:normal;font-weight:400;font-size:28px;font-family:Arial;-inkscape-font-specification:ArialMT;writing-mode:lr-tb;fill:#fff;fill-opacity:1;fill-rule:nonzero;stroke:none" transform="matrix(1 0 0 -1 42.693 74.218)"><tspan x="0 26.426399 32.647999 48.2216 63.7952 79.368797 99.590401 113.5904 121.3688 136.9424 152.51601 160.2944 175.868 191.4416 207.0152 214.79359 228.2868" y="0">Windows 10 and 11</tspan></text></g><g clip-path="url(#b)" transform="matrix(1.33333 0 0 -1.33333 0 400)"><path d="M478.337 204.18a2.11 2.11 0 0 1-2.232.347c-9.165-4.002-17.95-5.946-26.856-5.946-7.297 0-14.935 1.257-24.766 4.079a2.103 2.103 0 0 1-2.604-1.441l-14.488-50.193a2.11 2.11 0 0 1 1.444-2.61c10.222-2.934 18.218-4.242 25.926-4.242h.001c9.497 0 18.834 2.06 28.543 6.298.574.251 1.008.744 1.182 1.346l14.486 50.194a2.11 2.11 0 0 1-.636 2.168M343.72 150.296c.286 0 .572.058.843.175 9.166 4.002 17.95 5.947 26.856 5.947 7.295 0 14.934-1.258 24.766-4.08a2.106 2.106 0 0 1 2.604 1.441l14.487 50.193a2.11 2.11 0 0 1-1.443 2.61c-10.224 2.934-18.221 4.244-25.928 4.244-9.498 0-18.834-2.06-28.541-6.298a2.1 2.1 0 0 1-1.182-1.347l-14.486-50.195a2.105 2.105 0 0 1 2.025-2.69M394.632 141.6a2.1 2.1 0 0 1-1.263 1.006c-10.225 2.934-18.222 4.243-25.929 4.243-9.497 0-18.832-2.06-28.54-6.298a2.1 2.1 0 0 1-1.181-1.346L323.233 89.01a2.107 2.107 0 0 1 2.867-2.515c9.165 4.002 17.95 5.947 26.855 5.947 7.297 0 14.935-1.259 24.766-4.08a2.107 2.107 0 0 1 2.605 1.44l14.486 50.193c.156.538.09 1.115-.18 1.605M457.643 140.551c-9.166-4.002-17.95-5.947-26.856-5.947-7.297 0-14.934 1.26-24.767 4.081a2.107 2.107 0 0 1-2.606-1.441L388.93 87.05a2.105 2.105 0 0 1 1.443-2.608c10.223-2.935 18.219-4.243 25.926-4.243 9.498 0 18.834 2.06 28.543 6.298.575.25 1.008.744 1.182 1.347l14.487 50.193a2.107 2.107 0 0 1-2.867 2.514" style="fill:#fff;fill-opacity:1;fill-rule:nonzero;stroke:none"/></g></svg>