<svg xmlns="http://www.w3.org/2000/svg" xml:space="preserve" width="1000" height="500" viewBox="0 0 1000 500"><title>Algrani_Profile_01</title><path d="M240.054 152.659c0-.211-.105-.419-.157-.682l-15.243-34.569c-.261-.525-.629-1.152-1.31-1.152-.628 0-.994.627-1.204 1.152l-6.129 14.195-6.128-14.195c-.209-.525-.576-1.152-1.257-1.152-.629 0-.995.627-1.258 1.152l-15.19 34.569c-.051.211-.104.42-.104.629 0 .471.261.839.996.839h3.771c.682 0 1.1-.262 1.362-.943l10.423-25.299 4.453 10.212-6.235 14.668c-.261.576-.104 1.362.944 1.362h3.091c.681 0 1.1-.315 1.361-.943l3.72-9.69 3.77 9.69c.263.628.681.943 1.363.943h2.984c1.1 0 1.205-.786.944-1.362l-6.181-14.51 4.504-10.37 10.686 25.352c.261.628.681.89 1.361.89h3.667c.682 0 .996-.315.996-.786M259.653 148.364v-9.218h12.623c.734 0 1.153-.421 1.153-1.206v-2.723c0-.786-.419-1.155-1.153-1.155h-12.623V121.86h15.243c.733 0 1.151-.419 1.151-1.153v-2.776c0-.733-.418-1.153-1.151-1.153h-19.8c-.733 0-1.153.42-1.153 1.153v34.362c0 .732.42 1.151 1.153 1.151h19.8c.733 0 1.151-.419 1.151-1.151v-2.777c0-.734-.418-1.152-1.151-1.152zM333.517 128.092l-6.024 14.771-6.18-14.771zm10.109-10.529c0-.47-.366-.784-1.048-.784h-3.457c-.681 0-1.1.262-1.361.89l-2.306 5.606H319.27l-2.357-5.606c-.262-.628-.733-.89-1.362-.89h-3.352c-.682 0-1.048.314-1.048.784 0 .159.053.421.157.577l15.033 34.832c.315.681.733.995 1.152.995.42 0 .787-.314 1.1-.995l14.877-34.832c.104-.208.156-.418.156-.577M362.229 136.63h7.072c4.451 0 6.545 2.986 6.545 5.972 0 2.932-2.2 5.971-6.545 5.971h-7.072zm19.956-19.014c0-.47-.314-.837-.89-.837h-3.981c-.629 0-1.048.263-1.362.837l-6.862 14.142h-6.861V117.93c0-.733-.42-1.151-1.153-1.151h-3.404c-.734 0-1.153.418-1.153 1.151v34.362c0 .732.419 1.153 1.153 1.153h12.518c6.599 0 11.419-4.243 11.419-10.843 0-4.925-2.777-8.486-6.81-10.005l7.229-14.298c.104-.263.157-.473.157-.683M403.509 148.364v-9.218h12.624c.733 0 1.153-.421 1.153-1.206v-2.723c0-.786-.42-1.155-1.153-1.155h-12.624V121.86h15.243c.733 0 1.151-.419 1.151-1.153v-2.776c0-.733-.418-1.153-1.151-1.153h-19.799c-.734 0-1.153.42-1.153 1.153v34.362c0 .732.419 1.151 1.153 1.151h19.799c.733 0 1.151-.419 1.151-1.151v-2.777c0-.734-.418-1.152-1.151-1.152zM481.721 135.164c0 6.914-3.72 13.147-11.472 13.147h-6.285v-26.347l6.285-.051c7.752-.053 11.472 6.337 11.472 13.251m6.129 0c0-10.11-6.758-18.386-16.866-18.386h-11.577c-.733 0-1.152.419-1.152 1.153v34.362c0 .732.419 1.151 1.152 1.151h11.577c10.108 0 16.866-8.172 16.866-18.28M508.862 152.292v-34.36c0-.735-.42-1.153-1.153-1.153h-3.404c-.733 0-1.153.418-1.153 1.153v34.36c0 .732.42 1.153 1.153 1.153h3.404c.733 0 1.153-.421 1.153-1.153M555.326 134.85v-13.829c0-.628-.21-1.047-.681-1.414-2.723-2.147-6.286-3.351-11.523-3.351-10.843 0-18.386 7.018-18.386 18.908 0 11.576 7.647 18.804 18.386 18.804 4.294 0 7.804-1.467 10.527-3.404.629-.471.473-1.153.053-1.624l-2.149-2.2c-.47-.472-1.047-.419-1.623 0-1.624 1.098-4.085 1.937-6.808 1.937-8.643 0-12.206-7.176-12.257-13.46 0-6.6 3.3-13.671 12.257-13.671 4.137 0 5.657.785 6.651 1.675v7.961h-5.657c-.733 0-1.151.421-1.151 1.153l-.053 2.515c0 .732.418 1.153 1.153 1.153h10.108c.733 0 1.153-.421 1.153-1.153M577.804 152.292v-34.36c0-.735-.419-1.153-1.152-1.153h-3.405c-.733 0-1.152.418-1.152 1.153v34.36c0 .732.419 1.153 1.152 1.153h3.405c.733 0 1.152-.421 1.152-1.153M616.725 152.292v-2.776c0-.734-.367-1.153-1.153-1.153h-8.747v-30.431c0-.735-.418-1.153-1.151-1.153h-3.353c-.786 0-1.205.418-1.205 1.153v30.431h-8.747c-.734 0-1.152.419-1.152 1.153v2.776c0 .732.418 1.153 1.152 1.153h23.203c.786 0 1.153-.421 1.153-1.153M644.597 128.092l-6.024 14.771-6.18-14.771zm10.109-10.529c0-.47-.366-.784-1.048-.784h-3.457c-.681 0-1.1.262-1.361.89l-2.306 5.606H630.35l-2.357-5.606c-.262-.628-.733-.89-1.362-.89h-3.352c-.682 0-1.048.314-1.048.784 0 .159.052.421.157.577l15.033 34.832c.315.681.733.995 1.152.995.42 0 .787-.314 1.1-.995l14.877-34.832c.104-.208.156-.418.156-.577M688.603 120.654v-2.723c0-.734-.42-1.152-1.153-1.152h-17.18c-.733 0-1.153.418-1.153 1.152v34.361c0 .732.42 1.152 1.153 1.152h3.404c.733 0 1.153-.42 1.153-1.152v-30.484h12.623c.733 0 1.153-.421 1.153-1.154M745.023 141.764c0 3.771-3.037 6.6-6.861 6.6h-5.5v-13.2h5.5c3.824 0 6.861 2.776 6.861 6.6m5.553 0c0-6.443-5.29-11.68-11.89-11.68h-6.024v-12.153c0-.733-.419-1.153-1.152-1.153h-3.404c-.734 0-1.153.42-1.153 1.153v34.362c0 .732.419 1.151 1.153 1.151h10.527c6.653 0 11.943-5.237 11.943-11.68M779.338 128.092l-6.024 14.771-6.18-14.771zm10.109-10.529c0-.47-.366-.784-1.048-.784h-3.457c-.681 0-1.1.262-1.361.89l-2.306 5.606h-16.184l-2.357-5.606c-.262-.628-.733-.89-1.362-.89h-3.352c-.682 0-1.048.314-1.048.784 0 .159.053.421.157.577l15.033 34.832c.315.681.733.995 1.152.995.42 0 .787-.314 1.1-.995l14.877-34.832c.104-.208.156-.418.156-.577M829.263 150.092c.314-.262.471-.576.471-.839 0-.261-.157-.522-.418-.784l-2.149-2.253c-.68-.628-1.047-.472-1.623-.106-1.781 1.102-3.771 2.149-7.332 2.149-8.015 0-11.68-6.337-11.68-13.149 0-6.755 3.665-13.147 11.68-13.147 3.612 0 5.604.998 7.332 2.096.629.418 1.101.473 1.623-.052l2.2-2.252c.21-.209.367-.525.367-.786 0-.262-.157-.576-.471-.837-2.462-2.2-6.39-3.877-11.314-3.877-10.423 0-17.809 7.386-17.809 18.855 0 11.472 7.386 18.857 17.862 18.857 4.977 0 8.851-1.728 11.261-3.875M870.125 117.617c0-.471-.418-.839-1.152-.839h-4.19c-.628 0-1.046.159-1.414.682l-13.094 16.028v-15.453c0-.785-.42-1.204-1.153-1.204h-3.406c-.732 0-1.151.419-1.151 1.204v34.309c0 .786.419 1.151 1.151 1.151h3.406c.733 0 1.153-.365 1.153-1.151v-14.09l11.942 14.51c.418.523.836.68 1.466.68h3.981c.838 0 1.205-.367 1.205-.784 0-.316-.105-.577-.367-.892l-13.2-15.765 14.51-17.654c.209-.261.313-.522.313-.732M904.021 128.092l-6.024 14.771-6.18-14.771zm10.109-10.529c0-.47-.366-.784-1.047-.784h-3.458c-.681 0-1.1.262-1.361.89l-2.306 5.606h-16.184l-2.357-5.606c-.263-.628-.733-.89-1.363-.89h-3.352c-.681 0-1.047.314-1.047.784 0 .159.052.421.156.577l15.034 34.832c.313.681.733.995 1.152.995s.785-.314 1.1-.995l14.876-34.832c.104-.208.157-.418.157-.577M955.411 134.85v-13.829c0-.628-.209-1.047-.68-1.414-2.724-2.147-6.285-3.351-11.524-3.351-10.841 0-18.384 7.018-18.384 18.908 0 11.576 7.647 18.804 18.384 18.804 4.296 0 7.806-1.467 10.529-3.404.628-.471.471-1.153.052-1.624l-2.147-2.2c-.473-.472-1.048-.419-1.624 0-1.624 1.098-4.086 1.937-6.81 1.937-8.641 0-12.203-7.176-12.256-13.46 0-6.6 3.3-13.671 12.256-13.671 4.138 0 5.657.785 6.652 1.675v7.961h-5.657c-.732 0-1.151.421-1.151 1.153l-.053 2.515c0 .732.419 1.153 1.152 1.153h10.109c.734 0 1.152-.421 1.152-1.153M977.891 152.292v-34.36c0-.735-.417-1.153-1.152-1.153h-3.406c-.732 0-1.151.418-1.151 1.153v34.36c0 .732.419 1.153 1.151 1.153h3.406c.735 0 1.152-.421 1.152-1.153M1019.64 153.444h3.41c.73 0 1.15-.419 1.15-1.152v-34.884c0-.734-.37-1.152-1-1.152-.42 0-.78.209-1.15.628l-21.11 24.408v-23.361c0-.733-.42-1.153-1.15-1.153h-3.406c-.732 0-1.152.42-1.152 1.153v34.884c0 .629.315 1.153.943 1.153.421 0 .734-.157 1.152-.628l21.163-24.409v23.361c0 .733.42 1.152 1.15 1.152M1070.66 134.85v-13.829c0-.628-.21-1.047-.68-1.414-2.72-2.147-6.28-3.351-11.52-3.351-10.84 0-18.38 7.018-18.38 18.908 0 11.576 7.64 18.804 18.38 18.804 4.3 0 7.81-1.467 10.53-3.404.63-.471.47-1.153.05-1.624l-2.15-2.2c-.47-.472-1.04-.419-1.62 0-1.62 1.098-4.09 1.937-6.81 1.937-8.64 0-12.2-7.176-12.26-13.46 0-6.6 3.3-13.671 12.26-13.671 4.14 0 5.66.785 6.65 1.675v7.961h-5.66c-.73 0-1.15.421-1.15 1.153l-.05 2.515c0 .732.42 1.153 1.15 1.153h10.11c.74 0 1.15-.421 1.15-1.153M1087.7 122.96h4.03c.73 0 1.15-.419 1.15-1.205v-3.771c0-.786-.42-1.206-1.15-1.206h-4.03c-.74 0-1.21.42-1.21 1.206v3.771c0 .786.47 1.205 1.21 1.205" style="fill:#84bc41;fill-opacity:1;fill-rule:nonzero;stroke:none" transform="matrix(.7683 0 0 -.7683 -73.347 425.906)"/><path d="M251.611 239.921h-33.565v89.012c0 2.827-1.658 4.492-4.484 4.492h-16.953c-2.826 0-4.484-1.665-4.484-4.492V221.656c0-2.834 1.658-4.493 4.484-4.493h47.029c2.659 0 4.479.837 5.977 4.155l5.322 11.96c.33 1.16.83 2.157.83 3.149 0 1.834-1.33 3.494-4.156 3.494M478.59 238.262h-18.28v28.065h18.78c9.139 0 14.455-6.151 14.455-13.955 0-8.296-6.153-14.11-14.955-14.11m-18.28 74.403 18.28-.161c8.311 0 12.957-5.485 12.957-12.957 0-7.312-5.975-12.958-12.457-13.127h-18.78zm42.044-35.208c8.472 5.637 13.787 14.278 13.787 25.078 0 20.092-14.285 30.884-34.225 30.884h-41.045c-2.827 0-4.486-1.66-4.486-4.479V221.657c0-2.826 1.659-4.486 4.486-4.486h41.045c21.598 0 37.052 11.79 37.052 33.541 0 12.459-6.482 21.099-16.614 26.745M815.403 257.779v71.154a4.49 4.49 0 0 1-4.485 4.492h-16.944a4.486 4.486 0 0 1-4.486-4.484v-71.162a4.625 4.625 0 0 1 4.625-4.624h16.667a4.623 4.623 0 0 1 4.623 4.624M330.868 254.703l12.627 31.89 12.466-31.89zm17.282 76.722c-1.159 2.334-2.826 3.656-4.655 3.656-1.82 0-3.487-1.322-4.646-3.656L290.99 222.482c-.33-.669-.499-1.658-.499-2.158 0-1.836 1.498-3.157 3.986-3.157h17.781c2.328 0 4.317 1.167 5.154 3.326l5.483 13.779h41.047l5.314-13.779c.83-2.159 2.659-3.326 5.147-3.326h18.28c2.496 0 3.986 1.321 3.986 3.157 0 .5-.161 1.489-.499 2.158zM1161.87 333.424h-64.14c-2.83 0-4.49-1.66-4.49-4.486V221.654c0-2.826 1.66-4.486 4.49-4.486h64.14c2.82 0 4.48 1.66 4.48 4.486v13.119c0 2.818-1.66 4.647-4.48 4.647h-42.72v27.904h34.41c2.82 0 4.48 1.658 4.48 4.486v12.619c0 2.818-1.66 4.654-4.48 4.654h-34.41v22.082h42.72c2.82 0 4.48 1.836 4.48 4.654v13.119c0 2.826-1.66 4.486-4.48 4.486M631.793 333.424h-64.141c-2.818 0-4.486-1.66-4.486-4.486V221.654c0-2.826 1.668-4.486 4.486-4.486h64.141c2.819 0 4.486 1.66 4.486 4.486v13.119c0 2.818-1.667 4.647-4.486 4.647h-42.704v27.904h34.394c2.827 0 4.485 1.658 4.485 4.486v12.619c0 2.818-1.658 4.654-4.485 4.654h-34.394v22.082h42.704c2.819 0 4.486 1.836 4.486 4.654v13.119c0 2.826-1.667 4.486-4.486 4.486M1047.54 333.424h-73.938c-2.828 0-4.486-1.66-4.486-4.486v-13.119c0-2.818 1.658-4.654 4.486-4.654h24.094v-89.511c0-2.826 1.658-4.486 4.484-4.486h16.78c2.82 0 4.66 1.66 4.66 4.486v89.511h23.92c2.82 0 4.49 1.836 4.49 4.654v13.119c0 2.826-1.67 4.486-4.49 4.486M1303.44 333.424h-16.78c-2.83 0-4.65-1.66-4.65-4.486v-59.295l-62.82 63.289c-1.49 1.483-2.65 2.151-4.32 2.151-2.49 0-3.98-1.828-3.98-4.317V221.654c0-2.826 1.66-4.486 4.48-4.486h16.79c2.82 0 4.64 1.66 4.64 4.486v59.288l62.65-63.282c1.5-1.491 2.83-2.15 4.32-2.15 2.66 0 4.16 1.82 4.16 4.316v109.112c0 2.826-1.67 4.486-4.49 4.486M743.789 239.421H706.73v89.51c0 2.828-1.659 4.494-4.485 4.494h-16.952c-2.819 0-4.477-1.666-4.477-4.494V221.656c0-2.827 1.658-4.494 4.477-4.494h58.496c2.819 0 4.486 1.667 4.486 4.494v13.11c0 2.826-1.667 4.655-4.486 4.655M889.021 303.366c0 5.307 4.647 9.962 12.956 9.962 7.313 0 11.967-2.826 15.293-5.153 2.657-1.66 5.147-.992 6.475.498l7.312 10.63c.668 1.168.999 2.159.999 3.156 0 .661-.169 1.829-1.499 3.328-3.487 3.318-14.455 9.293-29.408 9.293-20.939 0-38.381-11.46-38.381-33.043 0-35.378 48.358-34.548 48.358-52.482 0-5.983-4.494-10.969-15.293-10.969-10.637 0-16.789 3.825-22.097 7.65-1.997 1.322-4.325 2.152-6.321-.675l-7.973-11.62c-.661-1.161-.997-2.16-.997-3.326 0-.991.336-1.99 1.327-3.149 4.156-4.325 16.123-11.96 36.561-11.96 26.084 0 42.366 12.619 42.366 34.709 0 36.538-49.678 34.878-49.678 53.151M1361.95 329.949h2.97c2.43 0 3.6-1.26 3.6-2.881 0-1.444-1.08-2.788-3.6-2.788h-2.97zm6.84-8.011c2.07.982 3.61 2.697 3.52 5.13 0 3.333-2.71 6.122-7.75 6.122h-4.86c-.9 0-1.26-.361-1.26-1.076v-18.018c0-.807.36-1.167 1.26-1.167h1.08c.63 0 1.17.36 1.17 1.167v6.943h3.42l3.78-7.297c.27-.629.72-.813 1.26-.813h1.54c1.16 0 1.34.629.99 1.444zm-3.87-13.787c-8.37 0-14.59 6.935-14.59 14.861 0 7.928 6.22 14.686 14.59 14.686 8.29 0 14.58-6.758 14.58-14.686 0-7.926-6.29-14.861-14.58-14.861m0 33.504c-10.45 0-18.91-8.373-18.91-18.643 0-10.26 8.46-18.725 18.91-18.725s18.82 8.465 18.82 18.725c0 10.27-8.37 18.643-18.82 18.643" style="fill:#474c5b;fill-opacity:1;fill-rule:nonzero;stroke:none" transform="matrix(.7683 0 0 -.7683 -73.347 425.906)"/><path d="M789.486 234.954V221.72a4.56 4.56 0 0 1 4.555-4.554h16.874a4.48 4.48 0 0 1 4.486 4.486v13.302a4.62 4.62 0 0 1-4.625 4.623h-16.667a4.617 4.617 0 0 1-4.623-4.623" style="fill:#84bc41;fill-opacity:1;fill-rule:nonzero;stroke:none" transform="matrix(.7683 0 0 -.7683 -73.347 425.906)"/></svg>