<svg xmlns="http://www.w3.org/2000/svg" width="1000" height="500" viewBox="0 0 1000 500"><defs><clipPath id="a" clipPathUnits="userSpaceOnUse"><path d="M292 267h7v3h-7z"/></clipPath><clipPath id="b" clipPathUnits="userSpaceOnUse"><path d="M292.336 269.746c0-1.058 0-1.793-.004-2.68l6.301-.011c.679 2.441.531 2.664-1.871 2.683-1.403.008-2.797.004-4.426.008"/></clipPath><clipPath id="c" clipPathUnits="userSpaceOnUse"><path d="M0 0h751v376H0Z"/></clipPath><clipPath id="d" clipPathUnits="userSpaceOnUse"><path d="M0 0h751v376H0Z"/></clipPath><clipPath id="e" clipPathUnits="userSpaceOnUse"><path d="M0 0h751v376H0Z"/></clipPath><clipPath id="f" clipPathUnits="userSpaceOnUse"><path d="M0 0h751v376H0Z"/></clipPath><clipPath id="g" clipPathUnits="userSpaceOnUse"><path d="M0 0h751v376H0Z"/></clipPath><clipPath id="h" clipPathUnits="userSpaceOnUse"><path d="M0 0h751v376H0Z"/></clipPath><clipPath id="i" clipPathUnits="userSpaceOnUse"><path d="M0 0h751v376H0Z"/></clipPath><clipPath id="j" clipPathUnits="userSpaceOnUse"><path d="M0 0h751v376H0Z"/></clipPath><clipPath id="k" clipPathUnits="userSpaceOnUse"><path d="M0 0h751v376H0Z"/></clipPath><clipPath id="l" clipPathUnits="userSpaceOnUse"><path d="M0 0h751v376H0Z"/></clipPath><clipPath id="m" clipPathUnits="userSpaceOnUse"><path d="M0 0h751v376H0Z"/></clipPath><clipPath id="n" clipPathUnits="userSpaceOnUse"><path d="M0 0h751v376H0Z"/></clipPath><clipPath id="o" clipPathUnits="userSpaceOnUse"><path d="M0 0h751v376H0Z"/></clipPath><clipPath id="p" clipPathUnits="userSpaceOnUse"><path d="M0 0h751v376H0Z"/></clipPath><clipPath id="q" clipPathUnits="userSpaceOnUse"><path d="M0 0h751v376H0Z"/></clipPath><clipPath id="r" clipPathUnits="userSpaceOnUse"><path d="M0 0h751v376H0Z"/></clipPath><clipPath id="s" clipPathUnits="userSpaceOnUse"><path d="M0 0h751v376H0Z"/></clipPath></defs><g clip-path="url(#a)" transform="scale(1.33333)"><g clip-path="url(#b)"><g clip-path="url(#c)"><path d="M0 0h751v376H0Z" style="fill:#000;fill-opacity:1;fill-rule:nonzero;stroke:none"/></g></g></g><g clip-path="url(#d)" transform="scale(1.33333)"><path d="M367.172 91.855c3.707.649 7.48 1.067 11.117 2.004 12.699 3.27 23.125 10.137 31.34 20.348.277.344.527.715.906 1.227l-11.09 8.832c-16.019-20.262-42.968-21.524-60.332-9.766-17.117 11.594-24.211 33.652-16.758 52.914 7.465 19.285 27.618 31.188 47.707 28.172 18.602-2.785 36.2-19.102 37.243-34.664-14.36.031-28.707.066-43.192.098-.004-2.993-.015-5.829-.023-8.801 19.375-.047 38.66-.086 58.371-.133-.211 2.555-.258 5.094-.652 7.57-4.016 25.129-22.34 44.114-47.348 49.153-31.695 6.382-63.543-15.352-69.09-47.141-5.695-32.629 14.926-62.52 47.484-68.809 2.067-.398 4.157-.664 6.235-.988 2.695-.004 5.39-.016 8.082-.016" style="fill:#184b46;fill-opacity:1;fill-rule:nonzero;stroke:none"/></g><g clip-path="url(#e)" transform="scale(1.33333)"><path d="M288.258 92.031c-.024 5.383-.055 10.762-.078 16.145-.082 20.363-.129 40.734-.254 61.101-.141 23.356-19.785 41.934-43.559 41.246-19.941-.578-37.066-15.89-39.828-35.648-.23-1.641-.391-3.309-.394-4.969-.075-20.246-.11-40.488-.157-60.73 0-.696 0-1.391-.004-2.211 4.891-.016 9.602-.024 14.637-.039 0 .789.004 1.59.008 2.39.043 19.543.066 39.082.144 58.622.028 8.527 3.02 15.859 9.649 21.328 8.695 7.179 18.523 8.675 28.769 3.988 10.235-4.68 15.61-13.063 15.848-24.324.234-10.758.016-21.524.039-32.285.035-14.86.11-29.719.164-44.579z" style="fill:#184b46;fill-opacity:1;fill-rule:nonzero;stroke:none"/></g><g clip-path="url(#f)" transform="scale(1.33333)"><path d="m81.734 141.629-13.726 68.785c-4.625.008-9.098.024-13.813.031 7.043-39.14 14.067-78.172 21.086-117.211.149-.062.305-.121.453-.179.438.672.957 1.308 1.297 2.031 11.957 25.473 23.895 50.953 35.84 76.43 2.953 6.304 5.918 12.609 9.094 19.386 15.168-32.746 30.152-65.086 45.14-97.433q.194.028.387.062c7.231 38.824 14.461 77.649 21.731 116.672-4.067.012-7.965.059-11.864.008-1.195-.02-1.82-.688-2.086-2.027-3.019-15.434-6.128-30.86-9.211-46.286-1.324-6.64-2.632-13.289-3.964-19.945-.071-.355-.274-.683-.539-1.348a3604 3604 0 0 0-3.743 8.043c-9.191 19.848-18.394 39.688-27.535 59.559-.734 1.602-1.566 2.293-3.402 2.207-3.453-.16-6.926-.094-10.387.008-1.273.039-1.902-.356-2.457-1.535-9.582-20.371-19.219-40.711-28.844-61.059-.992-2.094-2.011-4.183-3.015-6.273-.141.015-.297.047-.442.074" style="fill:#184b46;fill-opacity:1;fill-rule:nonzero;stroke:none"/></g><g clip-path="url(#g)" transform="scale(1.33333)"><path d="M499.219 189.137c15.117-32.383 30.093-64.457 45.07-96.528.133 0 .254.004.391.004 7.23 38.532 14.468 77.063 21.73 115.774-4.129.008-8.129.062-12.125.008-1.488-.024-1.695-1.282-1.926-2.438-3.144-15.742-6.304-31.48-9.461-47.223-1.179-5.89-2.343-11.785-3.531-17.675-.097-.493-.305-.957-.574-1.797-1.488 3.179-2.84 6.058-4.184 8.941-9.168 19.645-18.351 39.289-27.488 58.953-.539 1.164-1.18 1.574-2.465 1.543a218 218 0 0 0-10.965.028c-1.312.039-1.898-.457-2.441-1.594-10.344-21.781-20.734-43.543-31.117-65.301-.262-.547-.567-1.066-1.094-2.035-4.684 23.297-9.273 46.09-13.863 68.926-4.633.015-9.106.023-13.813.035 7.043-38.844 14.067-77.574 21.094-116.309.156-.078.305-.152.457-.234.406.601.906 1.16 1.215 1.808 10.859 22.957 21.699 45.915 32.547 68.879 3.847 8.153 7.711 16.305 11.566 24.453.238.5.535.981.977 1.782" style="fill:#184b46;fill-opacity:1;fill-rule:nonzero;stroke:none"/></g><g clip-path="url(#h)" transform="scale(1.33333)"><path d="M636.773 118.48c-11.597 24.918-22.972 49.375-34.461 74.063 23.25-.055 46.094-.109 69.258-.16-11.59-24.613-23.07-48.988-34.797-73.903m-58.636 88.7 47.183-101.391c4.825 2.047 9.586 3.899 14.192 6.082 2.203 1.047 3.847 1.008 5.613-.703 1.184-1.141 2.629-2.012 4.125-3.129a306953 306953 0 0 0 46.555 98.867c-39.231.094-78.282.184-117.668.274" style="fill:#184b46;fill-opacity:1;fill-rule:nonzero;stroke:none"/></g><g clip-path="url(#i)" transform="scale(1.33333)"><path d="M306.582 277.418c-3.906-8.301-7.691-16.324-11.672-24.773l-11.539 24.828c7.879-.02 15.34-.032 23.211-.055m-31.344 4.926c5.317-11.426 10.532-22.637 15.809-33.985 1.156.485 2.168.844 3.125 1.329 1.68.839 3.308 1.539 4.859-.754l15.696 33.324c-13.27.027-26.231.054-39.489.086" style="fill:#184b46;fill-opacity:1;fill-rule:nonzero;stroke:none"/></g><g clip-path="url(#j)" transform="scale(1.33333)"><path d="M508.07 264.445c4.016-.004 7.856.184 11.66-.086 3.254-.23 5.504-3.144 5.309-6.199-.203-3.187-2.824-5.605-6.137-5.637-1.601-.019-3.199.008-4.8.004-2.02.004-4.036.012-6.063.012.016 4.098.023 7.863.031 11.906M522.418 269c2.809 4.168 5.578 8.293 8.582 12.754-2.086.004-3.793.09-5.477-.043-.488-.039-1.043-.641-1.367-1.117-2.179-3.239-4.379-6.473-6.414-9.801-.82-1.344-1.762-1.793-3.269-1.707-2.039.121-4.082.039-6.391.043.008 4.25.02 8.367.027 12.57-1.894 0-3.519.008-5.238.012-.027-11.305-.051-22.488-.078-33.676.098-.078.195-.234.289-.234 5.895.027 11.801-.153 17.68.168 4.664.258 7.621 3.219 8.898 7.578 1.262 4.297.156 8.144-3.289 11.101-1.09.942-2.5 1.508-3.953 2.352" style="fill:#184b46;fill-opacity:1;fill-rule:nonzero;stroke:none"/></g><g clip-path="url(#k)" transform="scale(1.33333)"><path d="M166.992 265.254c3.953-.008 7.668.137 11.367-.074 3.11-.172 5.364-2.696 5.547-5.664.164-2.77-1.98-5.848-4.828-6.059-3.996-.293-8.023-.059-12.113-.047.008 3.969.019 7.781.027 11.844m-5.25-16.43c6.293-.015 12.496-.293 18.672.051 4.152.23 7.754 4.359 8.414 8.602.723 4.652-1.437 9.132-5.394 11.148-.684.348-1.391.629-2.274 1.016 2.84 4.226 5.641 8.382 8.672 12.894-2.051.004-3.754.09-5.434-.043-.492-.035-1.062-.605-1.378-1.078-2.286-3.398-4.465-6.867-6.809-10.219-.453-.644-1.465-1.179-2.258-1.242-2.223-.164-4.465-.051-6.98-.043.007 4.246.019 8.352.031 12.57-1.863 0-3.438.008-5.184.012-.027-11.219-.05-22.445-.078-33.668" style="fill:#184b46;fill-opacity:1;fill-rule:nonzero;stroke:none"/></g><g clip-path="url(#l)" transform="scale(1.33333)"><path d="M235.188 278.293c6.808.121 12.195-5.332 12.332-12.473.14-7.375-5.02-12.953-12.11-13.093-7.34-.145-12.699 5.082-12.836 12.543-.14 7.375 5.199 12.89 12.614 13.023m-.211-30.461c10.273-.031 17.8 7.387 17.82 17.574.015 10.207-7.57 17.731-17.899 17.739-10.023.011-17.55-7.536-17.589-17.622-.036-10.25 7.355-17.652 17.668-17.691" style="fill:#184b46;fill-opacity:1;fill-rule:nonzero;stroke:none"/></g><g clip-path="url(#m)" transform="scale(1.33333)"><path d="M336.602 272.621c1.644-.496 3.16-.957 4.757-1.441.399.664.739 1.261 1.106 1.84 2.957 4.714 9.437 6.64 14.183 4.183 1.778-.922 3.254-2.203 3.254-4.387-.004-2.246-1.582-3.464-3.468-4.144-3.43-1.231-6.934-2.274-10.383-3.453-1.262-.43-2.547-.903-3.696-1.567-4.796-2.773-5.535-8.593-1.656-12.57 3.66-3.754 10.375-4.746 16.192-2.281 3.269 1.39 5.871 3.57 7.425 7.164-1.445.426-2.761.937-4.128 1.152-.454.071-1.161-.515-1.528-.98-2.652-3.309-7.293-4.918-11.207-3.539-1.25.437-2.492 1.386-3.301 2.437-1.289 1.684-.523 3.906 1.711 4.852 2.524 1.074 5.203 1.785 7.797 2.699 2.289.801 4.61 1.551 6.832 2.523 6.36 2.782 5.75 10.266 2.227 13.825-6.5 6.566-22.172 5.32-26.117-6.313" style="fill:#184b46;fill-opacity:1;fill-rule:nonzero;stroke:none"/></g><g clip-path="url(#n)" transform="scale(1.33333)"><path d="M585.66 255.391c-1.539.468-2.789.976-4.09 1.191-.476.082-1.238-.383-1.586-.824-2.648-3.367-7.164-4.946-11.156-3.742a7.6 7.6 0 0 0-2.219 1.097c-2.55 1.848-2.371 5.016.5 6.282 2.559 1.125 5.325 1.793 7.969 2.742 2.461.883 5.02 1.625 7.289 2.879 4.485 2.464 5.668 7.894 2.633 12.023-3.703 5.039-9.074 5.902-14.805 5.094-5.98-.844-10.105-4.195-12.504-9.953 1.7-.532 3.219-.996 4.914-1.528.305.543.602 1.086.918 1.621 2.579 4.387 8.145 6.539 12.989 4.954 1.011-.336 2.019-.86 2.843-1.528 2.583-2.125 2.321-5.332-.593-6.953-1.332-.738-2.817-1.203-4.262-1.711-3.438-1.203-7.016-2.078-10.309-3.594-4.808-2.199-6.273-7.746-3.164-11.699 1.215-1.543 2.977-2.89 4.778-3.699 5.91-2.672 14.125-.465 18.113 4.621.609.789 1.078 1.688 1.742 2.727" style="fill:#184b46;fill-opacity:1;fill-rule:nonzero;stroke:none"/></g><g clip-path="url(#o)" transform="scale(1.33333)"><path d="m448.145 248.105 24.226-.054.012 4.48c-6.278.012-12.594.028-19.102.043-.058.809-.144 1.418-.14 2.024.007 6.859.066 13.711.007 20.566-.015 1.59.442 2.094 2.059 2.063 4.938-.106 9.879-.055 14.816-.071.758 0 1.516-.004 2.415-.008 0 1.649 0 3.075.011 4.625-8.066.024-16.062.039-24.222.059-.032-11.152-.055-22.316-.079-33.727" style="fill:#184b46;fill-opacity:1;fill-rule:nonzero;stroke:none"/></g><g clip-path="url(#p)" transform="scale(1.33333)"><path d="M228.871 155.188c11.465-.024 22.789-.051 34.254-.079.012 3.203.016 6.301.02 9.586-11.387.024-22.75.051-34.25.078-.012-3.132-.02-6.238-.024-9.585" style="fill:#184b46;fill-opacity:1;fill-rule:nonzero;stroke:none"/></g><g clip-path="url(#q)" transform="scale(1.33333)"><path d="M407.629 281.945c-1.938.008-3.52.008-5.254.012-.02-9.684-.043-19.266-.066-29.078-4.012.008-7.887.019-11.914.027 0-1.644 0-3.066-.012-4.64 9.64-.02 19.222-.043 28.929-.067 0 1.449.012 2.828.012 4.453l-11.758.024c.02 9.863.043 19.496.063 29.269" style="fill:#184b46;fill-opacity:1;fill-rule:nonzero;stroke:none"/></g><g clip-path="url(#r)" transform="scale(1.33333)"><path d="M468.559 266.324c-4.032.016-7.844.024-11.801.028 0-.922-.004-1.766-.004-2.719l11.797-.024c0 .868 0 1.719.008 2.715" style="fill:#184b46;fill-opacity:1;fill-rule:nonzero;stroke:none"/></g><g clip-path="url(#s)" transform="scale(1.33333)"><path d="M647.777 154.379c0 3.094.012 6.199.02 9.418-.328.066-.625.176-.926.176-6.598.031-13.191.031-19.789.086-1.137.003-1.617-.356-1.59-1.543.051-2.305.024-4.606-.004-6.907-.015-.918.246-1.433 1.285-1.429 6.793.015 13.582 0 20.372 0 .175 0 .355.109.632.199" style="fill:#184b46;fill-opacity:1;fill-rule:nonzero;stroke:none"/></g></svg>