<svg xmlns="http://www.w3.org/2000/svg" xml:space="preserve" width="1000" height="500" viewBox="0 0 264.583 132.292"><defs><clipPath id="a" clipPathUnits="userSpaceOnUse"/><clipPath id="b" clipPathUnits="userSpaceOnUse"/><clipPath id="c" clipPathUnits="userSpaceOnUse"/><clipPath id="d" clipPathUnits="userSpaceOnUse"/><clipPath id="e" clipPathUnits="userSpaceOnUse"/><clipPath id="f" clipPathUnits="userSpaceOnUse"/><clipPath id="g" clipPathUnits="userSpaceOnUse"/><clipPath id="h" clipPathUnits="userSpaceOnUse"/><clipPath id="i" clipPathUnits="userSpaceOnUse"/><clipPath id="j" clipPathUnits="userSpaceOnUse"/><clipPath id="k" clipPathUnits="userSpaceOnUse"/><clipPath id="l" clipPathUnits="userSpaceOnUse"/><clipPath id="m" clipPathUnits="userSpaceOnUse"/><clipPath id="n" clipPathUnits="userSpaceOnUse"/><clipPath id="o" clipPathUnits="userSpaceOnUse"/><clipPath id="p" clipPathUnits="userSpaceOnUse"/><clipPath id="q" clipPathUnits="userSpaceOnUse"/></defs><g clip-path="url(#a)" transform="matrix(1.1717 0 0 -1.1717 129.548 32.623)"><path d="M0 0c1.109-.195 2.238-.319 3.325-.6 3.799-.978 6.918-3.032 9.375-6.086.083-.103.158-.214.271-.367L9.654-9.695C4.862-3.635-3.199-3.257-8.393-6.774c-5.121-3.468-7.242-10.067-5.013-15.828 2.233-5.769 8.261-9.33 14.271-8.428 5.564.834 10.828 5.714 11.14 10.37l-12.92-.03-.007 2.633 17.461.04c-.064-.764-.078-1.524-.196-2.265-1.201-7.517-6.682-13.196-14.163-14.703-9.481-1.909-19.007 4.592-20.667 14.102-1.703 9.76 4.465 18.701 14.204 20.582.618.119 1.243.199 1.865.296z" style="fill:#184b46;fill-opacity:1;fill-rule:nonzero;stroke:none"/></g><g clip-path="url(#b)" transform="matrix(1.1717 0 0 -1.1717 101.889 32.685)"><path d="m0 0-.023-4.829c-.025-6.092-.039-12.185-.076-18.278-.042-6.986-5.919-12.543-13.03-12.338-5.965.173-11.088 4.754-11.914 10.664-.069.491-.117.99-.118 1.486-.022 6.056-.032 12.112-.046 18.167l-.002.661 4.379.011.002-.715c.013-5.845.02-11.69.043-17.535.009-2.551.904-4.744 2.886-6.38 2.601-2.147 5.541-2.595 8.606-1.193 3.062 1.4 4.669 3.907 4.741 7.276.07 3.218.005 6.438.012 9.658.01 4.445.032 8.889.049 13.334z" style="fill:#184b46;fill-opacity:1;fill-rule:nonzero;stroke:none"/></g><g clip-path="url(#c)" transform="matrix(1.1717 0 0 -1.1717 29.504 50.069)"><path d="m0 0-4.106-20.575-4.131-.01 6.307 35.062.136.054c.131-.202.286-.392.387-.608C2.17 6.303 5.741-1.319 9.314-8.94c.884-1.886 1.77-3.771 2.72-5.799l13.503 29.146.116-.019 6.501-34.9c-1.217-.004-2.383-.018-3.549-.002-.358.005-.545.205-.624.606-.904 4.617-1.834 9.231-2.756 13.845-.396 1.987-.787 3.976-1.186 5.966-.021.107-.081.205-.161.404-.399-.857-.76-1.631-1.119-2.406-2.75-5.937-5.503-11.872-8.237-17.816-.22-.479-.468-.686-1.017-.66-1.033.048-2.072.028-3.108-.002-.38-.012-.568.106-.734.459C6.796-14.025 3.914-7.94 1.034-1.854.738-1.227.433-.602.132.023A2 2 0 0 1 0 0" style="fill:#184b46;fill-opacity:1;fill-rule:nonzero;stroke:none"/></g><g clip-path="url(#d)" transform="matrix(1.1717 0 0 -1.1717 175.829 66.72)"><path d="m0 0 13.483 28.875.116-.002L20.1-5.758c-1.236-.003-2.432-.019-3.627-.002-.445.007-.507.383-.576.729q-1.413 7.063-2.83 14.125c-.353 1.763-.702 3.526-1.057 5.288-.029.147-.091.286-.172.537-.445-.951-.849-1.812-1.251-2.674C7.844 6.368 5.097.492 2.364-5.39c-.161-.348-.353-.471-.737-.462a64 64 0 0 1-3.28-.008c-.393-.011-.568.137-.73.477-3.094 6.515-6.202 13.025-9.308 19.534-.078.163-.17.319-.328.608l-4.146-20.618-4.132-.01 6.31 34.791q.069.035.136.071c.122-.181.272-.348.364-.542q4.87-10.3 9.735-20.603C-2.601 5.409-1.445 2.971-.292.533-.22.383-.132.24 0 0" style="fill:#184b46;fill-opacity:1;fill-rule:nonzero;stroke:none"/></g><g clip-path="url(#e)" transform="matrix(1.1717 0 0 -1.1717 224.04 41.955)"><path d="m0 0-10.308-22.154 20.717.048zm-17.54-26.532L-3.426 3.796C-1.982 3.184-.558 2.63.819 1.977c.66-.313 1.151-.301 1.68.21.354.342.786.602 1.233.936 4.644-9.866 9.27-19.688 13.926-29.574-11.735-.028-23.416-.055-35.198-.081" style="fill:#184b46;fill-opacity:1;fill-rule:nonzero;stroke:none"/></g><g clip-path="url(#f)" transform="matrix(1.1717 0 0 -1.1717 108.312 97.662)"><path d="m0 0-3.491 7.411-3.452-7.427zm-9.376-1.473 4.729 10.166c.346-.145.649-.253.935-.397.502-.252.989-.461 1.453.225l4.695-9.968c-3.969-.008-7.846-.016-11.812-.026" style="fill:#184b46;fill-opacity:1;fill-rule:nonzero;stroke:none"/></g><g clip-path="url(#g)" transform="matrix(1.1717 0 0 -1.1717 178.931 93.115)"><path d="M0 0c1.202.002 2.35-.054 3.488.026.973.069 1.647.941 1.588 1.855-.061.953-.845 1.676-1.836 1.686-.479.006-.957-.002-1.436-.001q-.905-.003-1.813-.004C-.004 2.336-.002 1.21 0 0m4.292-1.362 2.567-3.815c-.624-.001-1.134-.027-1.638.013-.146.011-.312.192-.409.334-.652.969-1.31 1.936-1.919 2.932-.245.402-.527.536-.978.51C1.306-1.424.694-1.399.004-1.4l.008-3.761c-.566 0-1.052-.002-1.567-.003l-.023 10.073c.029.024.058.07.087.07 1.763-.008 3.529.046 5.288-.05 1.395-.077 2.28-.963 2.662-2.267.377-1.285.046-2.436-.984-3.321-.326-.281-.748-.45-1.183-.703" style="fill:#184b46;fill-opacity:1;fill-rule:nonzero;stroke:none"/></g><g clip-path="url(#h)" transform="matrix(1.1717 0 0 -1.1717 59.387 93.398)"><path d="M0 0c1.182.002 2.294-.041 3.4.022.93.052 1.604.806 1.659 1.694.05.829-.592 1.75-1.444 1.813-1.195.088-2.4.017-3.623.014zm-1.57 4.915c1.882.004 3.738.087 5.585-.015 1.242-.069 2.319-1.305 2.517-2.573.216-1.392-.43-2.733-1.614-3.335-.204-.104-.416-.188-.68-.304l2.594-3.857c-.614-.002-1.123-.027-1.625.012-.147.011-.318.182-.413.323-.683 1.016-1.335 2.054-2.037 3.057-.135.192-.438.353-.675.371-.665.049-1.335.015-2.088.013l.009-3.76c-.557 0-1.028-.002-1.55-.003z" style="fill:#184b46;fill-opacity:1;fill-rule:nonzero;stroke:none"/></g><g clip-path="url(#i)" transform="matrix(1.1717 0 0 -1.1717 83.288 97.968)"><path d="M0 0c2.037-.036 3.649 1.595 3.69 3.731.041 2.206-1.502 3.874-3.623 3.916-2.196.044-3.798-1.52-3.839-3.752C-3.814 1.689-2.217.04 0 0m-.062 9.111c3.073.01 5.324-2.209 5.33-5.256C5.273.801 3.003-1.449-.086-1.452-3.084-1.455-5.336.802-5.348 3.82c-.01 3.066 2.201 5.28 5.286 5.291" style="fill:#184b46;fill-opacity:1;fill-rule:nonzero;stroke:none"/></g><g clip-path="url(#j)" transform="matrix(1.1717 0 0 -1.1717 118.834 95.98)"><path d="m0 0 1.423.431c.119-.199.221-.377.33-.55.885-1.41 2.823-1.986 4.243-1.252.532.276.974.66.973 1.313-.001.672-.473 1.036-1.037 1.239-1.026.369-2.074.68-3.106 1.033-.378.129-.762.27-1.105.469-1.435.83-1.656 2.571-.496 3.76 1.095 1.123 3.104 1.42 4.843.682.979-.415 1.757-1.068 2.222-2.142-.433-.128-.826-.281-1.235-.345-.136-.021-.347.154-.457.293-.794.99-2.182 1.471-3.353 1.059a2.27 2.27 0 0 1-.987-.73c-.386-.503-.156-1.168.512-1.451.755-.321 1.556-.534 2.332-.807.685-.24 1.379-.464 2.044-.755 1.902-.832 1.72-3.071.666-4.135C5.867-3.853 1.18-3.48 0 0" style="fill:#184b46;fill-opacity:1;fill-rule:nonzero;stroke:none"/></g><g clip-path="url(#k)" transform="matrix(1.1717 0 0 -1.1717 206.126 89.94)"><path d="M0 0c-.46-.141-.834-.292-1.223-.357-.143-.024-.37.115-.474.247C-2.489.897-3.84 1.369-5.034 1.009a2.3 2.3 0 0 1-.664-.328c-.763-.553-.71-1.501.149-1.879.766-.337 1.593-.536 2.384-.82.736-.265 1.502-.487 2.181-.861C.357-3.617.711-5.241-.197-6.476-1.305-7.983-2.911-8.242-4.626-8c-1.789.253-3.022 1.255-3.74 2.978l1.47.456c.091-.162.18-.324.275-.484.771-1.313 2.436-1.957 3.885-1.482.302.1.604.257.85.457.773.635.695 1.595-.177 2.079-.398.221-.842.361-1.275.512-1.028.36-2.099.622-3.084 1.075-1.438.658-1.876 2.318-.946 3.5.363.461.891.865 1.429 1.107 1.768.799 4.225.138 5.418-1.383C-.338.579-.198.311 0 0" style="fill:#184b46;fill-opacity:1;fill-rule:nonzero;stroke:none"/></g><g clip-path="url(#l)" transform="matrix(1.1717 0 0 -1.1717 157.929 87.388)"><path d="m0 0 7.246.017.004-1.34-5.714-.013c-.018-.242-.043-.424-.042-.606.002-2.051.02-4.101.002-6.152-.004-.475.133-.626.616-.616 1.477.031 2.955.016 4.432.02l.722.003c0-.493.001-.92.003-1.384l-7.245-.017C.015-6.752.008-3.412 0 0" style="fill:#184b46;fill-opacity:1;fill-rule:nonzero;stroke:none"/></g><g clip-path="url(#m)" transform="matrix(1.1717 0 0 -1.1717 81.074 54.821)"><path d="m0 0 10.247.024.006-2.867L.007-2.867z" style="fill:#184b46;fill-opacity:1;fill-rule:nonzero;stroke:none"/></g><g clip-path="url(#n)" transform="matrix(1.1717 0 0 -1.1717 143.728 99.248)"><path d="m0 0-1.572-.003-.02 8.698-3.563-.008-.003 1.388 8.653.019.004-1.331-3.518-.008z" style="fill:#184b46;fill-opacity:1;fill-rule:nonzero;stroke:none"/></g><g clip-path="url(#o)" transform="matrix(1.1717 0 0 -1.1717 165.082 93.774)"><path d="M0 0c-1.205-.004-2.346-.006-3.529-.008l-.002.813 3.529.008c0-.26 0-.514.002-.813" style="fill:#184b46;fill-opacity:1;fill-rule:nonzero;stroke:none"/></g><g clip-path="url(#p)" transform="matrix(1.1717 0 0 -1.1717 227.897 54.537)"><path d="m0 0 .006-2.817c-.098-.02-.187-.053-.276-.053-1.974-.009-3.947-.009-5.92-.025-.34-.002-.484.106-.476.461.016.689.008 1.378-.001 2.066-.004.274.074.429.385.428C-4.25.055-2.22.06-.189.06-.136.06-.083.027 0 0" style="fill:#184b46;fill-opacity:1;fill-rule:nonzero;stroke:none"/></g><g clip-path="url(#q)" transform="matrix(1.1717 0 0 -1.1717 103.319 94.972)"><path d="m0 0-.001.801 1.884.004c.204-.731.159-.797-.559-.803C.904 0 .487.001 0 0" style="fill:#184b46;fill-opacity:1;fill-rule:nonzero;stroke:none"/></g></svg>