<svg xmlns="http://www.w3.org/2000/svg" xml:space="preserve" width="1000" height="500" viewBox="0 0 1000 500"><defs><clipPath id="a" clipPathUnits="userSpaceOnUse"><path d="M0 0h1000v500H0Z"/></clipPath><clipPath id="b" clipPathUnits="userSpaceOnUse"><path d="M0 0h1000v500H0Z"/></clipPath><clipPath id="c" clipPathUnits="userSpaceOnUse"><path d="M0 0h1000v500H0Z"/></clipPath><clipPath id="d" clipPathUnits="userSpaceOnUse"><path d="M0 0h1000v500H0Z"/></clipPath><clipPath id="e" clipPathUnits="userSpaceOnUse"><path d="M0 0h1000v500H0Z"/></clipPath><clipPath id="f" clipPathUnits="userSpaceOnUse"><path d="M0 0h1000v500H0Z"/></clipPath><clipPath id="g" clipPathUnits="userSpaceOnUse"><path d="M0 0h1000v500H0Z"/></clipPath><clipPath id="h" clipPathUnits="userSpaceOnUse"><path d="M0 0h1000v500H0Z"/></clipPath></defs><title>Algrani_Profile_01</title><path d="M389.902 269.388q0 2.953-1.573 4.786-1.57 1.83-4.038 2.836-2.469 1.003-5.536 1.358a51 51 0 0 1-5.908.356h-13.613v-19.5h12.116q3.141 0 6.435.415 3.29.412 5.982 1.477 2.693 1.064 4.414 3.072t1.72 5.2m1.043-58.022-22.885 33.205h-8.676v-33.205h-24.861v83.666h40.194q7.593 0 14.813-1.242t12.952-4.195q5.73-2.955 9.156-7.799 3.423-4.847 3.424-12.053 0-8.51-5.806-14.299-5.805-5.791-16.078-8.272l27.541-35.806z" clip-path="url(#a)" style="fill:#100f0d;fill-opacity:1;fill-rule:nonzero;stroke:none" transform="matrix(1.22106 0 0 -1.25319 -114.72 573.693)"/><path d="M489.942 237.6q0 5.198-4.912 7.208-4.914 2.01-13.102 2.01h-14.142v-19.145h14.292q2.976 0 6.179.414 3.198.413 5.804 1.478 2.603 1.063 4.244 3.012 1.636 1.95 1.637 5.023m-3.424 33.205q-.001 4.255-4.093 6.205c-2.732 1.3-6.774 1.95-12.134 1.95h-12.505v-17.253h13.697q7.144 0 11.09 2.304 3.944 2.304 3.945 6.794m28.881-35.096q0-6.855-3.424-11.522-3.425-4.668-9.082-7.503t-12.876-4.077a87.3 87.3 0 0 0-14.814-1.241h-41.98v83.666h41.98q6.104-.001 12.505-1.006 6.4-1.005 11.613-3.427 5.21-2.422 8.486-6.558c2.181-2.76 3.274-6.263 3.274-10.517q0-6.975-4.763-11.522-4.767-4.55-12.505-6.558v-.237q4.465-.591 8.411-2.186c2.628-1.063 4.914-2.422 6.848-4.077a19.1 19.1 0 0 0 4.614-5.79q1.711-3.31 1.713-7.445" clip-path="url(#b)" style="fill:#100f0d;fill-opacity:1;fill-rule:nonzero;stroke:none" transform="matrix(1.22106 0 0 -1.25319 -114.72 573.693)"/><path d="M532.22 211.365h25.607v83.666H532.22Z" clip-path="url(#c)" style="fill:#100f0d;fill-opacity:1;fill-rule:nonzero;stroke:none" transform="matrix(1.22106 0 0 -1.25319 -114.72 573.693)"/><path d="M624.669 277.778v-66.412h-25.457v66.412h-29.776v17.253h85.007v-17.253z" clip-path="url(#d)" style="fill:#100f0d;fill-opacity:1;fill-rule:nonzero;stroke:none" transform="matrix(1.22106 0 0 -1.25319 -114.72 573.693)"/><path d="M654.262 211.366v83.666h70.863v-17.017h-46.299V262.18h43.768v-16.19h-43.768v-17.37h48.98v-17.254z" clip-path="url(#e)" style="fill:#100f0d;fill-opacity:1;fill-rule:nonzero;stroke:none" transform="matrix(1.22106 0 0 -1.25319 -114.72 573.693)"/><path d="M800.006 269.388q0 2.953-1.573 4.786-1.57 1.83-4.038 2.836-2.47 1.003-5.536 1.358a51 51 0 0 1-5.908.356h-13.613v-19.5h12.116q3.141 0 6.435.415 3.29.412 5.982 1.477 2.693 1.064 4.413 3.072t1.722 5.2m1.042-58.022-22.885 33.205h-8.677v-33.205h-24.86v83.666h40.194q7.592 0 14.813-1.242 7.22-1.241 12.952-4.195 5.729-2.955 9.156-7.799 3.423-4.847 3.424-12.053 0-8.51-5.806-14.299-5.807-5.791-16.08-8.272l27.542-35.806Z" clip-path="url(#f)" style="fill:#100f0d;fill-opacity:1;fill-rule:nonzero;stroke:none" transform="matrix(1.22106 0 0 -1.25319 -114.72 573.693)"/><path d="M252.768 266.753a5.047 5.047 0 1 0 10.089.32 5.047 5.047 0 0 0-10.09-.32m5.046 12.971c-6.822 0-12.352-5.53-12.352-12.352 0-.287.065-.556.084-.837l-38.034-20.714a.84.84 0 0 1-.149-1.372l4.122-5.38a.84.84 0 0 1 .952-.103l36.481 19.867c2.248-2.341 5.393-3.813 8.896-3.813 6.821 0 12.351 5.53 12.351 12.352s-5.53 12.352-12.351 12.352" clip-path="url(#g)" style="fill:#100f0d;fill-opacity:1;fill-rule:nonzero;stroke:none" transform="matrix(1.22106 0 0 -1.25319 -114.72 573.693)"/><path d="M310.34 282.801c-.186.91-1.207 1.387-2.036.969l-14.784-7.453-7.32-3.863c-.244-.28-.417-.617-.392-1.007q.095-1.458.096-2.942c0-25.09-20.338-45.428-45.428-45.428-10.27 0-20.69 3.66-28.458 9.446-.373.278-.863.32-1.274.102l-21.535-11.367c-.718-.378-.887-1.352-.329-1.939 13.895-14.573 33.89-23.277 55.897-21.986 35.174 2.066 64.052 30.35 66.776 65.479.534 6.89.09 13.596-1.213 19.989m-109.212-36.888a45.14 45.14 0 0 0-5.93 26.34c1.75 21.747 19.317 39.522 41.047 41.488 20.026 1.813 37.605-9.41 45.372-26.127.294-.633 1.026-.896 1.646-.573l20.764 10.807a1.24 1.24 0 0 1 .548 1.63c-12.622 26.093-40.57 43.378-72.22 39.874-32.035-3.545-58.098-28.929-62.491-60.858-2.25-16.365 1.164-31.762 8.43-44.716.251-.45.705-.698 1.187-.757l21.586 11.236c.322.48.374 1.113.061 1.656" clip-path="url(#h)" style="fill:#100f0d;fill-opacity:1;fill-rule:nonzero;stroke:none" transform="matrix(1.22106 0 0 -1.25319 -114.72 573.693)"/></svg>