<svg xmlns="http://www.w3.org/2000/svg" xml:space="preserve" width="1000" height="500" viewBox="0 0 264.583 132.292"><path d="M55.646 134.268h264.583V266.56H55.646z" style="opacity:1;fill:#5f89b1;fill-opacity:1;fill-rule:nonzero;stroke-width:1.0055;stroke-linecap:round;stroke-linejoin:round;paint-order:markers fill stroke;stop-color:#000" transform="translate(-55.646 -134.268)"/><path d="M237.189 240.346c-1.04-.093-3.006-.47-3.915-.751-1.274-.394-3.481-1.619-3.481-1.932 0-.09 2.707-4.259 3.064-4.72.01-.013.51.3 1.113.695 2.364 1.544 4.392 2.01 6.68 1.53 1.567-.327 2.51-1.036 3.19-2.397.32-.64.381-.961.442-2.328l.07-1.585-.834.772c-1.14 1.054-3.063 1.76-4.795 1.76-.858 0-2.54-.33-3.483-.682-1.836-.687-3.646-2.305-4.525-4.045-.934-1.85-1.339-4.236-1.062-6.263.353-2.583 1.188-4.416 2.724-5.981 1.817-1.853 3.304-2.476 5.905-2.476 1.379 0 1.77.052 2.683.359 1.36.456 1.909.769 2.925 1.664l.82.722.04-1.133.04-1.133 2.636-.037 2.636-.037v9.555c0 7.767-.037 9.75-.198 10.591-.36 1.882-.85 3.088-1.76 4.324-1.244 1.69-3.008 2.729-5.574 3.287-.897.195-4.198.344-5.342.241zm4.882-14.58c1.04-.544 1.752-1.246 2.212-2.182.319-.65.37-.923.37-1.986 0-.978-.064-1.367-.302-1.883-.376-.817-1.323-1.76-2.263-2.255-.643-.338-.866-.38-2.023-.38s-1.381.042-2.025.38a5.2 5.2 0 0 0-2.178 2.182c-.327.63-.377.884-.38 1.956-.004 1.08.043 1.33.379 2.016.437.89 1.295 1.71 2.325 2.224.588.293.89.348 1.892.348 1.064 0 1.277-.045 1.993-.42zm-141.566 8.176c-3.37-.847-5.456-4.226-4.599-7.447.334-1.254.777-1.988 1.814-3.005l1.005-.985v-19.191l5.033-.003c13.748-.007 18.853-1.339 20.24-5.28.925-2.627.726-6.985-.433-9.46-1.032-2.202-3.067-3.225-7.72-3.88-1.316-.185-8.042-.424-9.656-.344l-1.233.062-.037 1.894-.038 1.894.609.438c1.815 1.304 2.695 3.819 2.077 5.937-.238.816-1.073 2.209-1.564 2.61-1.022.837-2.633 1.477-3.706 1.474-1.47-.003-3.064-.717-4.077-1.826-.749-.82-1.081-1.424-1.362-2.48-.446-1.674.062-3.585 1.328-4.999l.539-.6v-10.527l8.183.069c8.192.068 8.975.11 11.813.628 5.723 1.044 9.254 3.657 10.846 8.027.677 1.857.872 2.81 1.085 5.305.287 3.369-.252 6.857-1.425 9.212-1.122 2.254-3.093 4.132-5.58 5.32-3.108 1.486-6.499 2.142-13.212 2.558a77 77 0 0 1-3.87.135h-1.677v13.125l.463.286c.544.337 1.43 1.269 1.8 1.897l.262.443 10.675-.035 10.675-.035.234-.41a4031 4031 0 0 1 3.559-6.232l1.37-2.397.75-1.301c.282-.49.636-1.106.786-1.37.15-.263.629-1.095 1.063-1.848s.912-1.586 1.062-1.85a3705 3705 0 0 1 3.597-6.3l1.37-2.396.75-1.301c.283-.49.654-1.137.825-1.438s.561-.98.867-1.506l.556-.958-.286-.48a60 60 0 0 1-.558-.96c-.15-.263-1.398-2.42-2.774-4.793s-2.625-4.53-2.775-4.794a181 181 0 0 0-1.634-2.814c-.227-.381-.568-.967-.758-1.302s-.576-1.01-.858-1.499-.635-1.106-.785-1.37a9 9 0 0 0-.376-.616 11 11 0 0 1-.448-.753c-.189-.339-.574-1.017-.856-1.507s-.636-1.105-.786-1.37c-.15-.263-.526-.91-.836-1.437s-.688-1.181-.84-1.452c-.153-.272-.74-1.305-1.305-2.296l-1.027-1.803-16.709.038c-9.19.02-16.801.085-16.914.142s-.272.24-.353.409c-.082.168-1 1.785-2.04 3.592-1.039 1.808-2.012 3.503-2.161 3.767s-.627 1.095-1.061 1.849c-.434.753-.912 1.585-1.062 1.849-.233.41-.62 1.089-2.227 3.903L84 185.853l-2.12 3.698a910 910 0 0 1-2.194 3.834c-.132.226-.518.9-.857 1.496l-.617 1.084.577.97c.316.534 1.428 2.387 2.47 4.12a396 396 0 0 1 2.046 3.424c.155.28.99 1.69 3.777 6.368a864 864 0 0 1 4.54 7.704c.537.923 1.123 1.908 1.3 2.189.178.28.324.548.324.595s.116.248.258.448.356.692.476 1.094c.74 2.493-1.964 4.727-4.285 3.54-.821-.42-1.078-.774-3.198-4.408a1388 1388 0 0 0-2.971-5.067 586 586 0 0 1-1.37-2.328c-.132-.226-.629-1.058-1.105-1.85a82 82 0 0 1-1.013-1.711c-.13-.242-2.068-3.49-7.427-12.446l-1.547-2.585 1.112-1.935 1.35-2.345c.132-.226.747-1.305 1.367-2.397a579 579 0 0 1 2.465-4.314c.435-.753.912-1.585 1.061-1.849.15-.264.997-1.743 1.884-3.287l1.847-3.218 2.776-4.862c.15-.264.627-1.096 1.06-1.85.435-.753.913-1.585 1.063-1.848.392-.69 1.95-3.42 2.228-3.904.13-.225.643-1.126 1.14-2l.904-1.589.928-.087c.51-.049 9.687-.088 20.393-.09 15.408 0 19.495.036 19.605.171.077.094.261.387.41.65.15.264.504.88.786 1.37s.667 1.168.856 1.507c.19.339.391.678.448.753.058.075.241.384.409.685s1.768 3.074 3.559 6.163c1.79 3.088 3.378 5.83 3.528 6.094a450 450 0 0 0 2.276 3.938l.993 1.712.736 1.267c.453.775 1.267 2.191 1.612 2.807.19.34.459.78.599.98s.254.392.254.427.887 1.591 1.97 3.46l1.971 3.397-.24.422-1.102 1.929-2.464 4.314-1.371 2.397-.75 1.3c-.282.49-.67 1.168-.86 1.507-.45.796-.703 1.24-1.331 2.328-.282.49-.636 1.106-.786 1.37s-.629 1.096-1.063 1.849-.92 1.6-1.08 1.883l-.58 1.027c-.16.283-.645 1.13-1.079 1.883l-1.063 1.85c-.15.263-.504.88-.786 1.369-.282.49-.67 1.168-.861 1.507-.46.814-.715 1.26-1.33 2.328a386 386 0 0 0-2.258 3.955c-.564.998-1.136 1.934-1.272 2.08-.241.258-.56.265-12.784.265H107.06l-.682.746c-1.417 1.55-3.877 2.307-5.872 1.805zm3.219-2.267c2.058-1.16 2.888-3.583 1.893-5.531-.548-1.072-1.743-1.98-3.023-2.297-1.239-.306-2.757.243-3.77 1.365-.639.707-.868 1.162-1.028 2.044-.37 2.032.833 3.942 2.983 4.738.113.042.699.057 1.301.033.826-.033 1.23-.12 1.644-.352zm110.593-.21c-3.082-.5-5.451-2.245-6.707-4.936-1.127-2.414-1.257-5.76-.332-8.523.623-1.86 2.055-3.772 3.624-4.837 1.265-.86 2.598-1.226 4.453-1.226 2.473 0 4.242.602 5.388 1.834.183.196.399.357.48.357.103 0 .135-1.272.107-4.211-.023-2.317-.007-4.352.037-4.523l.078-.31 2.839.036 2.839.037.034 12.977.035 12.977h-5.342v-1.165c0-.64-.036-1.164-.08-1.164-.043 0-.336.256-.65.568-.708.703-2.023 1.572-2.68 1.771-1.81.548-2.488.603-4.123.338zm4.738-5.295c1.038-.389 1.747-1.061 2.274-2.158.405-.842.435-1.005.423-2.277-.017-1.514-.17-2.074-.837-3.02-.872-1.238-2.331-1.801-4.312-1.666-1.717.118-3.03.95-3.61 2.29-.406.936-.457 1.201-.457 2.396 0 1.198.054 1.48.46 2.397.41.926 1.307 1.72 2.387 2.112.84.305 2.763.266 3.672-.074zm41.827 5.348c-3.499-.532-5.691-1.79-7.383-4.236-.68-.983-.884-1.393-1.269-2.54-.281-.841-.317-1.2-.309-3.075.01-1.925.044-2.217.367-3.128 1.006-2.829 3.17-4.985 6.014-5.988 2.294-.81 5.383-.839 7.442-.07 2.115.789 4.061 2.863 4.764 5.078.108.338.278.883.378 1.21.116.376.186 1.351.19 2.67l.01 2.077-6.676.035c-7.508.04-6.93-.058-6.41 1.086.357.787 1.238 1.709 2.013 2.108.564.29.83.332 2.099.332 1.418 0 1.472-.014 2.247-.48.437-.263 1.04-.745 1.34-1.07l.546-.59 1.052.77c.578.424 1.465 1.06 1.97 1.412.507.353.923.714.925.8.001.088-.43.562-.962 1.055-1.464 1.354-3.327 2.186-5.702 2.543-1.107.166-1.558.166-2.644 0zm4.407-12.522c-.058-.715-.36-1.336-.928-1.904-1.672-1.671-4.955-1.241-6.156.806-.376.642-.638 1.503-.5 1.641.042.043 1.776.061 3.853.041l3.775-.036zm15.726 12.462c-.565-.095-1.213-.233-1.44-.307-1.56-.505-2.831-1.637-3.357-2.986-.308-.789-.32-.977-.377-5.95-.042-3.644-.105-5.166-.216-5.237-.086-.055-.913-.102-1.838-.103h-1.68l.037-2.226.037-2.226 1.812-.038 1.812-.038.037-2.77.037-2.769h5.752l.069 2.74.069 2.739 2.502.037 2.503.037-.038 2.27-.037 2.269-2.328-.014c-1.281-.007-2.41.04-2.51.105-.148.096-.174.905-.136 4.144.054 4.613.08 4.724 1.214 5.287.741.368 2.26.42 3.144.108.32-.113.605-.205.633-.205.03 0 .051 1.069.051 2.375v2.375l-.719.16c-1.01.223-2.755.434-3.434.415-.315-.01-1.034-.095-1.6-.19zm13.285-.003c-2.392-.325-3.938-.912-5.011-1.9l-.61-.562 1.201-1.3c.66-.715 1.458-1.577 1.772-1.915l.571-.615.593.592c.843.84 1.77 1.28 2.874 1.359 2.035.146 3.266-.315 3.266-1.223 0-.636-.239-.938-1.004-1.27-.736-.32-.97-.386-3.423-.967-2.697-.638-4.221-1.615-4.962-3.18-.313-.663-.353-.917-.349-2.21.007-1.454.107-1.926.62-2.898.452-.855 1.016-1.46 1.892-2.03 1.566-1.02 2.948-1.382 5.309-1.389 2.942-.01 4.998.604 6.579 1.957l.452.388-1.777 1.777-1.777 1.776-.492-.464c-.716-.675-1.42-.967-2.488-1.032-1.108-.067-1.91.156-2.287.636-.288.366-.344.99-.126 1.398.198.368 1.201.793 2.6 1.1 3.3.725 4.653 1.263 5.625 2.237.819.82 1.19 1.533 1.372 2.64.422 2.559-.66 4.826-2.848 5.97-1.234.645-2.132.904-3.943 1.138-1.744.224-1.893.224-3.63-.014zm-143.224-14 .035-13.662 5.273-.04c2.913-.022 5.99.027 6.877.104 4.057.36 6.417 1.684 7.694 4.315 1.073 2.209 1.05 5.632-.054 7.947-1.007 2.112-2.632 3.273-5.573 3.982-.677.163-1.926.249-4.562.313l-3.629.088-.036 5.307-.036 5.307h-6.024zm11.718-2.296c1.023-.242 1.699-.669 2.197-1.39.324-.469.363-.652.363-1.7 0-1.069-.033-1.22-.373-1.665-.912-1.196-1.983-1.504-5.31-1.526l-2.534-.016-.037 3.078c-.02 1.693-.007 3.157.03 3.253.1.262 4.523.236 5.664-.033zm12.079 2.95v-13.015h2.861c2.483 0 2.873.03 2.945.217.046.12.083 1.668.083 3.44 0 2.985.017 3.211.227 3.037.178-.148.92-.188 3.458-.188h3.231l1.302.637c1.586.777 2.42 1.487 2.976 2.538.965 1.82 1.123 3.287 1.128 10.487l.004 5.854h-5.889v-5.58c-.001-3.488-.056-5.787-.147-6.13-.457-1.728-1.276-2.397-2.934-2.395-1.066 0-1.72.244-2.342.87-.987.996-1.024 1.262-1.055 7.62l-.028 5.547-2.91.037-2.91.037zm22.461 3.626v-9.382h5.752v18.763h-5.752zm1.643-11.471c-1.1-.363-2.19-1.922-2.19-3.131 0-1.152.9-2.524 1.98-3.014.746-.339 1.974-.334 2.73.01 1.35.615 2.19 2.242 1.874 3.625-.35 1.524-1.577 2.576-3.073 2.635-.462.02-1.057-.038-1.32-.125" style="fill:#fff;stroke-width:.136957" transform="translate(-55.646 -134.268)"/></svg>