<?xml version="1.0" encoding="UTF-8" standalone="no"?>
<!-- Created with Inkscape (http://www.inkscape.org/) -->

<svg
   width="352.77777mm"
   height="240.59444mm"
   viewBox="0 0 352.77777 240.59444"
   version="1.1"
   id="svg650"
   xml:space="preserve"
   xmlns="http://www.w3.org/2000/svg"
   xmlns:svg="http://www.w3.org/2000/svg"><defs
     id="defs647" /><g
     id="layer1"
     transform="translate(58.092274,-23.168884)"><g
       id="g4223"
       transform="matrix(14.449939,0,0,14.449939,2.6969204,27.866411)"><circle
         style="fill:#2298c7;fill-opacity:1;stroke:none;stroke-width:0.352778;stroke-dasharray:none;stroke-opacity:1"
         cx="8.0000124"
         cy="8.0000124"
         r="8.0000124"
         id="circle4325" /><path
         style="fill:#ffffff;fill-opacity:1;stroke:none;stroke-width:0.352778;stroke-dasharray:none;stroke-opacity:1"
         d="m 9.06667,6.933312 v -2.19653 c 0,-0.55418 -0.449263,-1.00345 -1.003459,-1.00345 H 7.936793 c -0.554196,0 -1.003459,0.44927 -1.003459,1.00345 v 2.19653 H 4.736799 c -0.5542,0 -1.003463,0.44926 -1.003463,1.00348 v 0.1264 c 0,0.55421 0.449263,1.00347 1.003463,1.00347 h 2.196535 v 2.19654 c 0,0.55421 0.449263,1.00348 1.003459,1.00348 h 0.126418 c 0.554196,0 1.003459,-0.44927 1.003459,-1.00348 v -2.19654 h 2.196546 c 0.554185,0 1.003448,-0.44926 1.003448,-1.00347 v -0.1264 c 0,-0.55422 -0.449263,-1.00348 -1.003448,-1.00348 z"
         id="path4327" /></g></g></svg>
