<?xml version="1.0" standalone="no"?>
<!DOCTYPE svg PUBLIC "-//W3C//DTD SVG 20010904//EN"
 "http://www.w3.org/TR/2001/REC-SVG-20010904/DTD/svg10.dtd">
<svg version="1.0" xmlns="http://www.w3.org/2000/svg"
 width="1024.000000pt" height="1024.000000pt" viewBox="0 0 1024.000000 1024.000000"
 preserveAspectRatio="xMidYMid meet">
<metadata>
Created by potrace 1.11, written by Peter Selinger 2001-2013
</metadata>
<g transform="translate(0.000000,1024.000000) scale(0.100000,-0.100000)"
fill="#000000" stroke="none">
<path d="M2759 9596 c-2 -2 -56 -6 -119 -10 -63 -3 -126 -8 -140 -10 -14 -3
-52 -7 -85 -10 -33 -4 -71 -8 -85 -10 -14 -3 -42 -7 -63 -10 -309 -46 -627
-185 -872 -380 -151 -120 -382 -382 -467 -530 -53 -91 -148 -306 -163 -366 -2
-8 -17 -67 -34 -131 -16 -64 -32 -134 -35 -155 -3 -22 -10 -73 -16 -114 -17
-124 -20 -150 -28 -265 -10 -149 -9 -4844 1 -4970 8 -103 15 -178 22 -230 14
-106 19 -139 40 -234 61 -284 145 -478 303 -701 70 -99 276 -315 375 -394 183
-145 401 -260 610 -320 126 -36 311 -73 402 -81 17 -1 59 -6 95 -10 206 -24
567 -27 2615 -28 1754 0 2368 5 2505 18 19 2 73 6 120 10 47 3 92 8 100 10 8
2 40 7 70 10 49 6 109 18 230 45 236 54 455 157 665 314 78 58 308 281 353
341 12 17 36 48 53 70 132 170 271 478 306 675 2 14 8 41 13 60 10 41 30 167
36 225 2 22 6 58 9 80 18 128 20 448 20 2610 0 2102 -3 2528 -20 2650 -2 17
-6 53 -9 80 -17 139 -56 322 -98 450 -112 347 -321 636 -658 909 -118 96 -340
212 -513 270 -108 36 -285 78 -387 91 -30 4 -63 8 -72 10 -9 2 -54 6 -100 10
-46 4 -96 10 -113 13 -33 6 -4859 14 -4866 8z"/>
</g>
</svg>
