<?xml version="1.0" standalone="no"?>
<!DOCTYPE svg PUBLIC "-//W3C//DTD SVG 20010904//EN"
 "http://www.w3.org/TR/2001/REC-SVG-20010904/DTD/svg10.dtd">
<svg version="1.0" xmlns="http://www.w3.org/2000/svg"
 width="2048.000000pt" height="2048.000000pt" viewBox="0 0 2048.000000 2048.000000"
 preserveAspectRatio="xMidYMid meet">
<metadata>
Created by potrace 1.11, written by Peter Selinger 2001-2013
</metadata>
<g transform="translate(0.000000,2048.000000) scale(0.100000,-0.100000)"
fill="#000000" stroke="none">
<path d="M6460 19304 c-19 -2 -91 -9 -160 -14 -656 -56 -1354 -251 -1965 -550
-1676 -821 -2847 -2426 -3109 -4262 -54 -373 -51 -149 -51 -4238 0 -4089 -3
-3865 51 -4238 168 -1181 713 -2279 1558 -3141 860 -876 1981 -1451 3181
-1631 391 -58 67 -54 4170 -58 2677 -2 3806 0 3920 8 1086 75 2124 460 2990
1108 341 256 688 584 953 902 692 830 1126 1812 1266 2862 53 398 51 213 51
4188 0 3975 2 3790 -51 4188 -226 1696 -1230 3210 -2714 4095 -748 446 -1584
708 -2479 777 -122 9 -7512 13 -7611 4z m4135 -4384 c308 -26 636 -84 900
-159 1009 -286 1889 -884 2506 -1706 233 -310 449 -686 604 -1055 125 -296
250 -719 310 -1042 57 -315 54 -171 55 -2643 1 -2486 4 -2346 -55 -2550 -91
-314 -249 -521 -519 -680 -112 -65 -165 -89 -272 -120 -312 -90 -668 -28 -963
169 -272 181 -446 442 -498 746 -15 85 -17 316 -19 2271 -2 2208 -3 2278 -40
2494 -52 310 -177 631 -347 888 -389 592 -1058 992 -1786 1068 -141 15 -461 7
-587 -15 -268 -46 -492 -115 -699 -216 -658 -320 -1158 -968 -1304 -1690 -61
-302 -59 -658 5 -980 178 -890 919 -1647 1806 -1844 232 -51 329 -57 958 -60
405 -2 514 -6 600 -19 301 -48 477 -134 656 -318 203 -211 315 -475 331 -784
10 -203 -27 -387 -111 -560 -53 -108 -115 -191 -227 -304 -171 -173 -324 -254
-572 -302 -173 -34 -368 -41 -901 -36 -529 5 -642 13 -951 67 -743 130 -1458
435 -2040 869 -807 604 -1366 1375 -1677 2315 -163 494 -239 971 -239 1506 0
615 100 1135 333 1719 241 607 572 1106 1042 1576 545 544 1165 930 1881 1171
324 109 672 185 975 213 63 6 131 13 150 14 85 9 586 6 695 -3z"/>
</g>
</svg>
