<svg xmlns="http://www.w3.org/2000/svg" width="22" height="22" viewBox="0 0 21.994 21.994"><path d="M11.203 2c-1.28.002-2.56.007-3.84.002h-.136l-.138.007c-2.614.078-4.926 2.327-5.071 4.94-.032 2.652-.015 5.305-.007 7.955.078 2.619 2.33 4.928 4.94 5.072 2.651.03 5.305.015 7.956.009 2.614-.078 4.924-2.33 5.07-4.942.03-2.65.014-5.304.008-7.956-.078-2.616-2.334-4.926-4.944-5.07C13.762 2 12.483 1.999 11.203 2M11 5.83v.003a5.1 5.1 0 0 1 1.892.364c1.759.672 3.017 2.374 3.254 4.229.05 1.466.01 2.937.022 4.404.03.612.035 1.364-.55 1.735-.714.542-1.881.024-1.976-.861-.03-1.552-.015-3.105-.013-4.654.029-1.056-.626-2.09-1.62-2.472-1.232-.553-2.813.04-3.372 1.272-.625 1.195-.129 2.801 1.053 3.447.715.47 1.583.296 2.381.362.862.033 1.371 1.094.987 1.827-.27.578-.946.752-1.531.697-1.189.07-2.408-.211-3.4-.885-1.74-1.129-2.636-3.373-2.178-5.395.474-2.31 2.694-4.112 5.051-4.072" style="fill:#4c97c3;fill-opacity:1;stroke-width:.0149607"/></svg>