<?xml version="1.0" encoding="UTF-8" standalone="no"?>
<svg
   width="22"
   height="22"
   viewBox="0 0 21.993534 21.993534"
   id="svg1602"
   version="1.1"
   xmlns="http://www.w3.org/2000/svg"
   xmlns:svg="http://www.w3.org/2000/svg">
  <defs
     id="defs830" />
  <path
     d="m 7.7641188,3.0011614 c 2.2779512,0.00887 4.5559022,-0.017741 6.8320792,0.014193 2.322304,0.1277355 4.328817,2.1803753 4.398007,4.5062274 0.0053,2.3577859 0.01952,4.7155722 -0.0071,7.0715832 -0.12951,2.322304 -2.185698,4.323494 -4.51155,4.392685 -2.35956,0.0053 -4.7191199,0.01952 -7.07868,-0.0071 C 5.0745752,18.851018 3.0698363,16.798378 3.0006461,14.470752 2.9935497,12.11474 2.9793569,9.7569543 3.0077426,7.3991685 3.1372523,5.0768646 5.1934403,3.0756738 7.5192923,3.0064837 l 0.1224132,-0.00532 z"
     fill="var(--color-1, #2599c7)"
     id="path1193"
     style="fill:#4c97c3;fill-opacity:1;stroke-width:0.0133058" />
  <g
     id="g1596"
     transform="matrix(0.01951515,0,0,-0.01951515,1.0393088,20.926053)"
     style="fill:#ffffff">
    <path
       d="M 510.3,744.1 C 402.8,745.9 301.6,663.8 280,558.6 c -20.9,-92.1 20,-194.3 99.4,-245.7 45.2,-30.7 100.8,-43.5 155,-40.3 26.7,-2.5 57.5,5.4 69.8,31.7 17.5,33.4 -5.7,81.7 -45,83.2 -36.4,3 -76,-4.9 -108.6,16.5 -53.9,29.4 -76.5,102.6 -48,157 25.5,56.1 97.6,83.2 153.8,58 45.3,-17.4 75.1,-64.5 73.8,-112.6 -0.1,-70.6 -0.8,-141.3 0.6,-212 4.3,-40.3 57.6,-63.9 90.1,-39.2 26.7,16.9 26.5,51.1 25.1,79 -0.5,66.8 1.3,133.8 -1,200.6 -10.8,84.5 -68.2,162 -148.4,192.6 -27.4,10.9 -56.8,16.7 -86.3,16.6 z"
       fill="var(--color-2, white)"
       id="path1195"
       style="fill:#ffffff" />
  </g>
</svg>
