<svg xmlns="http://www.w3.org/2000/svg" width="1203.741" height="1202.484" viewBox="0 0 1203.387 1202.131"><path fill="var(--color-1, #2599c7)" d="M358.743.154c171.2.666 342.4-1.334 513.467 1.066 174.533 9.6 325.333 163.867 330.533 338.667.4 177.2 1.467 354.4-.533 531.467-9.734 174.533-164.267 324.933-339.067 330.133-177.333.4-354.667 1.467-532-.533-174.533-9.6-325.2-163.867-330.4-338.8-.533-177.067-1.6-354.267.533-531.467C11.01 156.154 165.543 5.754 340.343.554l9.2-.4z" style="fill:#4c97c3;fill-opacity:.934397;fill-rule:nonzero;stroke:none"/><path fill="var(--color-2, white)" d="M510.3 744.1c-107.5 1.8-208.7-80.3-230.3-185.5-20.9-92.1 20-194.3 99.4-245.7 45.2-30.7 100.8-43.5 155-40.3 26.7-2.5 57.5 5.4 69.8 31.7 17.5 33.4-5.7 81.7-45 83.2-36.4 3-76-4.9-108.6 16.5-53.9 29.4-76.5 102.6-48 157 25.5 56.1 97.6 83.2 153.8 58 45.3-17.4 75.1-64.5 73.8-112.6-.1-70.6-.8-141.3.6-212 4.3-40.3 57.6-63.9 90.1-39.2 26.7 16.9 26.5 51.1 25.1 79-.5 66.8 1.3 133.8-1 200.6-10.8 84.5-68.2 162-148.4 192.6-27.4 10.9-56.8 16.7-86.3 16.6z" style="fill:#fff" transform="matrix(1.33333 0 0 -1.33333 -78.59 1281.354)"/></svg>