<?xml version="1.0" encoding="UTF-8" standalone="no"?>
<svg
   width="22"
   height="22"
   viewBox="0 0 21.993534 21.993534"
   id="svg1602"
   version="1.1"
   sodipodi:docname="artisan-blue.svg"
   inkscape:version="1.1 (c4e8f9e, 2021-05-24)"
   xmlns:inkscape="http://www.inkscape.org/namespaces/inkscape"
   xmlns:sodipodi="http://sodipodi.sourceforge.net/DTD/sodipodi-0.dtd"
   xmlns="http://www.w3.org/2000/svg"
   xmlns:svg="http://www.w3.org/2000/svg">
  <sodipodi:namedview
     id="namedview2539"
     pagecolor="#ffffff"
     bordercolor="#666666"
     borderopacity="1.0"
     inkscape:pageshadow="2"
     inkscape:pageopacity="0.0"
     inkscape:pagecheckerboard="0"
     showgrid="false"
     inkscape:zoom="21.459759"
     inkscape:cx="12.488491"
     inkscape:cy="10.997328"
     inkscape:window-width="1233"
     inkscape:window-height="812"
     inkscape:window-x="0"
     inkscape:window-y="25"
     inkscape:window-maximized="0"
     inkscape:current-layer="svg1602" />
  <defs
     id="defs830" />
  <rect
     style="font-variation-settings:normal;opacity:1;vector-effect:none;fill:#666666;fill-opacity:1;fill-rule:evenodd;stroke:none;stroke-width:4.81005;stroke-linecap:butt;stroke-linejoin:miter;stroke-miterlimit:4;stroke-dasharray:none;stroke-dashoffset:0;stroke-opacity:1;-inkscape-stroke:none;stop-color:#000000;stop-opacity:1"
     id="rect2661"
     width="15.993176"
     height="15.922567"
     x="3.0001788"
     y="3.0354834"
     rx="4.5972843"
     ry="4.9000149" />
  <g
     id="g1596"
     transform="matrix(0.01951515,0,0,-0.01951515,1.0393088,20.926053)"
     style="fill:#ffffff">
    <path
       d="M 510.3,744.1 C 402.8,745.9 301.6,663.8 280,558.6 c -20.9,-92.1 20,-194.3 99.4,-245.7 45.2,-30.7 100.8,-43.5 155,-40.3 26.7,-2.5 57.5,5.4 69.8,31.7 17.5,33.4 -5.7,81.7 -45,83.2 -36.4,3 -76,-4.9 -108.6,16.5 -53.9,29.4 -76.5,102.6 -48,157 25.5,56.1 97.6,83.2 153.8,58 45.3,-17.4 75.1,-64.5 73.8,-112.6 -0.1,-70.6 -0.8,-141.3 0.6,-212 4.3,-40.3 57.6,-63.9 90.1,-39.2 26.7,16.9 26.5,51.1 25.1,79 -0.5,66.8 1.3,133.8 -1,200.6 -10.8,84.5 -68.2,162 -148.4,192.6 -27.4,10.9 -56.8,16.7 -86.3,16.6 z"
       fill="var(--color-2, white)"
       id="path1195"
       style="fill:#ffffff" />
  </g>
</svg>
