<?xml version="1.0" encoding="UTF-8" standalone="no"?>
<svg
   width="22"
   height="22"
   viewBox="0 0 21.993534 21.993534"
   id="svg1602"
   version="1.1"
   xmlns="http://www.w3.org/2000/svg"
   xmlns:svg="http://www.w3.org/2000/svg">
  <defs
     id="defs830" />
  <path
     id="path1193"
     style="fill:#f2f2f2;fill-opacity:1;fill-rule:evenodd;stroke:none;stroke-width:0.0133058;stroke-opacity:1"
     d="m 7.7641188,3.0011614 c 2.3849852,0.025926 4.7740142,-0.053864 7.1564042,0.044674 2.335657,0.299327 4.240481,2.5548911 4.074768,4.9178305 -0.01136,2.3174371 0.05307,4.6389581 -0.03893,6.9537901 -0.30171,2.336102 -2.561271,4.234844 -4.923225,4.06948 -2.319707,-0.01119 -4.643433,0.05272 -6.9605765,-0.03867 -2.3364343,-0.29924 -4.2383285,-2.556683 -4.073317,-4.91929 0.00964,-2.317538 -0.054044,-4.6391758 0.03924,-6.9541022 C 3.3367617,4.8070836 5.4665198,2.9408962 7.7641188,3.0011614 Z" />
  <g
     id="g1596"
     transform="matrix(0.01774105,0,0,-0.01774105,1.9450535,20.048539)"
     style="fill:#ffffff;fill-opacity:1">
    <path
       style="fill:#1a1a1a;fill-opacity:1;fill-rule:evenodd;stroke-width:1.1"
       d="m 510.27639,769.04764 c -118.25,1.98 -229.57,-88.33 -253.33,-204.05 -22.99,-101.31 22,-213.73 109.34,-270.27 49.72,-33.77 110.88,-47.85 170.5,-44.33 29.37,-2.75 63.25,5.94 76.78,34.87 19.25,36.74 -6.27,89.87 -49.5,91.52 -40.04,3.3 -83.6,-5.39 -119.46,18.15 -59.29,32.34 -84.15,112.86 -52.8,172.7 28.05,61.71 107.36,91.52 169.18,63.8 49.83,-19.14 82.61,-70.95 81.18,-123.86 -0.11,-77.66 -0.88,-155.43 0.66,-233.2 4.73,-44.33 63.36,-70.29 99.11,-43.12 29.37,18.59 29.15,56.21 27.61,86.9 -0.55,73.48 1.43,147.18 -1.1,220.66 -11.88,92.95 -75.02,178.2 -163.24,211.86 -30.14,11.99 -62.48,18.37 -94.93,18.26 z"
       id="path1195" />
  </g>
</svg>
