<svg xmlns="http://www.w3.org/2000/svg" width="22" height="22" viewBox="0 0 21.994 21.994"><path d="M11.184 3c-1.14.002-2.28.006-3.418.002h-.121l-.124.006c-2.326.069-4.384 2.07-4.513 4.392-.029 2.359-.013 4.718-.006 7.075.07 2.328 2.073 4.382 4.396 4.51 2.36.026 4.722.012 7.082.007 2.327-.069 4.383-2.071 4.512-4.394.027-2.357.013-4.716.008-7.075-.07-2.326-2.077-4.38-4.4-4.507A222 222 0 0 0 11.184 3m-.182 3.406v.002a4.5 4.5 0 0 1 1.684.324c1.565.598 2.685 2.11 2.896 3.76.045 1.304.01 2.612.02 3.916.027.545.03 1.213-.49 1.543-.635.482-1.675.021-1.758-.765-.028-1.38-.014-2.76-.012-4.14.025-.938-.557-1.857-1.442-2.196-1.097-.492-2.504.035-3.002 1.13-.556 1.062-.114 2.491.938 3.065.636.418 1.409.264 2.12.322.766.03 1.22.973.878 1.625-.24.514-.842.668-1.363.62-1.058.062-2.143-.188-3.026-.788-1.55-1.003-2.347-2.999-1.94-4.797.423-2.053 2.398-3.656 4.497-3.62" style="fill:#4c97c3;fill-opacity:1;stroke-width:.0133097" transform="scale(.9997)"/></svg>