<?xml version="1.0" encoding="UTF-8" standalone="no"?>
<svg
   width="1203.7406"
   height="1202.4843"
   viewBox="0 0 1203.3868 1202.1308"
   id="svg1602"
   version="1.1"
   xmlns="http://www.w3.org/2000/svg"
   xmlns:svg="http://www.w3.org/2000/svg">
  <defs
     id="defs830" />
  <path
     d="m 358.7429,0.1536542 c 171.2,0.666667 342.39999,-1.333333 513.46666,1.066667 C 1046.7429,10.82032 1197.5429,165.08698 1202.7429,339.88698 c 0.4,177.19999 1.4667,354.39999 -0.5333,531.46665 -9.7334,174.53327 -164.2667,324.93327 -339.06671,330.13327 -177.33333,0.4 -354.66666,1.4667 -531.99999,-0.5333 -174.53333,-9.6 -325.1999905,-163.8667 -330.39999046,-338.79997 -0.533333,-177.06666 -1.6,-354.26666 0.53333396,-531.46665 C 11.009577,156.15365 165.54291,5.7536542 340.3429,0.5536542 l 9.2,-0.4 z"
     fill="var(--color-1, #2599c7)"
     id="path3677"
     style="fill:#4c97c3;fill-opacity:0.934397;fill-rule:nonzero;stroke:none" />
  <g
     id="g1596"
     transform="matrix(1.3333333,0,0,-1.3333333,-78.590421,1281.3536)"
     style="fill:#ffffff">
    <path
       d="M 510.3,744.1 C 402.8,745.9 301.6,663.8 280,558.6 c -20.9,-92.1 20,-194.3 99.4,-245.7 45.2,-30.7 100.8,-43.5 155,-40.3 26.7,-2.5 57.5,5.4 69.8,31.7 17.5,33.4 -5.7,81.7 -45,83.2 -36.4,3 -76,-4.9 -108.6,16.5 -53.9,29.4 -76.5,102.6 -48,157 25.5,56.1 97.6,83.2 153.8,58 45.3,-17.4 75.1,-64.5 73.8,-112.6 -0.1,-70.6 -0.8,-141.3 0.6,-212 4.3,-40.3 57.6,-63.9 90.1,-39.2 26.7,16.9 26.5,51.1 25.1,79 -0.5,66.8 1.3,133.8 -1,200.6 -10.8,84.5 -68.2,162 -148.4,192.6 -27.4,10.9 -56.8,16.7 -86.3,16.6 z"
       fill="var(--color-2, white)"
       id="path1195"
       style="fill:#ffffff" />
  </g>
</svg>
