<?xml version="1.0" encoding="UTF-8" standalone="no"?>
<svg
   width="22"
   height="22"
   viewBox="0 0 21.993534 21.993534"
   id="svg1602"
   version="1.1"
   xmlns="http://www.w3.org/2000/svg"
   xmlns:svg="http://www.w3.org/2000/svg">
  <defs
     id="defs830" />
  <path
     id="path1193"
     style="fill:#4c97c3;fill-opacity:1;stroke-width:0.0133097"
     d="M 11.183594 3 C 10.044505 3.0015527 8.9049355 3.0063894 7.765625 3.0019531 L 7.6445312 3.0019531 L 7.5214844 3.0078125 C 5.1949486 3.0770229 3.1373603 5.077404 3.0078125 7.4003906 C 2.9794185 9.7588696 2.9948546 12.117905 3.0019531 14.474609 C 3.0711637 16.80292 5.075455 18.856605 7.3984375 18.984375 C 9.7586913 19.011003 12.120215 18.997489 14.480469 18.992188 C 16.807005 18.922976 18.862639 16.920643 18.992188 14.597656 C 19.018815 12.240953 19.005302 9.8819166 19 7.5234375 C 18.93079 5.1969016 16.922596 3.1433981 14.599609 3.015625 C 13.461186 2.9996533 12.322682 2.9984473 11.183594 3 z M 11.001953 6.40625 L 11.001953 6.4082031 C 11.577819 6.4062511 12.150675 6.5196442 12.685547 6.7324219 C 14.251122 7.329761 15.371209 8.8426723 15.582031 10.492188 C 15.626934 11.796183 15.59176 13.104208 15.601562 14.408203 C 15.628892 14.952836 15.632536 15.621269 15.111328 15.951172 C 14.4769 16.433338 13.43746 15.972238 13.353516 15.185547 C 13.326188 13.80542 13.339796 12.42505 13.341797 11.046875 C 13.367174 10.10792 12.784688 9.1892728 11.900391 8.8496094 C 10.803317 8.357683 9.3962201 8.8853469 8.8984375 9.9804688 C 8.3420922 11.042405 8.7837617 12.471008 9.8359375 13.044922 C 10.472318 13.462675 11.244517 13.30862 11.955078 13.367188 C 12.722249 13.396469 13.175601 14.34019 12.833984 14.992188 C 12.593878 15.505586 11.99191 15.660132 11.470703 15.611328 C 10.412671 15.673795 9.3276566 15.42351 8.4453125 14.824219 C 6.8953541 13.820845 6.0978729 11.825218 6.5058594 10.027344 C 6.9275105 7.9737466 8.9034576 6.3711124 11.001953 6.40625 z "
     transform="scale(0.99970609)" />
</svg>
