<svg name="buckets_images" width="100%" height="100%" version="1.0" viewBox="0 0 24 24"
                                    xmlns="http://www.w3.org/2000/svg" xmlns:svg="http://www.w3.org/2000/svg"
                                    style="margin-top: 15cqmin;">
                                    <path d="M 10.360146,0.48878671 C 5.8839144,0.59904451 2.2122471,1.1209314 0.94655416,1.8229061 0.74782493,1.9350015 0.57417803,2.0875248 0.51822514,2.2051331 l -0.0463058,0.091881 v 1.0989028 c 0,1.20181 -0.003859,1.1540316 0.1157646,1.2992044 0.18329395,0.2205156 0.75439926,0.4906472 1.43933986,0.6799231 l 0.2141645,0.058804 0.042447,0.233379 c 0.4418349,2.4844758 0.7235287,4.7447606 0.9473403,7.6004376 0.1871528,2.396269 0.3087056,5.365879 0.3087056,7.572873 0,0.600905 0.00772,0.832446 0.025082,0.909627 0.310635,1.255101 5.9522299,2.089385 11.2716138,1.668568 3.00795,-0.237054 5.178536,-0.839797 5.556701,-1.541772 l 0.05595,-0.101069 0.01351,-0.588042 c 0.0077,-0.323423 0.02508,-1.021722 0.03666,-1.552797 0.138918,-6.301234 0.468847,-11.2224063 0.904893,-13.479016 0.08296,-0.4244925 0.121553,-0.5862039 0.144706,-0.6082555 0.01158,-0.011026 0.135059,-0.055129 0.272047,-0.099232 1.030305,-0.3252605 1.514587,-0.5751782 1.66894,-0.8618485 0.03666,-0.071668 0.03859,-0.1029073 0.03859,-1.1962971 0,-1.102578 0,-1.1246296 -0.04052,-1.1981348 C 23.06531,1.4020888 19.611667,0.7331915 14.932847,0.53288983 13.466496,0.47041041 11.747391,0.45387174 10.360146,0.48878671 Z"
                                        style="stroke-width:0.818999" />
                                    <path d="m 0.51822514,2.5155887 c 0,0 7.51866326,1.0044227 11.40038886,1.0063705 3.881725,0.00195 11.56924,-1.0192345 11.56924,-1.0192345"
                                        style="stroke-width:1px;stroke-linecap:butt;stroke-linejoin:miter" />
                                    <path d="m 2.4639743,5.5606455 c 0,0 6.576432,0.8087701 9.9337807,0.8107181 3.357349,0.002 9.09117,-0.7649286 9.09117,-0.7649286"
                                        style="stroke-width:0.93;stroke-linecap:round;stroke-linejoin:miter" />
                                </svg>