<svg xmlns="http://www.w3.org/2000/svg" style="margin-top:15cqmin" viewBox="0 0 24 24"><path d="M10.36.489C5.884.599 2.212 1.12.947 1.823c-.2.112-.373.265-.429.382l-.046.092v1.099c0 1.202-.004 1.154.116 1.3.183.22.754.49 1.439.679l.214.059.043.233c.441 2.485.723 4.745.947 7.6.187 2.397.309 5.367.309 7.574 0 .6.007.832.025.91.31 1.254 5.952 2.089 11.271 1.668 3.008-.237 5.179-.84 5.557-1.542l.056-.101.014-.588c.007-.324.025-1.022.036-1.553.14-6.301.469-11.222.905-13.479.083-.424.122-.586.145-.608.011-.011.135-.055.272-.1 1.03-.325 1.514-.575 1.669-.861.036-.072.038-.103.038-1.197 0-1.102 0-1.124-.04-1.198-.423-.79-3.876-1.459-8.555-1.66A72 72 0 0 0 10.36.49" style="stroke-width:.818999"/><path d="M.518 2.516s7.519 1.004 11.4 1.006 11.57-1.02 11.57-1.02" style="stroke-width:1px;stroke-linecap:butt;stroke-linejoin:miter"/><path d="M2.464 5.56s6.576.81 9.934.811 9.09-.765 9.09-.765" style="stroke-width:.93;stroke-linecap:round;stroke-linejoin:miter"/></svg>