<?xml version="1.0" encoding="UTF-8" standalone="no"?>
<svg
   width="1245pt"
   height="1304.8pt"
   preserveAspectRatio="xMidYMid"
   version="1.0"
   viewBox="0 0 1245 1304.8"
   id="svg190"
   sodipodi:docname="bucket_empty_dark.svg"
   inkscape:version="1.2.2 (b0a8486, 2022-12-01)"
   xmlns:inkscape="http://www.inkscape.org/namespaces/inkscape"
   xmlns:sodipodi="http://sodipodi.sourceforge.net/DTD/sodipodi-0.dtd"
   xmlns="http://www.w3.org/2000/svg"
   xmlns:svg="http://www.w3.org/2000/svg">
  <defs
     id="defs194" />
  <sodipodi:namedview
     id="namedview192"
     pagecolor="#ffffff"
     bordercolor="#666666"
     borderopacity="1.0"
     inkscape:showpageshadow="2"
     inkscape:pageopacity="0.0"
     inkscape:pagecheckerboard="0"
     inkscape:deskcolor="#d1d1d1"
     inkscape:document-units="pt"
     showgrid="false"
     inkscape:zoom="0.13565297"
     inkscape:cx="836.69382"
     inkscape:cy="869.8667"
     inkscape:window-width="1031"
     inkscape:window-height="786"
     inkscape:window-x="0"
     inkscape:window-y="38"
     inkscape:window-maximized="0"
     inkscape:current-layer="svg190" />
  <g
     fill="none"
     stroke="#000"
     stroke-width="50"
     id="g188"
     style="stroke:#fafafa;stroke-opacity:1">
    <path
       d="m537.52 25.982c-232 6-422.3 34.4-487.9 72.6-10.3 6.1-19.3 14.4-22.2 20.8l-2.4 5v59.8c0 65.4-0.2 62.8 6 70.7 9.5 12 39.1 26.7 74.6 37l11.1 3.2 2.2 12.7c22.9 135.2 37.5 258.2 49.1 413.6 9.7 130.4 16 292 16 412.1 0 32.7 0.4 45.3 1.3 49.5 16.1 68.3 308.5 113.7 584.2 90.8 155.9-12.9 268.4-45.7 288-83.9l2.9-5.5 0.7-32c0.4-17.6 1.3-55.6 1.9-84.5 7.2-342.9 24.3-610.7 46.9-733.5 4.3-23.1 6.3-31.9 7.5-33.1 0.6-0.6 7-3 14.1-5.4 53.4-17.7 78.5-31.3 86.5-46.9 1.9-3.9 2-5.6 2-65.1 0-60 0-61.2-2.1-65.2-21.9-43-200.9-79.4-443.4-90.3-76-3.4-165.1-4.3-237-2.4z"
       id="path182"
       style="stroke:#fafafa;stroke-opacity:1" />
    <path
       d="m15.333 264.18c355.06 53.476 853.63 65.189 1185.9 5.3178"
       id="path184"
       style="stroke:#fafafa;stroke-opacity:1" />
    <path
       d="m37.954 149.91c355.06 53.476 853.63 65.189 1185.9 5.3178"
       id="path186"
       style="stroke:#fafafa;stroke-opacity:1" />
  </g>
</svg>
