<svg xmlns="http://www.w3.org/2000/svg" width="96" height="96" viewBox="0 0 25.4 25.4"><g transform="translate(.064 .127)scale(1.57954)"><circle cx="8" cy="8" r="8" style="fill:#fff;fill-opacity:1;stroke:none;stroke-width:.35277778;stroke-dasharray:none;stroke-opacity:1"/><path d="M9.067 6.933V4.737c0-.554-.45-1.004-1.004-1.004h-.126c-.554 0-1.004.45-1.004 1.004v2.196H4.737c-.554 0-1.004.45-1.004 1.004v.126c0 .554.45 1.004 1.004 1.004h2.196v2.196c0 .554.45 1.004 1.004 1.004h.126c.554 0 1.004-.45 1.004-1.004V9.067h2.196c.554 0 1.004-.45 1.004-1.004v-.126c0-.554-.45-1.004-1.004-1.004z" style="fill:#2298c7;fill-opacity:1;stroke:none;stroke-width:.35277778;stroke-dasharray:none;stroke-opacity:1"/></g></svg>