<svg xmlns="http://www.w3.org/2000/svg" width="96" height="96" viewBox="0 0 25.4 25.4"><circle cx="12.7" cy="12.7" r="12.636" style="fill:#fff;fill-opacity:1;stroke:none;stroke-width:.55722821;stroke-dasharray:none;stroke-opacity:1"/><path d="M14.385 11.015v-3.47c0-.875-.71-1.584-1.585-1.584h-.2c-.875 0-1.585.71-1.585 1.585v3.47h-3.47c-.875 0-1.584.709-1.584 1.584v.2c0 .875.71 1.585 1.585 1.585h3.47v3.47c0 .875.709 1.584 1.584 1.584h.2c.875 0 1.585-.71 1.585-1.585v-3.47h3.47c.875 0 1.584-.709 1.584-1.584v-.2c0-.875-.71-1.585-1.585-1.585z" style="fill:#cc0f50;fill-opacity:1;stroke:none;stroke-width:.55722821;stroke-dasharray:none;stroke-opacity:1"/></svg>