<svg xmlns="http://www.w3.org/2000/svg" id="svg13" width="96" height="96" viewBox="0 0 72 72"><defs id="defs4"><style id="style2" type="text/css">*{stroke-linecap:butt;stroke-linejoin:round}</style></defs><g id="g4236"><g id="patch_1" style="stroke-linecap:butt;stroke-linejoin:round"><path id="path6" d="M0 72h72V0H0Z" style="opacity:0;fill:none;stroke-linecap:butt;stroke-linejoin:round"/></g><g id="text_1" style="stroke-linecap:butt;stroke-linejoin:round;fill:#fff"><path id="path9" d="M65.144 35.007c0-2.582-1.71-4.856-4.44-4.856H33.991l11.114-11.113a4.92 4.92 0 0 0 1.445-3.454c0-1.296-.532-2.55-1.445-3.453l-2.848-2.815c-.914-.904-2.125-1.435-3.41-1.435-1.297 0-2.55.531-3.454 1.435l-24.703 24.67A5.05 5.05 0 0 0 9.29 37.44c0 1.286.531 2.54 1.402 3.41l24.703 24.746A5.03 5.03 0 0 0 38.847 67c1.286 0 2.54-.531 3.411-1.403l2.848-2.89a4.75 4.75 0 0 0 0-6.821L33.992 44.729h26.711c2.73 0 4.441-2.285 4.441-4.867z" style="stroke-linecap:butt;stroke-linejoin:round;fill:#fff"/></g></g></svg>