<svg xmlns="http://www.w3.org/2000/svg" id="svg13" width="96" height="96" viewBox="0 0 72 72"><defs id="defs4"><style id="style2" type="text/css">*{stroke-linecap:butt;stroke-linejoin:round}</style></defs><g id="g4236"><g id="patch_1" style="stroke-linecap:butt;stroke-linejoin:round"><path id="path6" d="M0 72h72V0H0Z" style="opacity:0;fill:none;stroke-linecap:butt;stroke-linejoin:round"/></g><g id="text_1" style="stroke-linecap:butt;stroke-linejoin:round;fill:#fff"><path id="path9" d="M74.856 61.729H2V8.296h-4.856v58.288h77.712zM70 14.373c0-.68-.531-1.211-1.211-1.211H52.278c-1.063 0-1.626 1.286-.83 2.082l4.59 4.59L38.434 37.44l-8.84-8.84a1.23 1.23 0 0 0-1.753 0L5.644 50.796l7.29 7.288L28.71 42.296l8.85 8.85c.49.489 1.244.489 1.743 0l24.024-24.023 4.59 4.59c.796.797 2.082.223 2.082-.84Z" style="stroke-linecap:butt;stroke-linejoin:round;fill:#fff"/></g></g></svg>