<?xml version="1.0" encoding="UTF-8" standalone="no"?>
<!-- Created with matplotlib (http://matplotlib.org/) -->

<svg
   xmlns:dc="http://purl.org/dc/elements/1.1/"
   xmlns:cc="http://creativecommons.org/ns#"
   xmlns:rdf="http://www.w3.org/1999/02/22-rdf-syntax-ns#"
   xmlns:svg="http://www.w3.org/2000/svg"
   xmlns="http://www.w3.org/2000/svg"
   xmlns:sodipodi="http://sodipodi.sourceforge.net/DTD/sodipodi-0.dtd"
   xmlns:inkscape="http://www.inkscape.org/namespaces/inkscape"
   height="72pt"
   version="1.1"
   viewBox="0 0 72 72"
   width="72pt"
   id="svg13"
   inkscape:version="0.91+devel r14842"
   sodipodi:docname="zoom_to_rect_white.svg">
  <metadata
     id="metadata17">
    <rdf:RDF>
      <cc:Work
         rdf:about="">
        <dc:format>image/svg+xml</dc:format>
        <dc:type
           rdf:resource="http://purl.org/dc/dcmitype/StillImage" />
      </cc:Work>
    </rdf:RDF>
  </metadata>
  <sodipodi:namedview
     pagecolor="#ffffff"
     bordercolor="#666666"
     borderopacity="1"
     objecttolerance="10"
     gridtolerance="10"
     guidetolerance="10"
     inkscape:pageopacity="0"
     inkscape:pageshadow="2"
     inkscape:window-width="1116"
     inkscape:window-height="597"
     id="namedview15"
     showgrid="false"
     inkscape:zoom="2.4583333"
     inkscape:cx="48"
     inkscape:cy="48"
     inkscape:window-x="0"
     inkscape:window-y="0"
     inkscape:window-maximized="0"
     inkscape:current-layer="svg13" />
  <defs
     id="defs4">
    <style
       type="text/css"
       id="style2">
*{stroke-linecap:butt;stroke-linejoin:round;}
  </style>
  </defs>
  <g
     id="g4236"
     inkscape:export-xdpi="24"
     inkscape:export-ydpi="24">
    <g
       id="patch_1"
       style="stroke-linecap:butt;stroke-linejoin:round">
      <path
         d="M 0,72 H 72 V 0 H 0 Z"
         style="opacity:0;fill:none;stroke-linecap:butt;stroke-linejoin:round"
         id="path6"
         inkscape:connector-curvature="0" />
    </g>
    <g
       id="text_1"
       style="stroke-linecap:butt;stroke-linejoin:round;fill:#ffffff">
      <path
         d="m 48.139062,32.589687 c 0,9.371251 -7.62875,17 -16.999999,17 -9.371251,0 -17.000001,-7.628749 -17.000001,-17 0,-9.37125 7.62875,-17 17.000001,-17 9.371249,0 16.999999,7.62875 16.999999,17 m 19.433125,31.566875 c 0,-1.285625 -0.53125,-2.539374 -1.402499,-3.410625 L 53.154062,47.730312 c 3.070626,-4.44125 4.706876,-9.75375 4.706876,-15.140625 0,-14.76875 -11.953125,-26.721875 -26.721875,-26.721875 -14.758126,0 -26.711251,11.953125 -26.711251,26.721875 0,14.758125 11.953125,26.71125 26.711251,26.71125 5.386874,0 10.699374,-1.63625 15.140624,-4.706875 l 13.015626,12.98375 c 0.871249,0.903125 2.125,1.434375 3.42125,1.434375 2.65625,0 4.855624,-2.199375 4.855624,-4.855625"
         id="path9"
         inkscape:connector-curvature="0"
         style="stroke-linecap:butt;stroke-linejoin:round;fill:#ffffff" />
    </g>
  </g>
</svg>
