<svg xmlns="http://www.w3.org/2000/svg" id="svg13" width="96" height="96" viewBox="0 0 72 72"><defs id="defs4"><style id="style2" type="text/css">*{stroke-linecap:butt;stroke-linejoin:round}</style></defs><g id="g4236"><g id="patch_1" style="stroke-linecap:butt;stroke-linejoin:round"><path id="path6" d="M0 72h72V0H0Z" style="opacity:0;fill:none;stroke-linecap:butt;stroke-linejoin:round"/></g><g id="text_1" style="stroke-linecap:butt;stroke-linejoin:round;fill:#fff"><path id="path9" d="M70 37.44a2.4 2.4 0 0 0-.722-1.7l-9.712-9.722a2.41 2.41 0 0 0-1.71-.722c-1.328 0-2.423 1.105-2.423 2.433v4.855H40.856V18.017h4.855a2.453 2.453 0 0 0 2.433-2.433c0-.648-.265-1.253-.722-1.71L37.71 4.163A2.41 2.41 0 0 0 36 3.44c-.648 0-1.254.266-1.71.723l-9.712 9.71a2.41 2.41 0 0 0-.722 1.711 2.453 2.453 0 0 0 2.433 2.434h4.855v14.566H16.567V27.73c0-1.328-1.095-2.433-2.423-2.433-.648 0-1.253.265-1.71.722L2.723 35.74A2.4 2.4 0 0 0 2 37.44c0 .648.266 1.254.723 1.71l9.71 9.712a2.41 2.41 0 0 0 1.711.722 2.435 2.435 0 0 0 2.423-2.422v-4.866h14.577v14.577H26.29c-1.328 0-2.433 1.094-2.433 2.423 0 .648.265 1.253.722 1.71l9.711 9.711A2.41 2.41 0 0 0 36 71.44c.648 0 1.254-.266 1.71-.722l9.712-9.712a2.41 2.41 0 0 0 .722-1.71c0-1.328-1.105-2.423-2.433-2.423h-4.855V42.296h14.577v4.866a2.435 2.435 0 0 0 2.423 2.422c.648 0 1.253-.265 1.71-.722l9.712-9.711A2.41 2.41 0 0 0 70 37.44" style="stroke-linecap:butt;stroke-linejoin:round;fill:#fff"/></g></g></svg>