<svg xmlns="http://www.w3.org/2000/svg" id="svg13" width="96" height="96" viewBox="0 0 72 72"><defs id="defs4"><style id="style2" type="text/css">*{stroke-linecap:butt;stroke-linejoin:round}</style></defs><g id="g4236"><g id="patch_1" style="stroke-linecap:butt;stroke-linejoin:round"><path id="path6" d="M0 72h72V0H0Z" style="opacity:0;fill:none;stroke-linecap:butt;stroke-linejoin:round"/></g><g id="text_1" style="stroke-linecap:butt;stroke-linejoin:round;fill:#fff"><path id="path9" d="M57.86 45.94c0-.074 0-.149-.042-.223L35.995 27.729 14.182 45.717c0 .074-.043.149-.043.223v18.211a2.453 2.453 0 0 0 2.433 2.433H31.14V52.017h9.722v14.567h14.567a2.453 2.453 0 0 0 2.433-2.433zm8.458-2.614c.415-.5.34-1.296-.148-1.71l-8.31-6.907V19.23a1.2 1.2 0 0 0-1.22-1.211h-7.28a1.2 1.2 0 0 0-1.22 1.21v7.396l-9.255-7.735c-1.594-1.328-4.176-1.328-5.77 0L5.83 41.616c-.488.414-.563 1.21-.148 1.71l2.348 2.805c.19.223.5.383.797.415.34.042.648-.075.913-.266l26.255-21.887L62.26 46.28c.223.191.488.266.797.266h.116a1.27 1.27 0 0 0 .797-.415z" style="stroke-linecap:butt;stroke-linejoin:round;fill:#fff"/></g></g></svg>