<svg xmlns="http://www.w3.org/2000/svg" id="svg13" width="96" height="96" viewBox="0 0 72 72"><defs id="defs4"><style id="style2" type="text/css">*{stroke-linecap:butt;stroke-linejoin:round}</style></defs><g id="g4236"><g id="patch_1" style="stroke-linecap:butt;stroke-linejoin:round"><path id="path6" d="M0 72h72V0H0Z" style="opacity:0;fill:none;stroke-linecap:butt;stroke-linejoin:round"/></g><g id="text_1" style="stroke-linecap:butt;stroke-linejoin:round;fill:#fff"><path id="path9" d="M48.14 32.59c0 9.37-7.63 17-17 17-9.372 0-17-7.63-17-17 0-9.372 7.628-17 17-17 9.37 0 17 7.628 17 17m19.432 31.567c0-1.286-.531-2.54-1.402-3.411L53.154 47.73a26.7 26.7 0 0 0 4.707-15.14c0-14.77-11.953-26.722-26.722-26.722-14.758 0-26.711 11.953-26.711 26.722 0 14.758 11.953 26.71 26.711 26.71 5.387 0 10.7-1.635 15.14-4.706l13.016 12.984a4.79 4.79 0 0 0 3.422 1.434c2.656 0 4.855-2.2 4.855-4.855" style="stroke-linecap:butt;stroke-linejoin:round;fill:#fff"/></g></g></svg>