<svg xmlns="http://www.w3.org/2000/svg" id="svg13" width="96" height="96" viewBox="0 0 72 72"><defs id="defs4"><style id="style2" type="text/css">*{stroke-linecap:butt;stroke-linejoin:round}</style></defs><g id="g4236"><g id="patch_1" style="stroke-linecap:butt;stroke-linejoin:round"><path id="path6" d="M0 72h72V0H0Z" style="opacity:0;fill:none;stroke-linecap:butt;stroke-linejoin:round"/></g><g id="text_1" style="stroke-linecap:butt;stroke-linejoin:round;fill:#fff"><path id="path9" d="M62.711 37.44c0-1.296-.488-2.54-1.402-3.421L36.606 9.316a4.96 4.96 0 0 0-3.453-1.435 4.84 4.84 0 0 0-3.411 1.435l-2.848 2.847a4.75 4.75 0 0 0-1.445 3.421c0 1.286.532 2.54 1.445 3.411l11.114 11.156H11.297c-2.73 0-4.441 2.274-4.441 4.856v4.855c0 2.582 1.71 4.867 4.44 4.867h26.712L26.894 55.843a4.92 4.92 0 0 0-1.445 3.453 4.92 4.92 0 0 0 1.445 3.453l2.848 2.847c.903.871 2.125 1.403 3.41 1.403s2.54-.531 3.454-1.403l24.703-24.703c.914-.914 1.402-2.167 1.402-3.453" style="stroke-linecap:butt;stroke-linejoin:round;fill:#fff"/></g></g></svg>