<svg xmlns="http://www.w3.org/2000/svg" width="96" height="96" viewBox="0 0 25.4 25.4"><g transform="translate(-.268)"><circle cx="12.968" cy="12.764" r="12.636" style="fill:#147bb3;fill-opacity:1;stroke:none;stroke-width:.55722821;stroke-dasharray:none;stroke-opacity:1"/><path d="M14.652 11.079v-3.47c0-.875-.71-1.585-1.585-1.585h-.2c-.875 0-1.584.71-1.584 1.585v3.47h-3.47c-.875 0-1.585.71-1.585 1.585v.2c0 .875.71 1.584 1.585 1.584h3.47v3.47c0 .875.71 1.585 1.585 1.585h.2c.875 0 1.584-.71 1.584-1.585v-3.47h3.47c.875 0 1.585-.71 1.585-1.585v-.2c0-.875-.71-1.584-1.585-1.584z" style="fill:#f0f0f0;fill-opacity:1;stroke:none;stroke-width:.55722821;stroke-dasharray:none;stroke-opacity:1"/></g></svg>