<svg xmlns="http://www.w3.org/2000/svg" width="96" height="96" viewBox="0 0 25.4 25.4"><g aria-label="PRO" style="font-style:normal;font-weight:400;font-size:10.58333397px;line-height:6.61458349px;font-family:sans-serif;letter-spacing:0;word-spacing:0;fill:#a4a6a6;fill-opacity:1;stroke:none;stroke-width:.26458335px;stroke-linecap:butt;stroke-linejoin:miter;stroke-opacity:1"><path d="M-5.788-15.517v-2.264h1.291q.286 0 .55.042t.466.17q.201.116.318.338.127.222.127.582t-.127.582q-.117.222-.318.35-.2.116-.465.158t-.55.042zm-1.661-3.556v7.557h1.661v-2.71h1.746q.71 0 1.207-.2.497-.212.804-.55.318-.34.455-.773.149-.445.149-.9 0-.466-.149-.9-.137-.434-.455-.772-.307-.339-.804-.54-.497-.212-1.207-.212zM1.26-15.654v-2.127h1.821q.572 0 .857.254.286.243.286.793 0 .572-.286.826-.285.254-.857.254zM-.4-19.073v7.557h1.66v-2.953h1.662q.625 0 .9.275t.36.868q.063.455.095.953t.17.857h1.661q-.116-.159-.18-.381-.053-.233-.085-.487-.02-.254-.031-.497-.01-.244-.021-.424-.022-.285-.085-.571-.053-.286-.18-.519-.127-.243-.328-.413-.201-.18-.508-.264v-.021q.635-.254.91-.741.286-.487.286-1.154 0-.434-.159-.804-.148-.381-.444-.667-.286-.286-.699-.444-.402-.17-.91-.17zM8.56-15.263q0-.497.106-.963.116-.465.36-.825.243-.37.635-.582.391-.223.952-.223t.953.223q.391.211.635.582.243.36.35.825.116.466.116.963 0 .477-.117.932-.106.444-.35.804-.243.36-.634.582-.392.212-.953.212t-.952-.212q-.392-.222-.635-.582-.244-.36-.36-.804-.106-.455-.106-.932m-1.661 0q0 .826.254 1.546.254.709.73 1.238t1.164.836q.699.296 1.566.296.879 0 1.567-.296.688-.307 1.164-.836.476-.53.73-1.238.254-.72.254-1.546 0-.846-.254-1.566-.254-.73-.73-1.27t-1.164-.847-1.567-.307q-.867 0-1.566.307-.688.307-1.164.847t-.73 1.27q-.254.72-.254 1.566" style="font-style:normal;font-variant:normal;font-weight:700;font-stretch:normal;font-size:10.58333397px;line-height:2500%;font-family:&quot;Helvetica Neue&quot;;-inkscape-font-specification:&quot;Helvetica Neue, Bold&quot;;font-variant-ligatures:normal;font-variant-caps:normal;font-variant-numeric:normal;font-feature-settings:normal;text-align:start;writing-mode:lr-tb;text-anchor:start;fill:#a4a6a6;fill-opacity:1;stroke-width:.26458335px" transform="translate(8.7 30.495)scale(1.16309)"/></g></svg>