<svg xmlns="http://www.w3.org/2000/svg" width="96" height="96" viewBox="0 0 25.4 25.4"><g aria-label="HOME" style="font-style:normal;font-variant:normal;font-weight:700;font-stretch:condensed;font-size:11.24873543px;line-height:2500%;font-family:&quot;Helvetica Neue&quot;;-inkscape-font-specification:&quot;Helvetica Neue, Bold Condensed&quot;;font-variant-ligatures:normal;font-variant-caps:normal;font-variant-numeric:normal;font-feature-settings:normal;text-align:start;letter-spacing:0;word-spacing:0;writing-mode:lr-tb;text-anchor:start;fill:#2298c7;fill-opacity:1;stroke:none;stroke-width:.28121838px;stroke-linecap:butt;stroke-linejoin:miter;stroke-opacity:1"><path d="M-.036 8.701v8.032h1.62v-3.566h1.89v3.566h1.62V8.7h-1.62v3.071h-1.89v-3.07ZM7.698 12.717q0-.81.034-1.372.045-.563.158-.923.123-.36.337-.517.225-.169.585-.169t.574.169q.225.157.337.517.124.36.158.923.045.562.045 1.372T9.88 14.1q-.034.563-.158.923-.112.349-.337.517-.214.158-.574.158t-.585-.158q-.214-.168-.337-.517-.113-.36-.158-.923-.034-.573-.034-1.383m-1.62 0q0 .922.08 1.687.09.765.37 1.316.293.551.833.844t1.451.292 1.451-.292.821-.844q.293-.55.371-1.316.09-.765.09-1.687 0-.911-.09-1.676-.078-.776-.37-1.328-.282-.55-.822-.854-.54-.315-1.451-.315t-1.451.315q-.54.303-.833.854-.28.552-.37 1.328-.08.765-.08 1.676M12.543 8.701v8.032h1.484V10.32h.023l1.428 6.412h1.26l1.429-6.412h.022v6.412h1.485V8.7h-2.396l-1.158 5.67h-.023L14.95 8.7ZM25.324 8.701h-4.489v8.032h4.601v-1.328h-2.98v-2.16h2.699v-1.327h-2.7v-1.89h2.869z" style="font-style:normal;font-variant:normal;font-weight:700;font-stretch:condensed;font-size:11.24873543px;line-height:2500%;font-family:&quot;Helvetica Neue&quot;;-inkscape-font-specification:&quot;Helvetica Neue, Bold Condensed&quot;;font-variant-ligatures:normal;font-variant-caps:normal;font-variant-numeric:normal;font-feature-settings:normal;text-align:start;writing-mode:lr-tb;text-anchor:start;fill:#2298c7;fill-opacity:1;stroke-width:.28121838px"/></g></svg>