<?xml version="1.0" encoding="UTF-8" standalone="no"?>
<svg
   viewBox="0 0 1360.6293 1360.6293"
   height="1360.6293"
   width="1360.6293"
   xml:space="preserve"
   id="svg4238"
   version="1.1"
   xmlns="http://www.w3.org/2000/svg"
   xmlns:svg="http://www.w3.org/2000/svg"
   xmlns:rdf="http://www.w3.org/1999/02/22-rdf-syntax-ns#"
   xmlns:cc="http://creativecommons.org/ns#"
   xmlns:dc="http://purl.org/dc/elements/1.1/"><metadata
     id="metadata4244"><rdf:RDF><cc:Work
         rdf:about=""><dc:format>image/svg+xml</dc:format><dc:type
           rdf:resource="http://purl.org/dc/dcmitype/StillImage" /></cc:Work></rdf:RDF></metadata><defs
     id="defs4242"><clipPath
       id="clipPath4256"
       clipPathUnits="userSpaceOnUse"><path
         id="path4254"
         d="M 0,0 H 1020.472 V 1020.472 H 0 Z" /></clipPath><mask
       id="mask4260"
       height="1"
       width="1"
       y="0"
       x="0"
       maskUnits="userSpaceOnUse" /><clipPath
       id="clipPath4282"
       clipPathUnits="userSpaceOnUse"><path
         id="path4280"
         d="M 269.2913,745.5118 H 751.7262 V 243.7795 H 269.2913 Z" /></clipPath><clipPath
       id="clipPath4288"
       clipPathUnits="userSpaceOnUse"><path
         id="path4286"
         d="M 269.2913,243.7795 H 751.7262 V 745.5118 H 269.2913 Z" /></clipPath></defs><g
     id="g4248"
     transform="matrix(1.3333333,0,0,-1.3333333,0,1360.6293)" /><g
     id="g4250"
     transform="matrix(1.3333333,0,0,-1.3333333,0,1360.6293)"><g
       clip-path="url(#clipPath4256)"
       id="g4252"><g
         transform="matrix(990,0,0,-990,15,1003)"
         id="g4258" /><path
         id="path4266"
         style="fill:#2599c7;fill-opacity:1;fill-rule:nonzero;stroke:none"
         d="m 344.2126,921.2598 h 332.0472 c 135.3098,0 245,-109.6902 245,-245 V 344.2126 c 0,-135.3098 -109.6902,-245 -245,-245 H 344.2126 c -135.3098,0 -245,109.6902 -245,245 v 332.0472 c 0,135.3098 109.6902,245 245,245 z" /><g
         transform="matrix(1,0,0,-1,0,1020.472)"
         id="g4268"><path
           id="path4270"
           style="fill:none;stroke:#2599c7;stroke-width:80;stroke-linecap:round;stroke-linejoin:round;stroke-miterlimit:10;stroke-dasharray:none;stroke-opacity:1"
           d="m 344.2126,99.2126 h 332.0472 c 135.3098,0 245,109.6902 245,245 v 332.0472 c 0,135.3098 -109.6902,245 -245,245 H 344.2126 c -135.3098,0 -245,-109.6902 -245,-245 V 344.2126 c 0,-135.3098 109.6902,-245 245,-245 z" /></g><g
         transform="matrix(1,0,0,-1,0,1020.472)"
         id="g4272"><path
           id="path4274"
           style="fill:none;stroke:#2599c7;stroke-width:3;stroke-linecap:round;stroke-linejoin:round;stroke-miterlimit:10;stroke-dasharray:none;stroke-opacity:1"
           d="m 339.5276,59.52757 h 341.4173 c 154.6397,0 280,125.36023 280,280.00003 v 341.4173 c 0,154.6397 -125.3603,280 -280,280 H 339.5276 c -154.6398,0 -280.00003,-125.3603 -280.00003,-280 V 339.5276 c 0,-154.6398 125.36023,-280.00003 280.00003,-280.00003 z" /></g></g></g><g
     id="g4276"
     transform="matrix(1.3333333,0,0,-1.3333333,0,1360.6293)"><g
       clip-path="url(#clipPath4282)"
       id="g4278"><g
         clip-path="url(#clipPath4288)"
         id="g4284"><path
           id="path4290"
           style="fill:#ffffff;fill-opacity:1;fill-rule:nonzero;stroke:none"
           d="m 510.342,744.0545 c -95.6572,1.2737 -187.1655,-62.7937 -220.2605,-152.2757 -34.2336,-86.3752 -9.8803,-191.5267 58.6448,-254.3204 46.7383,-44.7892 112.3108,-68.0812 176.6869,-64.762 23.5236,-0.0772 50.289,-2.4894 67.6953,16.9624 29.9303,27.4409 17.8694,82.6893 -20.7254,95.2133 -23.3692,6.6383 -48.0891,2.0262 -71.3811,3.9174 -57.4483,2.856 -107.3514,52.7591 -110.2074,110.2074 -5.7313,57.3519 35.6423,114.6458 92.2608,126.1857 55.9239,14.0871 119.0264,-18.101 138.922,-72.5968 12.7363,-31.7249 6.5611,-66.248 7.9891,-99.4974 0.3088,-51.4854 -0.521,-103.8779 0.4632,-154.7651 1.7174,-40.5438 51.7749,-66.9234 86.1435,-45.4454 23.9095,12.2925 31.5127,40.0228 29.4093,64.9744 -0.1544,70.2618 0.3087,140.5815 -0.2316,210.8433 -7.526,66.4795 -41.7596,130.103 -96.4098,169.4504 -39.9456,29.6215 -89.3276,46.0629 -138.9991,45.9085 z" /></g></g></g></svg>
